STARTFONT 2.1
FONT -FontForge-DOSSaemmul-Medium-R-Normal--16-150-75-75-P-159-ISO10646-1
SIZE 15 75 75
FONTBOUNDINGBOX 16 16 0 -2
COMMENT "Generated by fontforge, http://fontforge.sourceforge.net"
COMMENT "Copyright (c) 2016 Damheo Lee"
STARTPROPERTIES 35
FOUNDRY "FontForge"
FAMILY_NAME "DOSSaemmul"
WEIGHT_NAME "Medium"
SLANT "R"
SETWIDTH_NAME "Normal"
ADD_STYLE_NAME ""
PIXEL_SIZE 16
POINT_SIZE 150
RESOLUTION_X 75
RESOLUTION_Y 75
SPACING "P"
AVERAGE_WIDTH 159
CHARSET_REGISTRY "ISO10646"
CHARSET_ENCODING "1"
FONTNAME_REGISTRY ""
CHARSET_COLLECTIONS "KSC5601.1992 BIG5 ISO10646-1"
FONT_NAME "DOSSaemmul"
FACE_NAME "DOS Saemmul"
COPYRIGHT "Copyright (c) 2016 Damheo Lee"
FONT_VERSION "1.50"
FONT_ASCENT 14
FONT_DESCENT 2
UNDERLINE_POSITION -2
UNDERLINE_THICKNESS 1
X_HEIGHT 7
CAP_HEIGHT 10
DEFAULT_CHAR 3
RAW_ASCENT 875
RAW_DESCENT 125
NORM_SPACE 8
RELATIVE_WEIGHT 50
RELATIVE_SETWIDTH 50
FIGURE_WIDTH 8
AVG_LOWERCASE_WIDTH 80
AVG_UPPERCASE_WIDTH 80
ENDPROPERTIES
CHARS 24869
STARTCHAR uni0000
ENCODING 0
SWIDTH 500 0
DWIDTH 8 0
BBX 1 1 0 0
BITMAP
00
ENDCHAR
STARTCHAR uni0020
ENCODING 32
SWIDTH 500 0
DWIDTH 8 0
BBX 1 1 0 0
BITMAP
00
ENDCHAR
STARTCHAR uni0021
ENCODING 33
SWIDTH 500 0
DWIDTH 8 0
BBX 4 9 2 2
BITMAP
60
F0
F0
F0
60
60
00
60
60
ENDCHAR
STARTCHAR uni0022
ENCODING 34
SWIDTH 500 0
DWIDTH 8 0
BBX 6 4 1 8
BITMAP
CC
CC
CC
88
ENDCHAR
STARTCHAR uni0023
ENCODING 35
SWIDTH 500 0
DWIDTH 8 0
BBX 7 9 0 2
BITMAP
6C
6C
FE
6C
6C
6C
FE
6C
6C
ENDCHAR
STARTCHAR uni0024
ENCODING 36
SWIDTH 500 0
DWIDTH 8 0
BBX 7 13 0 0
BITMAP
18
18
7C
C6
C2
C0
7C
06
86
C6
7C
18
18
ENDCHAR
STARTCHAR uni0025
ENCODING 37
SWIDTH 500 0
DWIDTH 8 0
BBX 7 7 0 2
BITMAP
C2
C6
0C
18
30
66
C6
ENDCHAR
STARTCHAR uni0026
ENCODING 38
SWIDTH 500 0
DWIDTH 8 0
BBX 7 9 0 2
BITMAP
38
6C
6C
38
76
DC
CC
CC
76
ENDCHAR
STARTCHAR uni0027
ENCODING 39
SWIDTH 500 0
DWIDTH 8 0
BBX 3 4 1 8
BITMAP
60
60
60
C0
ENDCHAR
STARTCHAR uni0028
ENCODING 40
SWIDTH 500 0
DWIDTH 8 0
BBX 4 9 2 2
BITMAP
30
60
C0
C0
C0
C0
C0
60
30
ENDCHAR
STARTCHAR uni0029
ENCODING 41
SWIDTH 500 0
DWIDTH 8 0
BBX 4 9 2 2
BITMAP
C0
60
30
30
30
30
30
60
C0
ENDCHAR
STARTCHAR uni002A
ENCODING 42
SWIDTH 500 0
DWIDTH 8 0
BBX 8 5 0 4
BITMAP
66
3C
FF
3C
66
ENDCHAR
STARTCHAR uni002B
ENCODING 43
SWIDTH 500 0
DWIDTH 8 0
BBX 8 7 0 3
BITMAP
18
18
18
FF
18
18
18
ENDCHAR
STARTCHAR uni002C
ENCODING 44
SWIDTH 500 0
DWIDTH 8 0
BBX 3 4 1 -1
BITMAP
60
60
60
C0
ENDCHAR
STARTCHAR uni002D
ENCODING 45
SWIDTH 500 0
DWIDTH 8 0
BBX 6 1 1 6
BITMAP
FC
ENDCHAR
STARTCHAR uni002E
ENCODING 46
SWIDTH 500 0
DWIDTH 8 0
BBX 2 1 2 1
BITMAP
C0
ENDCHAR
STARTCHAR uni002F
ENCODING 47
SWIDTH 500 0
DWIDTH 8 0
BBX 7 8 0 3
BITMAP
02
06
0C
18
30
60
C0
80
ENDCHAR
STARTCHAR uni0030
ENCODING 48
SWIDTH 500 0
DWIDTH 8 0
BBX 7 9 0 2
BITMAP
38
6C
C6
C6
C6
C6
C6
6C
38
ENDCHAR
STARTCHAR uni0031
ENCODING 49
SWIDTH 500 0
DWIDTH 8 0
BBX 6 9 1 2
BITMAP
30
70
F0
30
30
30
30
30
FC
ENDCHAR
STARTCHAR uni0032
ENCODING 50
SWIDTH 500 0
DWIDTH 8 0
BBX 7 9 0 2
BITMAP
7C
C6
06
0C
18
30
60
C6
FE
ENDCHAR
STARTCHAR uni0033
ENCODING 51
SWIDTH 500 0
DWIDTH 8 0
BBX 7 9 0 2
BITMAP
7C
C6
06
06
3C
06
06
C6
7C
ENDCHAR
STARTCHAR uni0034
ENCODING 52
SWIDTH 500 0
DWIDTH 8 0
BBX 7 9 0 2
BITMAP
0C
1C
3C
6C
CC
FE
0C
0C
1E
ENDCHAR
STARTCHAR uni0035
ENCODING 53
SWIDTH 500 0
DWIDTH 8 0
BBX 7 9 0 2
BITMAP
FE
C0
C0
C0
FC
06
06
C6
7C
ENDCHAR
STARTCHAR uni0036
ENCODING 54
SWIDTH 500 0
DWIDTH 8 0
BBX 7 9 0 2
BITMAP
38
60
C0
C0
FC
C6
C6
C6
7C
ENDCHAR
STARTCHAR uni0037
ENCODING 55
SWIDTH 500 0
DWIDTH 8 0
BBX 7 9 0 2
BITMAP
FE
C6
06
0C
18
30
30
30
30
ENDCHAR
STARTCHAR uni0038
ENCODING 56
SWIDTH 500 0
DWIDTH 8 0
BBX 7 9 0 2
BITMAP
7C
C6
C6
C6
7C
C6
C6
C6
7C
ENDCHAR
STARTCHAR uni0039
ENCODING 57
SWIDTH 500 0
DWIDTH 8 0
BBX 7 9 0 2
BITMAP
7C
C6
C6
C6
7E
06
06
0C
78
ENDCHAR
STARTCHAR uni003A
ENCODING 58
SWIDTH 500 0
DWIDTH 8 0
BBX 2 7 3 3
BITMAP
C0
C0
00
00
00
C0
C0
ENDCHAR
STARTCHAR uni003B
ENCODING 59
SWIDTH 500 0
DWIDTH 8 0
BBX 3 8 2 2
BITMAP
60
60
00
00
00
60
60
C0
ENDCHAR
STARTCHAR uni003C
ENCODING 60
SWIDTH 500 0
DWIDTH 8 0
BBX 6 9 1 2
BITMAP
0C
18
30
60
C0
60
30
18
0C
ENDCHAR
STARTCHAR uni003D
ENCODING 61
SWIDTH 500 0
DWIDTH 8 0
BBX 6 4 1 4
BITMAP
FC
00
00
FC
ENDCHAR
STARTCHAR uni003E
ENCODING 62
SWIDTH 500 0
DWIDTH 8 0
BBX 6 9 1 2
BITMAP
C0
60
30
18
0C
18
30
60
C0
ENDCHAR
STARTCHAR uni003F
ENCODING 63
SWIDTH 500 0
DWIDTH 8 0
BBX 7 9 0 2
BITMAP
7C
C6
C6
0C
18
18
00
18
18
ENDCHAR
STARTCHAR uni0040
ENCODING 64
SWIDTH 500 0
DWIDTH 8 0
BBX 7 9 0 2
BITMAP
7C
C6
C6
DE
DE
DE
DC
C0
7C
ENDCHAR
STARTCHAR uni0041
ENCODING 65
SWIDTH 500 0
DWIDTH 8 0
BBX 7 9 0 2
BITMAP
10
38
6C
C6
C6
FE
C6
C6
C6
ENDCHAR
STARTCHAR uni0042
ENCODING 66
SWIDTH 500 0
DWIDTH 8 0
BBX 7 9 0 2
BITMAP
FC
66
66
66
7C
66
66
66
FC
ENDCHAR
STARTCHAR uni0043
ENCODING 67
SWIDTH 500 0
DWIDTH 8 0
BBX 7 9 0 2
BITMAP
3C
66
C2
C0
C0
C0
C2
66
3C
ENDCHAR
STARTCHAR uni0044
ENCODING 68
SWIDTH 500 0
DWIDTH 8 0
BBX 7 9 0 2
BITMAP
F8
6C
66
66
66
66
66
6C
F8
ENDCHAR
STARTCHAR uni0045
ENCODING 69
SWIDTH 500 0
DWIDTH 8 0
BBX 7 9 0 2
BITMAP
FE
66
62
68
78
68
62
66
FE
ENDCHAR
STARTCHAR uni0046
ENCODING 70
SWIDTH 500 0
DWIDTH 8 0
BBX 7 9 0 2
BITMAP
FE
66
62
68
78
68
60
60
F0
ENDCHAR
STARTCHAR uni0047
ENCODING 71
SWIDTH 500 0
DWIDTH 8 0
BBX 7 9 0 2
BITMAP
3C
66
C2
C0
C0
DE
C6
66
3A
ENDCHAR
STARTCHAR uni0048
ENCODING 72
SWIDTH 500 0
DWIDTH 8 0
BBX 7 9 0 2
BITMAP
C6
C6
C6
C6
FE
C6
C6
C6
C6
ENDCHAR
STARTCHAR uni0049
ENCODING 73
SWIDTH 500 0
DWIDTH 8 0
BBX 4 9 2 2
BITMAP
F0
60
60
60
60
60
60
60
F0
ENDCHAR
STARTCHAR uni004A
ENCODING 74
SWIDTH 500 0
DWIDTH 8 0
BBX 7 9 0 2
BITMAP
1E
0C
0C
0C
0C
0C
CC
CC
78
ENDCHAR
STARTCHAR uni004B
ENCODING 75
SWIDTH 500 0
DWIDTH 8 0
BBX 7 9 0 2
BITMAP
E6
66
6C
6C
78
6C
6C
66
E6
ENDCHAR
STARTCHAR uni004C
ENCODING 76
SWIDTH 500 0
DWIDTH 8 0
BBX 7 9 0 2
BITMAP
F0
60
60
60
60
60
62
66
FE
ENDCHAR
STARTCHAR uni004D
ENCODING 77
SWIDTH 500 0
DWIDTH 8 0
BBX 7 9 0 2
BITMAP
C6
EE
FE
D6
C6
C6
C6
C6
C6
ENDCHAR
STARTCHAR uni004E
ENCODING 78
SWIDTH 500 0
DWIDTH 8 0
BBX 7 9 0 2
BITMAP
C6
E6
F6
FE
DE
CE
C6
C6
C6
ENDCHAR
STARTCHAR uni004F
ENCODING 79
SWIDTH 500 0
DWIDTH 8 0
BBX 7 9 0 2
BITMAP
7C
C6
C6
C6
C6
C6
C6
C6
7C
ENDCHAR
STARTCHAR uni0050
ENCODING 80
SWIDTH 500 0
DWIDTH 8 0
BBX 7 9 0 2
BITMAP
FC
66
66
66
7C
60
60
60
F0
ENDCHAR
STARTCHAR uni0051
ENCODING 81
SWIDTH 500 0
DWIDTH 8 0
BBX 7 10 0 1
BITMAP
7C
C6
C6
C6
C6
D6
DE
7C
0C
0E
ENDCHAR
STARTCHAR uni0052
ENCODING 82
SWIDTH 500 0
DWIDTH 8 0
BBX 8 9 0 2
BITMAP
FC
66
66
66
7C
6C
66
66
E7
ENDCHAR
STARTCHAR uni0053
ENCODING 83
SWIDTH 500 0
DWIDTH 8 0
BBX 7 9 0 2
BITMAP
7C
C6
C6
60
38
0C
C6
C6
7C
ENDCHAR
STARTCHAR uni0054
ENCODING 84
SWIDTH 500 0
DWIDTH 8 0
BBX 8 9 0 2
BITMAP
FF
99
18
18
18
18
18
18
3C
ENDCHAR
STARTCHAR uni0055
ENCODING 85
SWIDTH 500 0
DWIDTH 8 0
BBX 7 9 0 2
BITMAP
C6
C6
C6
C6
C6
C6
C6
C6
7C
ENDCHAR
STARTCHAR uni0056
ENCODING 86
SWIDTH 500 0
DWIDTH 8 0
BBX 7 9 0 2
BITMAP
C6
C6
C6
C6
C6
C6
6C
38
10
ENDCHAR
STARTCHAR uni0057
ENCODING 87
SWIDTH 500 0
DWIDTH 8 0
BBX 7 9 0 2
BITMAP
C6
C6
C6
C6
C6
D6
FE
EE
C6
ENDCHAR
STARTCHAR uni0058
ENCODING 88
SWIDTH 500 0
DWIDTH 8 0
BBX 7 9 0 2
BITMAP
C6
C6
C6
6C
38
6C
C6
C6
C6
ENDCHAR
STARTCHAR uni0059
ENCODING 89
SWIDTH 500 0
DWIDTH 8 0
BBX 8 9 0 2
BITMAP
C3
C3
66
3C
18
18
18
18
3C
ENDCHAR
STARTCHAR uni005A
ENCODING 90
SWIDTH 500 0
DWIDTH 8 0
BBX 7 9 0 2
BITMAP
FE
C6
8C
18
30
60
C2
C6
FE
ENDCHAR
STARTCHAR uni005B
ENCODING 91
SWIDTH 500 0
DWIDTH 8 0
BBX 4 9 2 2
BITMAP
F0
C0
C0
C0
C0
C0
C0
C0
F0
ENDCHAR
STARTCHAR uni005C
ENCODING 92
SWIDTH 500 0
DWIDTH 8 0
BBX 7 9 0 2
BITMAP
80
C0
E0
70
38
1C
0E
06
02
ENDCHAR
STARTCHAR uni005D
ENCODING 93
SWIDTH 500 0
DWIDTH 8 0
BBX 4 9 2 2
BITMAP
F0
30
30
30
30
30
30
30
F0
ENDCHAR
STARTCHAR uni005E
ENCODING 94
SWIDTH 500 0
DWIDTH 8 0
BBX 7 4 0 9
BITMAP
10
38
6C
C6
ENDCHAR
STARTCHAR uni005F
ENCODING 95
SWIDTH 500 0
DWIDTH 8 0
BBX 8 1 0 0
BITMAP
FF
ENDCHAR
STARTCHAR uni0060
ENCODING 96
SWIDTH 500 0
DWIDTH 8 0
BBX 3 3 3 10
BITMAP
C0
C0
60
ENDCHAR
STARTCHAR uni0061
ENCODING 97
SWIDTH 500 0
DWIDTH 8 0
BBX 7 6 0 2
BITMAP
78
0C
7C
CC
CC
76
ENDCHAR
STARTCHAR uni0062
ENCODING 98
SWIDTH 500 0
DWIDTH 8 0
BBX 7 9 0 2
BITMAP
E0
60
60
78
6C
66
66
66
DC
ENDCHAR
STARTCHAR uni0063
ENCODING 99
SWIDTH 500 0
DWIDTH 8 0
BBX 7 6 0 2
BITMAP
7C
C6
C0
C0
C6
7C
ENDCHAR
STARTCHAR uni0064
ENCODING 100
SWIDTH 500 0
DWIDTH 8 0
BBX 7 9 0 2
BITMAP
1C
0C
0C
3C
6C
CC
CC
CC
76
ENDCHAR
STARTCHAR uni0065
ENCODING 101
SWIDTH 500 0
DWIDTH 8 0
BBX 7 6 0 2
BITMAP
7C
C6
FE
C0
C6
7C
ENDCHAR
STARTCHAR uni0066
ENCODING 102
SWIDTH 500 0
DWIDTH 8 0
BBX 6 9 1 2
BITMAP
38
6C
64
60
F8
60
60
60
F0
ENDCHAR
STARTCHAR uni0067
ENCODING 103
SWIDTH 500 0
DWIDTH 8 0
BBX 7 8 0 0
BITMAP
76
CC
CC
CC
7C
0C
CC
78
ENDCHAR
STARTCHAR uni0068
ENCODING 104
SWIDTH 500 0
DWIDTH 8 0
BBX 7 9 0 2
BITMAP
E0
60
60
6C
76
66
66
66
E6
ENDCHAR
STARTCHAR uni0069
ENCODING 105
SWIDTH 500 0
DWIDTH 8 0
BBX 4 9 2 2
BITMAP
60
60
00
E0
60
60
60
60
F0
ENDCHAR
STARTCHAR uni006A
ENCODING 106
SWIDTH 500 0
DWIDTH 8 0
BBX 6 11 1 0
BITMAP
0C
0C
00
1C
0C
0C
0C
0C
CC
CC
78
ENDCHAR
STARTCHAR uni006B
ENCODING 107
SWIDTH 500 0
DWIDTH 8 0
BBX 7 9 0 2
BITMAP
E0
60
60
66
6C
78
6C
66
E6
ENDCHAR
STARTCHAR uni006C
ENCODING 108
SWIDTH 500 0
DWIDTH 8 0
BBX 4 9 2 2
BITMAP
E0
60
60
60
60
60
60
60
F0
ENDCHAR
STARTCHAR uni006D
ENCODING 109
SWIDTH 500 0
DWIDTH 8 0
BBX 7 6 0 2
BITMAP
EC
FE
D6
D6
D6
D6
ENDCHAR
STARTCHAR uni006E
ENCODING 110
SWIDTH 500 0
DWIDTH 8 0
BBX 7 6 0 2
BITMAP
DC
66
66
66
66
66
ENDCHAR
STARTCHAR uni006F
ENCODING 111
SWIDTH 500 0
DWIDTH 8 0
BBX 7 6 0 2
BITMAP
7C
C6
C6
C6
C6
7C
ENDCHAR
STARTCHAR uni0070
ENCODING 112
SWIDTH 500 0
DWIDTH 8 0
BBX 7 8 0 0
BITMAP
DC
66
66
66
7C
60
60
F0
ENDCHAR
STARTCHAR uni0071
ENCODING 113
SWIDTH 500 0
DWIDTH 8 0
BBX 7 8 0 0
BITMAP
76
CC
CC
CC
7C
0C
0C
1E
ENDCHAR
STARTCHAR uni0072
ENCODING 114
SWIDTH 500 0
DWIDTH 8 0
BBX 7 6 0 2
BITMAP
DC
76
66
60
60
F0
ENDCHAR
STARTCHAR uni0073
ENCODING 115
SWIDTH 500 0
DWIDTH 8 0
BBX 7 6 0 2
BITMAP
7C
C6
70
1C
C6
7C
ENDCHAR
STARTCHAR uni0074
ENCODING 116
SWIDTH 500 0
DWIDTH 8 0
BBX 7 9 0 2
BITMAP
10
30
30
FC
30
30
30
36
1C
ENDCHAR
STARTCHAR uni0075
ENCODING 117
SWIDTH 500 0
DWIDTH 8 0
BBX 7 6 0 2
BITMAP
CC
CC
CC
CC
CC
76
ENDCHAR
STARTCHAR uni0076
ENCODING 118
SWIDTH 500 0
DWIDTH 8 0
BBX 7 6 0 2
BITMAP
C6
C6
C6
6C
38
10
ENDCHAR
STARTCHAR uni0077
ENCODING 119
SWIDTH 500 0
DWIDTH 8 0
BBX 7 6 0 2
BITMAP
C6
C6
C6
D6
FE
6C
ENDCHAR
STARTCHAR uni0078
ENCODING 120
SWIDTH 500 0
DWIDTH 8 0
BBX 7 6 0 2
BITMAP
C6
6C
38
38
6C
C6
ENDCHAR
STARTCHAR uni0079
ENCODING 121
SWIDTH 500 0
DWIDTH 8 0
BBX 7 8 0 0
BITMAP
C6
C6
C6
C6
7E
06
0C
78
ENDCHAR
STARTCHAR uni007A
ENCODING 122
SWIDTH 500 0
DWIDTH 8 0
BBX 7 6 0 2
BITMAP
FE
CC
18
30
66
FE
ENDCHAR
STARTCHAR uni007B
ENCODING 123
SWIDTH 500 0
DWIDTH 8 0
BBX 6 9 1 2
BITMAP
1C
30
30
30
E0
30
30
30
1C
ENDCHAR
STARTCHAR uni007C
ENCODING 124
SWIDTH 500 0
DWIDTH 8 0
BBX 2 9 3 2
BITMAP
C0
C0
C0
C0
00
C0
C0
C0
C0
ENDCHAR
STARTCHAR uni007D
ENCODING 125
SWIDTH 500 0
DWIDTH 8 0
BBX 6 9 1 2
BITMAP
E0
30
30
30
1C
30
30
30
E0
ENDCHAR
STARTCHAR uni007E
ENCODING 126
SWIDTH 500 0
DWIDTH 8 0
BBX 7 2 0 9
BITMAP
76
DC
ENDCHAR
STARTCHAR uni1100
ENCODING 4352
SWIDTH 1000 0
DWIDTH 16 0
BBX 6 7 1 6
BITMAP
FC
04
04
04
04
04
04
ENDCHAR
STARTCHAR uni1101
ENCODING 4353
SWIDTH 1000 0
DWIDTH 16 0
BBX 6 7 1 6
BITMAP
FC
24
24
24
24
24
24
ENDCHAR
STARTCHAR uni1102
ENCODING 4354
SWIDTH 1000 0
DWIDTH 16 0
BBX 6 7 2 6
BITMAP
80
80
80
80
80
80
FC
ENDCHAR
STARTCHAR uni1103
ENCODING 4355
SWIDTH 1000 0
DWIDTH 16 0
BBX 6 7 2 6
BITMAP
FC
80
80
80
80
80
FC
ENDCHAR
STARTCHAR uni1104
ENCODING 4356
SWIDTH 1000 0
DWIDTH 16 0
BBX 7 7 1 6
BITMAP
EE
88
88
88
88
88
EE
ENDCHAR
STARTCHAR uni1105
ENCODING 4357
SWIDTH 1000 0
DWIDTH 16 0
BBX 7 7 1 6
BITMAP
FE
02
02
FE
80
80
FE
ENDCHAR
STARTCHAR uni1106
ENCODING 4358
SWIDTH 1000 0
DWIDTH 16 0
BBX 6 7 2 6
BITMAP
FC
84
84
84
84
84
FC
ENDCHAR
STARTCHAR uni1107
ENCODING 4359
SWIDTH 1000 0
DWIDTH 16 0
BBX 6 7 2 6
BITMAP
84
84
FC
84
84
84
FC
ENDCHAR
STARTCHAR uni1108
ENCODING 4360
SWIDTH 1000 0
DWIDTH 16 0
BBX 7 7 2 6
BITMAP
92
92
FE
92
92
92
FE
ENDCHAR
STARTCHAR uni1109
ENCODING 4361
SWIDTH 1000 0
DWIDTH 16 0
BBX 7 7 2 6
BITMAP
10
10
10
28
28
44
82
ENDCHAR
STARTCHAR uni110A
ENCODING 4362
SWIDTH 1000 0
DWIDTH 16 0
BBX 8 7 1 6
BITMAP
24
24
24
24
5A
4A
91
ENDCHAR
STARTCHAR uni110B
ENCODING 4363
SWIDTH 1000 0
DWIDTH 16 0
BBX 6 7 2 6
BITMAP
30
48
84
84
84
48
30
ENDCHAR
STARTCHAR uni110C
ENCODING 4364
SWIDTH 1000 0
DWIDTH 16 0
BBX 5 7 3 6
BITMAP
F8
20
20
20
50
50
88
ENDCHAR
STARTCHAR uni110D
ENCODING 4365
SWIDTH 1000 0
DWIDTH 16 0
BBX 8 7 1 6
BITMAP
FF
24
24
24
5A
4A
91
ENDCHAR
STARTCHAR uni110E
ENCODING 4366
SWIDTH 1000 0
DWIDTH 16 0
BBX 5 8 3 6
BITMAP
70
00
F8
20
20
50
50
88
ENDCHAR
STARTCHAR uni110F
ENCODING 4367
SWIDTH 1000 0
DWIDTH 16 0
BBX 6 7 1 6
BITMAP
FC
04
FC
04
04
04
04
ENDCHAR
STARTCHAR uni1110
ENCODING 4368
SWIDTH 1000 0
DWIDTH 16 0
BBX 6 7 3 6
BITMAP
FC
80
80
F8
80
80
FC
ENDCHAR
STARTCHAR uni1111
ENCODING 4369
SWIDTH 1000 0
DWIDTH 16 0
BBX 6 7 2 6
BITMAP
FC
48
48
48
48
48
FC
ENDCHAR
STARTCHAR uni1112
ENCODING 4370
SWIDTH 1000 0
DWIDTH 16 0
BBX 7 8 2 6
BITMAP
38
00
FE
00
38
44
44
38
ENDCHAR
STARTCHAR uni111E
ENCODING 4382
SWIDTH 1000 0
DWIDTH 16 0
BBX 7 8 1 5
BITMAP
82
82
FE
82
FE
28
44
38
ENDCHAR
STARTCHAR uni1120
ENCODING 4384
SWIDTH 1000 0
DWIDTH 16 0
BBX 8 7 0 6
BITMAP
9F
91
91
F1
91
91
F1
ENDCHAR
STARTCHAR uni1121
ENCODING 4385
SWIDTH 1000 0
DWIDTH 16 0
BBX 8 7 0 6
BITMAP
2F
21
21
21
51
51
89
ENDCHAR
STARTCHAR uni1127
ENCODING 4391
SWIDTH 1000 0
DWIDTH 16 0
BBX 8 7 0 6
BITMAP
97
94
94
F4
94
94
F7
ENDCHAR
STARTCHAR uni112B
ENCODING 4395
SWIDTH 1000 0
DWIDTH 16 0
BBX 9 7 0 6
BITMAP
2780
2400
2400
2400
5400
5400
8B80
ENDCHAR
STARTCHAR uni112D
ENCODING 4397
SWIDTH 1000 0
DWIDTH 16 0
BBX 9 7 0 6
BITMAP
2480
2480
2480
2780
5480
5480
8F80
ENDCHAR
STARTCHAR uni112F
ENCODING 4399
SWIDTH 1000 0
DWIDTH 16 0
BBX 9 7 0 6
BITMAP
9200
9200
9200
F200
9500
9500
F880
ENDCHAR
STARTCHAR uni1132
ENCODING 4402
SWIDTH 1000 0
DWIDTH 16 0
BBX 7 8 1 5
BITMAP
10
10
28
28
44
44
82
FE
ENDCHAR
STARTCHAR uni1136
ENCODING 4406
SWIDTH 1000 0
DWIDTH 16 0
BBX 7 9 1 5
BITMAP
10
10
10
38
44
82
82
44
38
ENDCHAR
STARTCHAR uni1140
ENCODING 4416
SWIDTH 1000 0
DWIDTH 16 0
BBX 9 7 0 6
BITMAP
9F80
9200
9200
F200
9500
9500
F880
ENDCHAR
STARTCHAR uni114C
ENCODING 4428
SWIDTH 1000 0
DWIDTH 16 0
BBX 9 8 0 5
BITMAP
2F80
2200
2200
2200
5700
5500
5500
8880
ENDCHAR
STARTCHAR uni1159
ENCODING 4441
SWIDTH 1000 0
DWIDTH 16 0
BBX 7 7 1 6
BITMAP
FE
00
7C
C6
82
C6
7C
ENDCHAR
STARTCHAR uni1161
ENCODING 4449
SWIDTH 1000 0
DWIDTH 16 0
BBX 3 10 13 3
BITMAP
80
80
80
E0
80
80
80
80
80
80
ENDCHAR
STARTCHAR uni1162
ENCODING 4450
SWIDTH 1000 0
DWIDTH 16 0
BBX 4 10 11 3
BITMAP
90
90
90
F0
90
90
90
90
90
90
ENDCHAR
STARTCHAR uni1163
ENCODING 4451
SWIDTH 1000 0
DWIDTH 16 0
BBX 3 10 13 3
BITMAP
80
80
E0
80
80
E0
80
80
80
80
ENDCHAR
STARTCHAR uni1164
ENCODING 4452
SWIDTH 1000 0
DWIDTH 16 0
BBX 4 10 11 3
BITMAP
90
90
F0
90
90
F0
90
90
90
90
ENDCHAR
STARTCHAR uni1165
ENCODING 4453
SWIDTH 1000 0
DWIDTH 16 0
BBX 4 10 10 3
BITMAP
10
10
10
F0
10
10
10
10
10
10
ENDCHAR
STARTCHAR uni1166
ENCODING 4454
SWIDTH 1000 0
DWIDTH 16 0
BBX 7 10 8 3
BITMAP
12
12
12
F2
12
12
12
12
12
12
ENDCHAR
STARTCHAR uni1167
ENCODING 4455
SWIDTH 1000 0
DWIDTH 16 0
BBX 4 10 10 3
BITMAP
10
10
F0
10
10
F0
10
10
10
10
ENDCHAR
STARTCHAR uni1168
ENCODING 4456
SWIDTH 1000 0
DWIDTH 16 0
BBX 7 10 8 3
BITMAP
12
12
F2
12
12
F2
12
12
12
12
ENDCHAR
STARTCHAR uni1169
ENCODING 4457
SWIDTH 1000 0
DWIDTH 16 0
BBX 11 4 2 4
BITMAP
0400
0400
0400
FFE0
ENDCHAR
STARTCHAR uni116A
ENCODING 4458
SWIDTH 1000 0
DWIDTH 16 0
BBX 14 10 2 3
BITMAP
0010
0010
0010
001C
0010
0010
1010
1010
FF90
0010
ENDCHAR
STARTCHAR uni116B
ENCODING 4459
SWIDTH 1000 0
DWIDTH 16 0
BBX 13 10 2 3
BITMAP
0048
0048
0048
0078
0048
0048
1048
1048
FF48
0048
ENDCHAR
STARTCHAR uni116C
ENCODING 4460
SWIDTH 1000 0
DWIDTH 16 0
BBX 12 10 2 3
BITMAP
0010
0010
0010
0010
0010
0010
0810
0810
FF90
0010
ENDCHAR
STARTCHAR uni116D
ENCODING 4461
SWIDTH 1000 0
DWIDTH 16 0
BBX 11 4 2 4
BITMAP
1100
1100
1100
FFE0
ENDCHAR
STARTCHAR uni116E
ENCODING 4462
SWIDTH 1000 0
DWIDTH 16 0
BBX 11 4 2 2
BITMAP
FFE0
0400
0400
0400
ENDCHAR
STARTCHAR uni116F
ENCODING 4463
SWIDTH 1000 0
DWIDTH 16 0
BBX 12 10 2 3
BITMAP
0010
0010
0010
0010
0010
0010
FF90
0810
08F0
0810
ENDCHAR
STARTCHAR uni1170
ENCODING 4464
SWIDTH 1000 0
DWIDTH 16 0
BBX 13 10 2 3
BITMAP
0048
0048
0048
0048
0048
0048
FF48
1048
11C8
1048
ENDCHAR
STARTCHAR uni1171
ENCODING 4465
SWIDTH 1000 0
DWIDTH 16 0
BBX 12 10 2 3
BITMAP
0010
0010
0010
0010
0010
0010
FF90
0810
0810
0810
ENDCHAR
STARTCHAR uni1172
ENCODING 4466
SWIDTH 1000 0
DWIDTH 16 0
BBX 11 4 2 2
BITMAP
FFE0
1100
1100
1100
ENDCHAR
STARTCHAR uni1173
ENCODING 4467
SWIDTH 1000 0
DWIDTH 16 0
BBX 11 1 2 4
BITMAP
FFE0
ENDCHAR
STARTCHAR uni1174
ENCODING 4468
SWIDTH 1000 0
DWIDTH 16 0
BBX 12 10 2 3
BITMAP
0010
0010
0010
0010
0010
0010
0010
0010
FF90
0010
ENDCHAR
STARTCHAR uni1175
ENCODING 4469
SWIDTH 1000 0
DWIDTH 16 0
BBX 1 10 13 3
BITMAP
80
80
80
80
80
80
80
80
80
80
ENDCHAR
STARTCHAR uni1184
ENCODING 4484
SWIDTH 1000 0
DWIDTH 16 0
BBX 14 10 2 3
BITMAP
0010
0010
0010
001C
0010
0010
241C
2410
FF90
0010
ENDCHAR
STARTCHAR uni1185
ENCODING 4485
SWIDTH 1000 0
DWIDTH 16 0
BBX 13 10 2 3
BITMAP
0048
0048
0048
0078
0048
0048
2478
2448
FF48
0048
ENDCHAR
STARTCHAR uni1188
ENCODING 4488
SWIDTH 1000 0
DWIDTH 16 0
BBX 12 10 2 3
BITMAP
0010
0010
0010
0010
0010
0010
2410
2410
FF90
0010
ENDCHAR
STARTCHAR uni1191
ENCODING 4497
SWIDTH 1000 0
DWIDTH 16 0
BBX 12 10 2 3
BITMAP
0010
0010
0010
0010
0010
0010
FF90
24F0
24F0
2410
ENDCHAR
STARTCHAR uni1192
ENCODING 4498
SWIDTH 1000 0
DWIDTH 16 0
BBX 13 10 2 3
BITMAP
0048
0048
0048
0048
0048
0048
FF48
25C8
25C8
2448
ENDCHAR
STARTCHAR uni1194
ENCODING 4500
SWIDTH 1000 0
DWIDTH 16 0
BBX 12 10 2 3
BITMAP
0010
0010
0010
0010
0010
0010
FFD0
1210
1210
1210
ENDCHAR
STARTCHAR uni119E
ENCODING 4510
SWIDTH 1000 0
DWIDTH 16 0
BBX 2 1 6 4
BITMAP
C0
ENDCHAR
STARTCHAR uni11A1
ENCODING 4513
SWIDTH 1000 0
DWIDTH 16 0
BBX 9 10 5 3
BITMAP
0080
0080
0080
0080
0080
0080
0080
0080
C080
0080
ENDCHAR
STARTCHAR uni11A8
ENCODING 4520
SWIDTH 1000 0
DWIDTH 16 0
BBX 7 5 7 -1
BITMAP
FE
02
02
02
02
ENDCHAR
STARTCHAR uni11A9
ENCODING 4521
SWIDTH 1000 0
DWIDTH 16 0
BBX 8 5 6 -1
BITMAP
FF
11
11
11
11
ENDCHAR
STARTCHAR uni11AA
ENCODING 4522
SWIDTH 1000 0
DWIDTH 16 0
BBX 9 5 6 -1
BITMAP
F200
1200
1200
1500
1880
ENDCHAR
STARTCHAR uni11AB
ENCODING 4523
SWIDTH 1000 0
DWIDTH 16 0
BBX 7 5 7 -1
BITMAP
80
80
80
80
FE
ENDCHAR
STARTCHAR uni11AC
ENCODING 4524
SWIDTH 1000 0
DWIDTH 16 0
BBX 9 5 6 -1
BITMAP
8F80
8100
8200
8500
F880
ENDCHAR
STARTCHAR uni11AD
ENCODING 4525
SWIDTH 1000 0
DWIDTH 16 0
BBX 9 5 6 -1
BITMAP
8700
8F80
8500
8880
F700
ENDCHAR
STARTCHAR uni11AE
ENCODING 4526
SWIDTH 1000 0
DWIDTH 16 0
BBX 7 5 7 -1
BITMAP
FE
80
80
80
FE
ENDCHAR
STARTCHAR uni11AF
ENCODING 4527
SWIDTH 1000 0
DWIDTH 16 0
BBX 7 5 7 -1
BITMAP
FE
02
FE
80
FE
ENDCHAR
STARTCHAR uni11B0
ENCODING 4528
SWIDTH 1000 0
DWIDTH 16 0
BBX 9 5 6 -1
BITMAP
FF80
0880
F880
8080
F880
ENDCHAR
STARTCHAR uni11B1
ENCODING 4529
SWIDTH 1000 0
DWIDTH 16 0
BBX 9 5 6 -1
BITMAP
F780
1480
F480
8480
F780
ENDCHAR
STARTCHAR uni11B2
ENCODING 4530
SWIDTH 1000 0
DWIDTH 16 0
BBX 9 5 6 -1
BITMAP
F480
1480
F780
8480
F780
ENDCHAR
STARTCHAR uni11B3
ENCODING 4531
SWIDTH 1000 0
DWIDTH 16 0
BBX 9 5 6 -1
BITMAP
F200
1200
F200
8500
F880
ENDCHAR
STARTCHAR uni11B4
ENCODING 4532
SWIDTH 1000 0
DWIDTH 16 0
BBX 9 5 6 -1
BITMAP
F780
1400
F780
8400
F780
ENDCHAR
STARTCHAR uni11B5
ENCODING 4533
SWIDTH 1000 0
DWIDTH 16 0
BBX 9 5 6 -1
BITMAP
FF80
1500
F500
8500
FF80
ENDCHAR
STARTCHAR uni11B6
ENCODING 4534
SWIDTH 1000 0
DWIDTH 16 0
BBX 9 5 6 -1
BITMAP
F700
1F80
F700
8880
F700
ENDCHAR
STARTCHAR uni11B7
ENCODING 4535
SWIDTH 1000 0
DWIDTH 16 0
BBX 7 5 7 -1
BITMAP
FE
82
82
82
FE
ENDCHAR
STARTCHAR uni11B8
ENCODING 4536
SWIDTH 1000 0
DWIDTH 16 0
BBX 7 5 7 -1
BITMAP
82
82
FE
82
FE
ENDCHAR
STARTCHAR uni11B9
ENCODING 4537
SWIDTH 1000 0
DWIDTH 16 0
BBX 9 5 6 -1
BITMAP
9200
9200
F200
9500
F880
ENDCHAR
STARTCHAR uni11BA
ENCODING 4538
SWIDTH 1000 0
DWIDTH 16 0
BBX 7 5 7 -1
BITMAP
10
10
28
44
82
ENDCHAR
STARTCHAR uni11BB
ENCODING 4539
SWIDTH 1000 0
DWIDTH 16 0
BBX 11 5 4 -1
BITMAP
1100
1100
2A80
4440
8820
ENDCHAR
STARTCHAR uni11BC
ENCODING 4540
SWIDTH 1000 0
DWIDTH 16 0
BBX 7 5 7 -1
BITMAP
7C
82
82
82
7C
ENDCHAR
STARTCHAR uni11BD
ENCODING 4541
SWIDTH 1000 0
DWIDTH 16 0
BBX 7 5 7 -1
BITMAP
FE
10
28
44
82
ENDCHAR
STARTCHAR uni11BE
ENCODING 4542
SWIDTH 1000 0
DWIDTH 16 0
BBX 7 6 7 -1
BITMAP
10
FE
10
28
44
82
ENDCHAR
STARTCHAR uni11BF
ENCODING 4543
SWIDTH 1000 0
DWIDTH 16 0
BBX 7 5 7 -1
BITMAP
FE
02
FE
02
02
ENDCHAR
STARTCHAR uni11C0
ENCODING 4544
SWIDTH 1000 0
DWIDTH 16 0
BBX 7 5 7 -1
BITMAP
FE
80
FE
80
FE
ENDCHAR
STARTCHAR uni11C1
ENCODING 4545
SWIDTH 1000 0
DWIDTH 16 0
BBX 8 5 6 -1
BITMAP
FF
24
24
24
FF
ENDCHAR
STARTCHAR uni11C2
ENCODING 4546
SWIDTH 1000 0
DWIDTH 16 0
BBX 7 6 7 -1
BITMAP
10
FE
28
44
44
38
ENDCHAR
STARTCHAR uni11D9
ENCODING 4569
SWIDTH 1000 0
DWIDTH 16 0
BBX 9 5 6 -1
BITMAP
F780
1300
F480
8480
F300
ENDCHAR
STARTCHAR uni11DA
ENCODING 4570
SWIDTH 1000 0
DWIDTH 16 0
BBX 9 5 6 -1
BITMAP
F780
9080
9080
9080
F080
ENDCHAR
STARTCHAR uni11F0
ENCODING 4592
SWIDTH 1000 0
DWIDTH 16 0
BBX 8 5 6 -1
BITMAP
FF
3C
42
42
3C
ENDCHAR
STARTCHAR uni11F9
ENCODING 4601
SWIDTH 1000 0
DWIDTH 16 0
BBX 9 7 5 -2
BITMAP
0800
0800
3E00
4100
8080
4100
3E00
ENDCHAR
STARTCHAR uni3131
ENCODING 12593
SWIDTH 1000 0
DWIDTH 16 0
BBX 6 7 1 6
BITMAP
FC
04
04
04
04
04
04
ENDCHAR
STARTCHAR uni3132
ENCODING 12594
SWIDTH 1000 0
DWIDTH 16 0
BBX 6 7 1 6
BITMAP
FC
24
24
24
24
24
24
ENDCHAR
STARTCHAR uni3133
ENCODING 12595
SWIDTH 1000 0
DWIDTH 16 0
BBX 9 5 6 -1
BITMAP
F200
1200
1200
1500
1880
ENDCHAR
STARTCHAR uni3134
ENCODING 12596
SWIDTH 1000 0
DWIDTH 16 0
BBX 6 7 2 6
BITMAP
80
80
80
80
80
80
FC
ENDCHAR
STARTCHAR uni3135
ENCODING 12597
SWIDTH 1000 0
DWIDTH 16 0
BBX 9 5 6 -1
BITMAP
8F80
8100
8200
8500
F880
ENDCHAR
STARTCHAR uni3136
ENCODING 12598
SWIDTH 1000 0
DWIDTH 16 0
BBX 9 5 6 -1
BITMAP
8700
8F80
8500
8880
F700
ENDCHAR
STARTCHAR uni3137
ENCODING 12599
SWIDTH 1000 0
DWIDTH 16 0
BBX 6 7 2 6
BITMAP
FC
80
80
80
80
80
FC
ENDCHAR
STARTCHAR uni3138
ENCODING 12600
SWIDTH 1000 0
DWIDTH 16 0
BBX 7 7 1 6
BITMAP
EE
88
88
88
88
88
EE
ENDCHAR
STARTCHAR uni3139
ENCODING 12601
SWIDTH 1000 0
DWIDTH 16 0
BBX 7 7 1 6
BITMAP
FE
02
02
FE
80
80
FE
ENDCHAR
STARTCHAR uni313A
ENCODING 12602
SWIDTH 1000 0
DWIDTH 16 0
BBX 9 5 6 -1
BITMAP
FF80
0880
F880
8080
F880
ENDCHAR
STARTCHAR uni313B
ENCODING 12603
SWIDTH 1000 0
DWIDTH 16 0
BBX 9 5 6 -1
BITMAP
F780
1480
F480
8480
F780
ENDCHAR
STARTCHAR uni313C
ENCODING 12604
SWIDTH 1000 0
DWIDTH 16 0
BBX 9 5 6 -1
BITMAP
F480
1480
F780
8480
F780
ENDCHAR
STARTCHAR uni313D
ENCODING 12605
SWIDTH 1000 0
DWIDTH 16 0
BBX 9 5 6 -1
BITMAP
F200
1200
F200
8500
F880
ENDCHAR
STARTCHAR uni313E
ENCODING 12606
SWIDTH 1000 0
DWIDTH 16 0
BBX 9 5 6 -1
BITMAP
F780
1400
F780
8400
F780
ENDCHAR
STARTCHAR uni313F
ENCODING 12607
SWIDTH 1000 0
DWIDTH 16 0
BBX 9 5 6 -1
BITMAP
FF80
1500
F500
8500
FF80
ENDCHAR
STARTCHAR uni3140
ENCODING 12608
SWIDTH 1000 0
DWIDTH 16 0
BBX 9 5 6 -1
BITMAP
F700
1F80
F700
8880
F700
ENDCHAR
STARTCHAR uni3141
ENCODING 12609
SWIDTH 1000 0
DWIDTH 16 0
BBX 6 7 2 6
BITMAP
FC
84
84
84
84
84
FC
ENDCHAR
STARTCHAR uni3142
ENCODING 12610
SWIDTH 1000 0
DWIDTH 16 0
BBX 6 7 2 6
BITMAP
84
84
FC
84
84
84
FC
ENDCHAR
STARTCHAR uni3143
ENCODING 12611
SWIDTH 1000 0
DWIDTH 16 0
BBX 7 7 2 6
BITMAP
92
92
FE
92
92
92
FE
ENDCHAR
STARTCHAR uni3144
ENCODING 12612
SWIDTH 1000 0
DWIDTH 16 0
BBX 9 5 6 -1
BITMAP
9200
9200
F200
9500
F880
ENDCHAR
STARTCHAR uni3145
ENCODING 12613
SWIDTH 1000 0
DWIDTH 16 0
BBX 7 7 2 6
BITMAP
10
10
10
28
28
44
82
ENDCHAR
STARTCHAR uni3146
ENCODING 12614
SWIDTH 1000 0
DWIDTH 16 0
BBX 8 7 1 6
BITMAP
24
24
24
24
5A
4A
91
ENDCHAR
STARTCHAR uni3147
ENCODING 12615
SWIDTH 1000 0
DWIDTH 16 0
BBX 6 7 2 6
BITMAP
30
48
84
84
84
48
30
ENDCHAR
STARTCHAR uni3148
ENCODING 12616
SWIDTH 1000 0
DWIDTH 16 0
BBX 5 7 3 6
BITMAP
F8
20
20
20
50
50
88
ENDCHAR
STARTCHAR uni3149
ENCODING 12617
SWIDTH 1000 0
DWIDTH 16 0
BBX 8 7 1 6
BITMAP
FF
24
24
24
5A
4A
91
ENDCHAR
STARTCHAR uni314A
ENCODING 12618
SWIDTH 1000 0
DWIDTH 16 0
BBX 5 8 3 6
BITMAP
70
00
F8
20
20
50
50
88
ENDCHAR
STARTCHAR uni314B
ENCODING 12619
SWIDTH 1000 0
DWIDTH 16 0
BBX 6 7 1 6
BITMAP
FC
04
FC
04
04
04
04
ENDCHAR
STARTCHAR uni314C
ENCODING 12620
SWIDTH 1000 0
DWIDTH 16 0
BBX 6 7 3 6
BITMAP
FC
80
80
F8
80
80
FC
ENDCHAR
STARTCHAR uni314D
ENCODING 12621
SWIDTH 1000 0
DWIDTH 16 0
BBX 6 7 2 6
BITMAP
FC
48
48
48
48
48
FC
ENDCHAR
STARTCHAR uni314E
ENCODING 12622
SWIDTH 1000 0
DWIDTH 16 0
BBX 7 8 2 6
BITMAP
38
00
FE
00
38
44
44
38
ENDCHAR
STARTCHAR uni314F
ENCODING 12623
SWIDTH 1000 0
DWIDTH 16 0
BBX 3 10 13 3
BITMAP
80
80
80
E0
80
80
80
80
80
80
ENDCHAR
STARTCHAR uni3150
ENCODING 12624
SWIDTH 1000 0
DWIDTH 16 0
BBX 4 10 11 3
BITMAP
90
90
90
F0
90
90
90
90
90
90
ENDCHAR
STARTCHAR uni3151
ENCODING 12625
SWIDTH 1000 0
DWIDTH 16 0
BBX 3 10 13 3
BITMAP
80
80
E0
80
80
E0
80
80
80
80
ENDCHAR
STARTCHAR uni3152
ENCODING 12626
SWIDTH 1000 0
DWIDTH 16 0
BBX 4 10 11 3
BITMAP
90
90
F0
90
90
F0
90
90
90
90
ENDCHAR
STARTCHAR uni3153
ENCODING 12627
SWIDTH 1000 0
DWIDTH 16 0
BBX 4 10 10 3
BITMAP
10
10
10
F0
10
10
10
10
10
10
ENDCHAR
STARTCHAR uni3154
ENCODING 12628
SWIDTH 1000 0
DWIDTH 16 0
BBX 7 10 8 3
BITMAP
12
12
12
F2
12
12
12
12
12
12
ENDCHAR
STARTCHAR uni3155
ENCODING 12629
SWIDTH 1000 0
DWIDTH 16 0
BBX 4 10 10 3
BITMAP
10
10
F0
10
10
F0
10
10
10
10
ENDCHAR
STARTCHAR uni3156
ENCODING 12630
SWIDTH 1000 0
DWIDTH 16 0
BBX 7 10 8 3
BITMAP
12
12
F2
12
12
F2
12
12
12
12
ENDCHAR
STARTCHAR uni3157
ENCODING 12631
SWIDTH 1000 0
DWIDTH 16 0
BBX 11 4 2 4
BITMAP
0400
0400
0400
FFE0
ENDCHAR
STARTCHAR uni3158
ENCODING 12632
SWIDTH 1000 0
DWIDTH 16 0
BBX 14 10 2 3
BITMAP
0010
0010
0010
001C
0010
0010
1010
1010
FF90
0010
ENDCHAR
STARTCHAR uni3159
ENCODING 12633
SWIDTH 1000 0
DWIDTH 16 0
BBX 13 10 2 3
BITMAP
0048
0048
0048
0078
0048
0048
1048
1048
FF48
0048
ENDCHAR
STARTCHAR uni315A
ENCODING 12634
SWIDTH 1000 0
DWIDTH 16 0
BBX 12 10 2 3
BITMAP
0010
0010
0010
0010
0010
0010
0810
0810
FF90
0010
ENDCHAR
STARTCHAR uni315B
ENCODING 12635
SWIDTH 1000 0
DWIDTH 16 0
BBX 11 4 2 4
BITMAP
1100
1100
1100
FFE0
ENDCHAR
STARTCHAR uni315C
ENCODING 12636
SWIDTH 1000 0
DWIDTH 16 0
BBX 11 4 2 2
BITMAP
FFE0
0400
0400
0400
ENDCHAR
STARTCHAR uni315D
ENCODING 12637
SWIDTH 1000 0
DWIDTH 16 0
BBX 12 10 2 3
BITMAP
0010
0010
0010
0010
0010
0010
FF90
0810
08F0
0810
ENDCHAR
STARTCHAR uni315E
ENCODING 12638
SWIDTH 1000 0
DWIDTH 16 0
BBX 13 10 2 3
BITMAP
0048
0048
0048
0048
0048
0048
FF48
1048
11C8
1048
ENDCHAR
STARTCHAR uni315F
ENCODING 12639
SWIDTH 1000 0
DWIDTH 16 0
BBX 12 10 2 3
BITMAP
0010
0010
0010
0010
0010
0010
FF90
0810
0810
0810
ENDCHAR
STARTCHAR uni3160
ENCODING 12640
SWIDTH 1000 0
DWIDTH 16 0
BBX 11 4 2 2
BITMAP
FFE0
1100
1100
1100
ENDCHAR
STARTCHAR uni3161
ENCODING 12641
SWIDTH 1000 0
DWIDTH 16 0
BBX 11 1 2 4
BITMAP
FFE0
ENDCHAR
STARTCHAR uni3162
ENCODING 12642
SWIDTH 1000 0
DWIDTH 16 0
BBX 12 10 2 3
BITMAP
0010
0010
0010
0010
0010
0010
0010
0010
FF90
0010
ENDCHAR
STARTCHAR uni3163
ENCODING 12643
SWIDTH 1000 0
DWIDTH 16 0
BBX 1 10 13 3
BITMAP
80
80
80
80
80
80
80
80
80
80
ENDCHAR
STARTCHAR uni3402
ENCODING 13314
SWIDTH 1000 0
DWIDTH 16 0
BBX 16 16 0 -2
BITMAP
0400
041E
05F0
7F00
0402
0606
03FC
0000
2020
2323
2E2E
F0F0
2020
2121
2323
1E1E
ENDCHAR
STARTCHAR uni3406
ENCODING 13318
SWIDTH 1000 0
DWIDTH 16 0
BBX 12 16 1 -2
BITMAP
0030
1FE0
1000
1FF0
1010
1FF0
1010
1FF0
1000
1FF0
1010
1010
3030
2020
6020
C0E0
ENDCHAR
STARTCHAR uni342C
ENCODING 13356
SWIDTH 1000 0
DWIDTH 16 0
BBX 16 16 0 -2
BITMAP
0100
0100
FFFF
0400
0410
09F8
1F0C
0004
0888
0888
0888
0888
0888
1889
308B
E00E
ENDCHAR
STARTCHAR uni342E
ENCODING 13358
SWIDTH 1000 0
DWIDTH 16 0
BBX 16 16 0 -2
BITMAP
0100
0100
FFFF
0810
300C
C423
3FFC
0420
3FFC
0420
FFFF
0444
0C68
F830
0F9C
7807
ENDCHAR
STARTCHAR uni3468
ENCODING 13416
SWIDTH 1000 0
DWIDTH 16 0
BBX 16 16 0 -2
BITMAP
0800
09FC
1904
1104
3104
21FC
6100
A3FE
2620
2020
27FF
2050
20D8
218C
2306
2603
ENDCHAR
STARTCHAR uni346A
ENCODING 13418
SWIDTH 1000 0
DWIDTH 16 0
BBX 16 15 0 -1
BITMAP
0820
0820
1FFF
1104
30D8
2070
61DC
A707
2104
21FC
2104
21FC
2304
2204
2604
ENDCHAR
STARTCHAR uni3492
ENCODING 13458
SWIDTH 1000 0
DWIDTH 16 0
BBX 16 16 0 -2
BITMAP
1050
1252
1154
37FF
2104
6088
63FE
A020
21FC
2020
27FF
20A8
21AC
2326
2623
2020
ENDCHAR
STARTCHAR uni34B5
ENCODING 13493
SWIDTH 1000 0
DWIDTH 16 0
BBX 14 16 1 -2
BITMAP
0200
0400
7FF8
4008
4008
4008
7FF8
4008
4008
4008
7FF8
0000
1020
3030
6018
C00C
ENDCHAR
STARTCHAR uni34BC
ENCODING 13500
SWIDTH 1000 0
DWIDTH 16 0
BBX 14 16 1 -2
BITMAP
0840
0840
FFFC
0840
0840
0FC0
0200
7FF8
4208
5AC8
4A48
4A48
56A8
6318
4208
4238
ENDCHAR
STARTCHAR uni34C1
ENCODING 13505
SWIDTH 1000 0
DWIDTH 16 0
BBX 14 8 1 2
BITMAP
FFFC
8884
8884
0880
1880
1080
30C4
E07C
ENDCHAR
STARTCHAR uni34C7
ENCODING 13511
SWIDTH 1000 0
DWIDTH 16 0
BBX 16 16 0 -2
BITMAP
000C
6038
31E0
1020
0020
0020
07FF
0020
1020
1070
3050
2050
60D8
4088
C18C
0707
ENDCHAR
STARTCHAR uni34DB
ENCODING 13531
SWIDTH 1000 0
DWIDTH 16 0
BBX 15 15 0 -2
BITMAP
03FE
0042
FC42
1042
1042
1042
1042
1042
10C2
1C82
7082
C186
0104
0304
061C
ENDCHAR
STARTCHAR uni351F
ENCODING 13599
SWIDTH 1000 0
DWIDTH 16 0
BBX 16 16 0 -2
BITMAP
4820
4820
7F20
C8FC
8824
3EA4
0864
0845
1F65
F0A3
0100
7FFE
0102
0202
0C06
F01C
ENDCHAR
STARTCHAR uni355D
ENCODING 13661
SWIDTH 1000 0
DWIDTH 16 0
BBX 16 16 0 -2
BITMAP
0100
0100
FFFF
0100
0100
1FF8
1008
1008
1FF8
0000
3FFC
0818
0670
03C0
1E78
F00F
ENDCHAR
STARTCHAR uni355E
ENCODING 13662
SWIDTH 1000 0
DWIDTH 16 0
BBX 16 15 0 -2
BITMAP
7FFE
40A2
40A2
7FA2
4422
4436
5F94
5494
549C
5488
5488
D49C
9594
8436
0463
ENDCHAR
STARTCHAR uni3563
ENCODING 13667
SWIDTH 1000 0
DWIDTH 16 0
BBX 16 15 0 -2
BITMAP
03E0
0820
0830
1810
1018
300C
6006
C003
1FF8
1008
1008
1008
1008
1008
1FF8
ENDCHAR
STARTCHAR uni356E
ENCODING 13678
SWIDTH 1000 0
DWIDTH 16 0
BBX 16 16 0 -2
BITMAP
0088
0088
F98C
8904
8B06
8E8B
8888
8888
89D8
8A50
8830
F820
0070
00D8
018C
0707
ENDCHAR
STARTCHAR uni35A6
ENCODING 13734
SWIDTH 1000 0
DWIDTH 16 0
BBX 16 16 0 -2
BITMAP
0020
0020
FBFF
8820
89FE
8922
89FE
8922
8922
89FE
88A8
F8A8
00AC
01A6
0323
0020
ENDCHAR
STARTCHAR uni35A8
ENCODING 13736
SWIDTH 1000 0
DWIDTH 16 0
BBX 16 16 0 -2
BITMAP
0080
00FC
F984
890C
89F8
8808
8FFF
8820
8922
89A6
88B4
F878
00AC
01A6
0723
00E0
ENDCHAR
STARTCHAR uni35C5
ENCODING 13765
SWIDTH 1000 0
DWIDTH 16 0
BBX 16 16 0 -2
BITMAP
0100
011F
F111
9111
9FF1
911F
9111
9111
97D1
945F
9451
F451
0451
0451
07D1
0027
ENDCHAR
STARTCHAR uni35DA
ENCODING 13786
SWIDTH 1000 0
DWIDTH 16 0
BBX 16 15 0 -2
BITMAP
07FF
F090
9090
93FE
9292
9292
93FE
9020
97FF
90A8
F1AC
0124
0326
0623
0020
ENDCHAR
STARTCHAR uni35F4
ENCODING 13812
SWIDTH 1000 0
DWIDTH 16 0
BBX 16 15 0 -2
BITMAP
07DF
F451
97DF
9451
97DF
9401
94F9
9489
9489
94F9
F489
0489
04F9
0401
0407
ENDCHAR
STARTCHAR uni3605
ENCODING 13829
SWIDTH 1000 0
DWIDTH 16 0
BBX 16 16 0 -2
BITMAP
0440
0CEF
E8A0
B5B0
A710
ADEF
A842
B842
ABFA
A842
AA4A
EB5A
0952
08FA
0B82
0806
ENDCHAR
STARTCHAR uni364A
ENCODING 13898
SWIDTH 1000 0
DWIDTH 16 0
BBX 16 16 0 -2
BITMAP
2000
21FE
2100
21FC
F900
21FC
2100
2100
27FF
2122
3936
E114
0118
010C
01E6
0703
ENDCHAR
STARTCHAR uni3691
ENCODING 13969
SWIDTH 1000 0
DWIDTH 16 0
BBX 16 15 0 -2
BITMAP
3FF8
0008
0008
FFFF
0008
0008
3FF8
0100
0100
FFFF
0280
06C0
0C70
381C
6007
ENDCHAR
STARTCHAR uni3696
ENCODING 13974
SWIDTH 1000 0
DWIDTH 16 0
BBX 16 16 0 -2
BITMAP
0080
0100
1FF8
1008
1008
1FF8
1008
1008
1FF8
0100
FFFF
0280
06C0
0C70
381C
E007
ENDCHAR
STARTCHAR uni3699
ENCODING 13977
SWIDTH 1000 0
DWIDTH 16 0
BBX 16 16 0 -2
BITMAP
1000
103E
FF22
1122
1122
3122
2122
673E
C000
0100
FFFF
0280
06C0
0C70
381C
6007
ENDCHAR
STARTCHAR uni36CF
ENCODING 14031
SWIDTH 1000 0
DWIDTH 16 0
BBX 16 16 0 -2
BITMAP
1024
1026
1022
13FF
FC20
2522
25A6
24AC
6420
4C30
48B8
F9AC
1526
3723
6020
C0E0
ENDCHAR
STARTCHAR uni3761
ENCODING 14177
SWIDTH 1000 0
DWIDTH 16 0
BBX 16 16 0 -2
BITMAP
0100
0100
7FFE
4002
0002
7F80
227E
2202
3E42
2246
3E64
222C
2218
3E3C
E2E7
0200
ENDCHAR
STARTCHAR uni3762
ENCODING 14178
SWIDTH 1000 0
DWIDTH 16 0
BBX 14 16 1 -2
BITMAP
0200
0200
FFFC
8004
80F4
3F80
0200
3FF0
2210
3FF0
0200
7FF8
4248
43E8
5E28
4018
ENDCHAR
STARTCHAR uni376B
ENCODING 14187
SWIDTH 1000 0
DWIDTH 16 0
BBX 15 16 1 -2
BITMAP
0200
0200
FFFC
8004
0084
F1F8
9710
90E0
A3B8
ADEE
9240
93F8
9440
B3F8
8040
87FC
ENDCHAR
STARTCHAR uni376C
ENCODING 14188
SWIDTH 1000 0
DWIDTH 16 0
BBX 16 16 0 -2
BITMAP
1010
1010
FE10
82FE
9210
7C10
1010
7C10
11FF
FE10
1038
7C28
446C
4444
44C6
7D83
ENDCHAR
STARTCHAR uni3775
ENCODING 14197
SWIDTH 1000 0
DWIDTH 16 0
BBX 16 15 0 -1
BITMAP
1FF8
1008
1008
1FF8
1008
1008
1FF8
0000
7FFE
0020
FFFF
0420
0620
0020
00E0
ENDCHAR
STARTCHAR uni378D
ENCODING 14221
SWIDTH 1000 0
DWIDTH 16 0
BBX 16 15 0 -2
BITMAP
3FFE
2002
2002
3FFE
2000
2100
2100
2FF8
2108
2108
2D08
6708
4389
C689
1C07
ENDCHAR
STARTCHAR uni37C1
ENCODING 14273
SWIDTH 1000 0
DWIDTH 16 0
BBX 16 16 0 -2
BITMAP
2000
23FF
2200
2200
AAFE
AA10
AA10
AA10
ABFF
AA10
AA10
FA10
0610
0410
0C10
0010
ENDCHAR
STARTCHAR uni37E2
ENCODING 14306
SWIDTH 1000 0
DWIDTH 16 0
BBX 16 16 0 -2
BITMAP
0100
2104
2104
3FFC
0100
7FFC
0380
0C60
3018
FFFF
0008
1F88
1088
1088
1F88
0038
ENDCHAR
STARTCHAR uni37E8
ENCODING 14312
SWIDTH 1000 0
DWIDTH 16 0
BBX 16 16 0 -2
BITMAP
2010
2111
2111
2111
A5FF
A400
A5FF
A410
A420
A5FF
A549
FD49
0149
0149
0149
014B
ENDCHAR
STARTCHAR uni37F4
ENCODING 14324
SWIDTH 1000 0
DWIDTH 16 0
BBX 16 16 0 -2
BITMAP
2020
2040
23FE
2222
AA22
ABFE
AA22
AA22
ABFE
A890
A894
F895
019F
0110
0311
0E0F
ENDCHAR
STARTCHAR uni37FD
ENCODING 14333
SWIDTH 1000 0
DWIDTH 16 0
BBX 16 16 0 -2
BITMAP
2000
27FF
2090
23FE
AA92
AA92
ABFE
A800
ABFE
A800
AFFF
F820
0124
0326
0623
00E0
ENDCHAR
STARTCHAR uni3800
ENCODING 14336
SWIDTH 1000 0
DWIDTH 16 0
BBX 16 16 0 -2
BITMAP
0400
1FF0
1010
1FF0
1010
1FF0
1000
1FFF
1000
1FFE
4922
C496
0100
4102
4102
7FFE
ENDCHAR
STARTCHAR uni382F
ENCODING 14383
SWIDTH 1000 0
DWIDTH 16 0
BBX 11 14 3 -1
BITMAP
FFC0
8040
8040
8040
8040
FFC0
8000
8000
FFE0
8020
8020
8020
8020
FFE0
ENDCHAR
STARTCHAR uni3836
ENCODING 14390
SWIDTH 1000 0
DWIDTH 16 0
BBX 16 16 0 -2
BITMAP
2010
2030
2020
FCFC
A484
A484
A484
A484
A484
A484
AC84
2084
2084
2185
2105
2303
ENDCHAR
STARTCHAR uni3840
ENCODING 14400
SWIDTH 1000 0
DWIDTH 16 0
BBX 14 15 1 -2
BITMAP
1240
3260
6238
C20C
0200
7FF8
4208
4A88
4AC8
5A48
5268
5228
4208
4208
4038
ENDCHAR
STARTCHAR uni385C
ENCODING 14428
SWIDTH 1000 0
DWIDTH 16 0
BBX 16 16 0 -2
BITMAP
2100
21DE
2322
FEA6
A554
A488
A504
A6FB
A400
A400
AFFE
2020
2124
2326
2623
20E0
ENDCHAR
STARTCHAR uni3861
ENCODING 14433
SWIDTH 1000 0
DWIDTH 16 0
BBX 16 16 0 -2
BITMAP
2000
27FF
2400
FC02
A7F2
A402
A5EF
A522
A52A
A5EA
AC0A
2522
2522
25A2
28F2
238E
ENDCHAR
STARTCHAR uni38FA
ENCODING 14586
SWIDTH 1000 0
DWIDTH 16 0
BBX 15 12 0 0
BITMAP
0200
0200
0200
0218
220C
22C6
2262
6232
4210
C200
0200
0E00
ENDCHAR
STARTCHAR uni3917
ENCODING 14615
SWIDTH 1000 0
DWIDTH 16 0
BBX 16 16 0 -2
BITMAP
0100
0100
7FFE
0100
3FFC
0240
FFFF
0810
310C
E107
0100
110C
1166
3132
6110
0700
ENDCHAR
STARTCHAR uni391A
ENCODING 14618
SWIDTH 1000 0
DWIDTH 16 0
BBX 16 16 0 -2
BITMAP
1080
109E
1180
5100
5B00
5680
D4BF
9184
1104
1304
1104
1104
1104
1104
1104
111C
ENDCHAR
STARTCHAR uni396F
ENCODING 14703
SWIDTH 1000 0
DWIDTH 16 0
BBX 16 16 0 -2
BITMAP
001C
1FF0
3118
620C
5FF4
0080
7FFE
0004
FFFF
0004
3FFC
0080
24C6
244B
6619
C3F0
ENDCHAR
STARTCHAR uni3A6E
ENCODING 14958
SWIDTH 1000 0
DWIDTH 16 0
BBX 16 16 0 -2
BITMAP
21A0
2336
2222
2336
FA52
2356
2252
27FF
3904
E2FA
2421
21FC
2020
23FE
2020
60E0
ENDCHAR
STARTCHAR uni3A73
ENCODING 14963
SWIDTH 1000 0
DWIDTH 16 0
BBX 16 16 0 -2
BITMAP
2252
2294
23DF
26B4
FBDE
2294
23DE
2294
3BDF
E000
23FE
210C
20D8
2070
21DC
6707
ENDCHAR
STARTCHAR uni3AD6
ENCODING 15062
SWIDTH 1000 0
DWIDTH 16 0
BBX 16 16 0 -2
BITMAP
0100
0100
0100
01FC
0100
0100
0100
FFFF
0000
1FF8
1008
1008
1FF8
1008
1008
1FF8
ENDCHAR
STARTCHAR uni3AD7
ENCODING 15063
SWIDTH 1000 0
DWIDTH 16 0
BBX 16 15 0 -2
BITMAP
1FF8
1008
1FF8
1008
1FF8
0000
3FF8
0060
0180
0100
FFFF
0100
0100
0100
0700
ENDCHAR
STARTCHAR uni3AEA
ENCODING 15082
SWIDTH 1000 0
DWIDTH 16 0
BBX 16 16 0 -2
BITMAP
0100
0100
7FFE
0100
3FFC
0240
FFFF
0420
0810
39FC
E90F
0908
09F8
0908
0908
09F8
ENDCHAR
STARTCHAR uni3B0E
ENCODING 15118
SWIDTH 1000 0
DWIDTH 16 0
BBX 16 15 0 -2
BITMAP
1FF8
1008
1FF8
1008
1FF8
1020
2244
1428
0810
1224
7D7E
0002
2444
6666
C223
ENDCHAR
STARTCHAR uni3B1A
ENCODING 15130
SWIDTH 1000 0
DWIDTH 16 0
BBX 16 16 0 -2
BITMAP
0108
0108
FFE8
920F
929A
94D2
974A
F00A
97CA
944E
97C4
9444
F7CE
044A
044A
04DB
ENDCHAR
STARTCHAR uni3B1C
ENCODING 15132
SWIDTH 1000 0
DWIDTH 16 0
BBX 16 15 0 -2
BITMAP
FEFE
2020
4442
FEFF
1211
7C7E
1010
FEFF
0000
1FF8
1008
1FF8
1008
1008
1FF8
ENDCHAR
STARTCHAR uni3B22
ENCODING 15138
SWIDTH 1000 0
DWIDTH 16 0
BBX 16 16 0 -2
BITMAP
0104
0088
FBFE
8820
89FC
8820
8FFF
F804
8B92
8910
8FFF
8912
F9D4
0709
0115
0323
ENDCHAR
STARTCHAR uni3B6D
ENCODING 15213
SWIDTH 1000 0
DWIDTH 16 0
BBX 16 15 0 -1
BITMAP
1001
13E9
1229
FE29
1229
13E9
3909
3509
35E9
5129
5129
9121
1261
1241
16C7
ENDCHAR
STARTCHAR uni3B77
ENCODING 15223
SWIDTH 1000 0
DWIDTH 16 0
BBX 15 16 0 -2
BITMAP
1000
11FE
1122
FD22
11FE
1122
3922
35FE
3000
5020
51FE
9022
1062
1046
10C4
139C
ENDCHAR
STARTCHAR uni3B87
ENCODING 15239
SWIDTH 1000 0
DWIDTH 16 0
BBX 16 16 0 -2
BITMAP
2006
203C
23E0
F840
2040
27FF
2088
718C
6B06
AE43
A040
2252
225B
2649
2448
20C0
ENDCHAR
STARTCHAR uni3B88
ENCODING 15240
SWIDTH 1000 0
DWIDTH 16 0
BBX 16 16 0 -2
BITMAP
2020
2020
27FF
F850
20D8
218C
2707
70F8
6800
A800
A7FF
2020
2124
2326
2623
20E0
ENDCHAR
STARTCHAR uni3B8D
ENCODING 15245
SWIDTH 1000 0
DWIDTH 16 0
BBX 16 16 0 -2
BITMAP
0420
FFFF
0000
3E44
3244
2E44
3244
2E04
221C
0100
FFFF
0520
0D30
391C
E107
0100
ENDCHAR
STARTCHAR uni3BA4
ENCODING 15268
SWIDTH 1000 0
DWIDTH 16 0
BBX 16 16 0 -2
BITMAP
0100
0100
7FFE
4812
310C
06C0
383C
EFF7
0810
0810
0FF0
0100
FFFF
0540
3938
E10F
ENDCHAR
STARTCHAR uni3BB6
ENCODING 15286
SWIDTH 1000 0
DWIDTH 16 0
BBX 16 16 0 -2
BITMAP
2440
26DF
2291
FFF1
2111
211F
2551
7551
6D51
AD5F
A551
27D1
2111
2311
2611
2C27
ENDCHAR
STARTCHAR uni3BC3
ENCODING 15299
SWIDTH 1000 0
DWIDTH 16 0
BBX 16 16 0 -2
BITMAP
2020
2020
27FF
F8A8
21AC
2727
2070
71DC
6F07
A820
A124
20A8
2070
21AC
2727
2060
ENDCHAR
STARTCHAR uni3BCD
ENCODING 15309
SWIDTH 1000 0
DWIDTH 16 0
BBX 16 16 0 -2
BITMAP
2090
249F
24B1
FCEB
24D6
278C
2098
70F2
6F82
A4BF
A482
2492
249A
248A
2882
208E
ENDCHAR
STARTCHAR uni3BF0
ENCODING 15344
SWIDTH 1000 0
DWIDTH 16 0
BBX 16 16 0 -2
BITMAP
1000
11FE
112A
FDFE
1010
13FF
3810
34FE
3682
52FE
5282
92FE
1282
12FE
1200
13FF
ENDCHAR
STARTCHAR uni3C0F
ENCODING 15375
SWIDTH 1000 0
DWIDTH 16 0
BBX 16 16 0 -2
BITMAP
1108
11EF
1294
FC42
1010
13FF
3800
34FC
3484
50FC
5000
93FF
1201
12FD
1285
12FF
ENDCHAR
STARTCHAR uni3C26
ENCODING 15398
SWIDTH 1000 0
DWIDTH 16 0
BBX 16 16 0 -2
BITMAP
0820
0820
0820
7F7F
0841
08D3
0812
0810
FF10
1010
1038
3228
222C
2764
3D46
61C3
ENDCHAR
STARTCHAR uni3CC3
ENCODING 15555
SWIDTH 1000 0
DWIDTH 16 0
BBX 16 15 0 -1
BITMAP
0040
6040
33F8
1048
00C8
C089
6189
2707
0020
1020
13FE
3020
2020
4020
C020
ENDCHAR
STARTCHAR uni3CD2
ENCODING 15570
SWIDTH 1000 0
DWIDTH 16 0
BBX 16 16 0 -2
BITMAP
0040
6040
3040
17FF
0090
C198
6108
230C
0246
1643
10C0
3084
2184
611E
41F2
C703
ENDCHAR
STARTCHAR uni3D11
ENCODING 15633
SWIDTH 1000 0
DWIDTH 16 0
BBX 16 16 0 -2
BITMAP
0020
6020
37FF
1482
04C6
C444
67FF
2410
0492
1492
1492
34FE
2410
6430
4C60
D8C0
ENDCHAR
STARTCHAR uni3D1E
ENCODING 15646
SWIDTH 1000 0
DWIDTH 16 0
BBX 15 15 0 -1
BITMAP
0006
603C
33E0
1000
0242
C366
6124
2000
027E
1242
1242
327E
6242
4242
C27E
ENDCHAR
STARTCHAR uni3D64
ENCODING 15716
SWIDTH 1000 0
DWIDTH 16 0
BBX 16 16 0 -2
BITMAP
07DF
6145
3249
14D3
0145
C659
6020
23FE
0124
1124
12AA
34F9
2050
60D8
418C
C707
ENDCHAR
STARTCHAR uni3D9A
ENCODING 15770
SWIDTH 1000 0
DWIDTH 16 0
BBX 16 16 0 -2
BITMAP
07FF
6090
37FF
1491
07FF
C240
67EF
2249
03C9
110F
17E9
3529
27EF
6109
47E9
C113
ENDCHAR
STARTCHAR uni3DC0
ENCODING 15808
SWIDTH 1000 0
DWIDTH 16 0
BBX 15 16 1 -2
BITMAP
1020
52A4
54A8
1020
2850
4488
0000
FFE0
0020
0820
0820
7FA0
0820
0822
0836
081C
ENDCHAR
STARTCHAR uni3DD4
ENCODING 15828
SWIDTH 1000 0
DWIDTH 16 0
BBX 15 15 0 -1
BITMAP
1006
103C
11E0
1400
5522
55B6
D094
9000
113E
1122
3922
293E
2D22
4122
C13E
ENDCHAR
STARTCHAR uni3E05
ENCODING 15877
SWIDTH 1000 0
DWIDTH 16 0
BBX 16 16 0 -2
BITMAP
2108
2108
23DF
2B14
ACA2
A900
A7DF
A451
27D1
2451
27D1
7411
57D1
4C17
C450
83D0
ENDCHAR
STARTCHAR uni3E3F
ENCODING 15935
SWIDTH 1000 0
DWIDTH 16 0
BBX 16 16 0 -2
BITMAP
1010
5010
51FF
5010
FC10
90FE
1000
11FF
1D01
7149
D048
1048
1048
1049
10C9
1187
ENDCHAR
STARTCHAR uni3E60
ENCODING 15968
SWIDTH 1000 0
DWIDTH 16 0
BBX 16 16 0 -2
BITMAP
0840
8843
507E
27C0
2040
5244
9244
1244
3244
3244
53FC
9040
1040
1041
3067
E03C
ENDCHAR
STARTCHAR uni3E66
ENCODING 15974
SWIDTH 1000 0
DWIDTH 16 0
BBX 15 16 0 -2
BITMAP
0800
8BFE
5042
2042
20C2
5086
9184
131C
3000
31FE
5102
9102
1102
1102
3102
E1FE
ENDCHAR
STARTCHAR uni3E68
ENCODING 15976
SWIDTH 1000 0
DWIDTH 16 0
BBX 15 16 0 -2
BITMAP
0820
8820
5020
2020
23FE
5222
9222
1222
3222
33FE
5222
9222
1222
1222
33FE
E000
ENDCHAR
STARTCHAR uni3E83
ENCODING 16003
SWIDTH 1000 0
DWIDTH 16 0
BBX 16 16 0 -2
BITMAP
0888
8888
57FF
2088
2088
5100
91FE
1302
32F2
3692
5092
9092
10F2
1002
3006
E01C
ENDCHAR
STARTCHAR uni3E94
ENCODING 16020
SWIDTH 1000 0
DWIDTH 16 0
BBX 16 16 0 -2
BITMAP
0818
8BF4
5246
2422
23FC
5204
9204
13FE
3202
3202
53FF
9601
1415
1955
3343
E20E
ENDCHAR
STARTCHAR uni3F57
ENCODING 16215
SWIDTH 1000 0
DWIDTH 16 0
BBX 16 16 0 -2
BITMAP
0020
0020
FC20
A420
A420
A420
A420
FC70
A450
A450
A458
A4C8
FC8C
0184
0306
0603
ENDCHAR
STARTCHAR uni3F72
ENCODING 16242
SWIDTH 1000 0
DWIDTH 16 0
BBX 16 16 0 -2
BITMAP
0040
0040
1FFF
9000
D000
57FF
1040
10C0
7080
D0FE
1002
3002
2002
6006
C004
001C
ENDCHAR
STARTCHAR uni3F75
ENCODING 16245
SWIDTH 1000 0
DWIDTH 16 0
BBX 16 16 0 -2
BITMAP
0080
0080
1FFF
9000
D000
5040
1040
1040
77FE
D040
1040
3040
2040
6040
C040
1FFF
ENDCHAR
STARTCHAR uni3F77
ENCODING 16247
SWIDTH 1000 0
DWIDTH 16 0
BBX 16 16 0 -2
BITMAP
0080
0080
3FFF
A000
6080
2082
3E86
22CC
62D8
A6E0
24B0
6C90
4898
D88C
3087
0180
ENDCHAR
STARTCHAR uni3FAE
ENCODING 16302
SWIDTH 1000 0
DWIDTH 16 0
BBX 16 16 0 -2
BITMAP
0080
0080
3FFF
A040
6080
27FC
2404
27FC
6404
A7FC
2000
6FFE
4040
C7FC
0040
1FFF
ENDCHAR
STARTCHAR uni3FC9
ENCODING 16329
SWIDTH 1000 0
DWIDTH 16 0
BBX 16 16 0 -2
BITMAP
0080
0080
3FFF
A040
67FC
2444
27FC
2040
7FFF
A404
27FC
6404
47FC
C404
07FC
0C06
ENDCHAR
STARTCHAR uni3FD7
ENCODING 16343
SWIDTH 1000 0
DWIDTH 16 0
BBX 16 16 0 -2
BITMAP
0080
3FFF
2000
A1BF
6E08
223F
3FE1
273F
6AA1
B261
203F
6521
4521
C53F
0D52
18A1
ENDCHAR
STARTCHAR uni4039
ENCODING 16441
SWIDTH 1000 0
DWIDTH 16 0
BBX 16 16 0 -2
BITMAP
0020
F020
97FF
9020
9124
F124
9124
92AA
92AA
F471
9050
90D8
9088
F18C
0306
0603
ENDCHAR
STARTCHAR uni4058
ENCODING 16472
SWIDTH 1000 0
DWIDTH 16 0
BBX 16 16 0 -2
BITMAP
0020
F07C
90C4
918C
9658
F130
90E0
9780
91FE
F220
9020
97FF
9020
F222
0222
03FE
ENDCHAR
STARTCHAR uni4093
ENCODING 16531
SWIDTH 1000 0
DWIDTH 16 0
BBX 16 16 0 -2
BITMAP
2000
20FE
7C82
5082
10FE
1082
FE82
10FE
1082
1082
38FE
2828
2C28
6669
C0C9
0187
ENDCHAR
STARTCHAR uni4105
ENCODING 16645
SWIDTH 1000 0
DWIDTH 16 0
BBX 16 16 0 -2
BITMAP
1108
1918
0910
3FFC
0240
0420
FFFF
0810
1818
37EC
E007
1FF8
0100
1110
311C
6706
ENDCHAR
STARTCHAR uni4148
ENCODING 16712
SWIDTH 1000 0
DWIDTH 16 0
BBX 16 16 0 -2
BITMAP
1108
1918
0910
3FFC
0280
0240
FFFF
0C30
18D8
378C
E107
3FFC
0520
0D30
1918
710E
ENDCHAR
STARTCHAR uni414F
ENCODING 16719
SWIDTH 1000 0
DWIDTH 16 0
BBX 16 16 0 -2
BITMAP
0400
1DFE
F102
1102
11FE
FD00
110E
1178
3910
351F
55F0
511F
91F0
1111
121B
100E
ENDCHAR
STARTCHAR uni4163
ENCODING 16739
SWIDTH 1000 0
DWIDTH 16 0
BBX 16 16 0 -2
BITMAP
0420
1C40
F1FC
1104
11FC
FD04
1104
11FC
3800
37FE
5420
51FC
9020
1020
13FF
1000
ENDCHAR
STARTCHAR uni41B4
ENCODING 16820
SWIDTH 1000 0
DWIDTH 16 0
BBX 16 16 0 -2
BITMAP
0100
7FFE
4812
F3DF
0480
1FF8
3108
DFF8
1108
3FFC
2104
3FFC
2104
3FFD
0101
00FF
ENDCHAR
STARTCHAR uni41BF
ENCODING 16831
SWIDTH 1000 0
DWIDTH 16 0
BBX 16 16 0 -2
BITMAP
0100
7FFE
4422
F83F
0010
44FE
4482
7CFE
0482
04FE
FC82
25FF
2454
6454
44D6
C593
ENDCHAR
STARTCHAR uni41E6
ENCODING 16870
SWIDTH 1000 0
DWIDTH 16 0
BBX 16 16 0 -2
BITMAP
1040
1040
3EFF
6990
C508
0100
3FFC
2104
2104
2104
FFFF
0240
0660
0C30
381C
E007
ENDCHAR
STARTCHAR uni41EE
ENCODING 16878
SWIDTH 1000 0
DWIDTH 16 0
BBX 16 16 0 -2
BITMAP
1040
1040
3EFF
6990
C408
080C
0838
1BE0
1020
3020
67FF
A020
2020
2020
2020
23FE
ENDCHAR
STARTCHAR uni41F3
ENCODING 16883
SWIDTH 1000 0
DWIDTH 16 0
BBX 16 16 0 -2
BITMAP
1040
1040
3EFF
6990
C448
0220
7FFE
0200
3FFC
0200
7FFE
0110
01A0
00C1
0363
3C3E
ENDCHAR
STARTCHAR uni4207
ENCODING 16903
SWIDTH 1000 0
DWIDTH 16 0
BBX 16 16 0 -2
BITMAP
2040
7EFF
C990
0408
0100
01FC
0100
1FF8
1008
1FF8
1008
1FF8
0100
FFFF
0100
0100
ENDCHAR
STARTCHAR uni420E
ENCODING 16910
SWIDTH 1000 0
DWIDTH 16 0
BBX 16 16 0 -2
BITMAP
2040
7EFF
C990
0408
1108
FFFF
1108
11F8
1000
1FFE
0100
FFFF
0520
1D38
F10F
0100
ENDCHAR
STARTCHAR uni4264
ENCODING 16996
SWIDTH 1000 0
DWIDTH 16 0
BBX 16 16 0 -2
BITMAP
2040
7EFF
C990
0408
4910
2A3F
FF24
1C64
2A14
C994
101C
FF88
221C
7414
1C36
E363
ENDCHAR
STARTCHAR uni42C6
ENCODING 17094
SWIDTH 1000 0
DWIDTH 16 0
BBX 16 16 0 -2
BITMAP
1000
31FF
6000
C400
6CFE
1882
3082
6482
FEFE
1280
1080
5480
5480
D580
9100
1300
ENDCHAR
STARTCHAR uni42D6
ENCODING 17110
SWIDTH 1000 0
DWIDTH 16 0
BBX 16 16 0 -2
BITMAP
1020
31FE
6022
C422
6DFF
1822
3022
65FE
FE20
1220
11FE
5420
5420
D5FF
9020
1020
ENDCHAR
STARTCHAR uni42DD
ENCODING 17117
SWIDTH 1000 0
DWIDTH 16 0
BBX 16 16 0 -2
BITMAP
1041
3263
6322
C526
6D04
1800
3040
6440
FFFF
1484
1184
550C
55E8
D43C
90E6
1383
ENDCHAR
STARTCHAR uni4302
ENCODING 17154
SWIDTH 1000 0
DWIDTH 16 0
BBX 16 16 0 -2
BITMAP
1000
33FE
2202
CA02
5BFE
3200
22FE
4A20
FA44
2AFE
2212
AA10
AAFE
A610
2C10
21FF
ENDCHAR
STARTCHAR uni432B
ENCODING 17195
SWIDTH 1000 0
DWIDTH 16 0
BBX 16 16 0 -2
BITMAP
13E8
328F
23F0
CA20
5BEE
3280
23FC
4904
F9FC
2904
21FC
A904
A9FC
A851
20D1
238F
ENDCHAR
STARTCHAR uni4343
ENCODING 17219
SWIDTH 1000 0
DWIDTH 16 0
BBX 16 16 0 -2
BITMAP
0100
03F8
0E08
3918
04B0
02E0
0F80
3800
1FFC
2100
4100
FFFF
0100
2104
2104
3FFC
ENDCHAR
STARTCHAR uni43EE
ENCODING 17390
SWIDTH 1000 0
DWIDTH 16 0
BBX 16 16 0 -2
BITMAP
0040
7840
4BFE
4842
48C2
7882
4986
4B1C
4800
7B06
498C
4800
48D8
498C
CB06
9E03
ENDCHAR
STARTCHAR uni43F0
ENCODING 17392
SWIDTH 1000 0
DWIDTH 16 0
BBX 16 15 0 -2
BITMAP
79FE
4822
49A2
48E2
7846
48E4
49AC
4800
7820
4830
4852
4943
4945
CB44
9A3C
ENDCHAR
STARTCHAR uni4408
ENCODING 17416
SWIDTH 1000 0
DWIDTH 16 0
BBX 16 16 0 -2
BITMAP
0010
7810
4BFF
4810
487E
7942
4942
497E
4942
7942
497E
4942
4942
497E
C900
99FF
ENDCHAR
STARTCHAR uni4417
ENCODING 17431
SWIDTH 1000 0
DWIDTH 16 0
BBX 16 16 0 -2
BITMAP
0040
7842
4BFE
4844
484C
7848
4FFF
4828
4844
79FC
4F04
4904
49FC
4904
C904
99FC
ENDCHAR
STARTCHAR uni441C
ENCODING 17436
SWIDTH 1000 0
DWIDTH 16 0
BBX 16 16 0 -2
BITMAP
010C
79F8
4902
48FE
4800
7AFC
4A84
4AFC
4A84
7AFC
4A84
4AFC
4A00
4BFF
C888
9B06
ENDCHAR
STARTCHAR uni4422
ENCODING 17442
SWIDTH 1000 0
DWIDTH 16 0
BBX 16 16 0 -2
BITMAP
0100
79FF
4B21
4EA9
48A9
78F9
4843
4886
4900
79FF
4B21
4EA9
48A9
48F9
C843
9886
ENDCHAR
STARTCHAR uni4453
ENCODING 17491
SWIDTH 1000 0
DWIDTH 16 0
BBX 16 16 0 -2
BITMAP
0810
7FFE
0810
0FF0
0810
0FF0
0810
FFFF
8001
BFFD
0808
3FFC
0104
1FF8
0100
FFFF
ENDCHAR
STARTCHAR uni445B
ENCODING 17499
SWIDTH 1000 0
DWIDTH 16 0
BBX 16 16 0 -2
BITMAP
0606
1C0C
F0F8
1088
1088
1088
FEFF
1088
1088
1088
7C8C
44E4
4584
4405
45F7
7C02
ENDCHAR
STARTCHAR uni4476
ENCODING 17526
SWIDTH 1000 0
DWIDTH 16 0
BBX 16 16 0 -2
BITMAP
0810
1010
7DFF
4410
54FE
5410
45FF
FE00
44FE
5492
5492
5492
54FE
4482
C482
8C8E
ENDCHAR
STARTCHAR uni447A
ENCODING 17530
SWIDTH 1000 0
DWIDTH 16 0
BBX 16 16 0 -2
BITMAP
0800
11FF
7D01
450D
5579
5511
457D
FF55
4555
557D
5511
5511
5515
451D
C575
8E01
ENDCHAR
STARTCHAR uni4491
ENCODING 17553
SWIDTH 1000 0
DWIDTH 16 0
BBX 16 5 0 5
BITMAP
1008
1818
0C30
0420
FFFF
ENDCHAR
STARTCHAR uni44B3
ENCODING 17587
SWIDTH 1000 0
DWIDTH 16 0
BBX 16 16 0 -2
BITMAP
0820
0820
FFFF
0820
0000
7FF8
0410
0C3E
3802
E006
0118
FFFF
0540
0D70
391C
E107
ENDCHAR
STARTCHAR uni44BE
ENCODING 17598
SWIDTH 1000 0
DWIDTH 16 0
BBX 16 16 0 -2
BITMAP
0810
0810
FFFF
0810
0810
0100
0100
FFFF
0280
0684
0CCC
3858
E860
0830
0F1C
7807
ENDCHAR
STARTCHAR uni44D4
ENCODING 17620
SWIDTH 1000 0
DWIDTH 16 0
BBX 16 16 0 -2
BITMAP
0810
0810
FFFF
0810
010C
3FF8
0110
0160
FFFF
0C00
F7F8
0060
FFFF
0080
0080
0380
ENDCHAR
STARTCHAR uni4508
ENCODING 17672
SWIDTH 1000 0
DWIDTH 16 0
BBX 16 16 0 -2
BITMAP
0420
0420
FFFF
0420
3FFC
0100
FFFF
0000
1FF8
1008
1FF8
1008
1FF8
1008
1FF8
700E
ENDCHAR
STARTCHAR uni450D
ENCODING 17677
SWIDTH 1000 0
DWIDTH 16 0
BBX 16 16 0 -2
BITMAP
0810
0810
FFFF
0810
0000
3FFE
2080
3FFC
2080
3FFC
2080
3FFF
0001
4921
CDB3
8496
ENDCHAR
STARTCHAR uni4525
ENCODING 17701
SWIDTH 1000 0
DWIDTH 16 0
BBX 16 16 0 -2
BITMAP
0820
FFFF
0820
0100
3FFC
0104
FFFF
0104
3FFC
0920
2544
2FF4
2384
6544
5934
C104
ENDCHAR
STARTCHAR uni4543
ENCODING 17731
SWIDTH 1000 0
DWIDTH 16 0
BBX 16 16 0 -2
BITMAP
0420
FFFF
0420
0010
7C6C
4583
487C
5040
487C
4440
447C
4440
5DFF
4040
4084
41FA
ENDCHAR
STARTCHAR uni459D
ENCODING 17821
SWIDTH 1000 0
DWIDTH 16 0
BBX 14 16 1 -2
BITMAP
0018
01F0
7F00
0200
0200
7FF8
4208
4208
4208
7FF8
0200
0210
0210
03F8
1E0C
F004
ENDCHAR
STARTCHAR uni45B8
ENCODING 17848
SWIDTH 1000 0
DWIDTH 16 0
BBX 16 16 0 -2
BITMAP
7E44
1042
FFFF
1044
106C
1E38
F030
10EC
7387
0100
3FFC
2104
3FFC
0104
01FE
FF03
ENDCHAR
STARTCHAR uni45E5
ENCODING 17893
SWIDTH 1000 0
DWIDTH 16 0
BBX 16 16 0 -2
BITMAP
2122
2122
2322
FA55
AE55
A900
A908
AB08
AA48
FE4E
2248
2A48
2A48
7A68
CA58
028F
ENDCHAR
STARTCHAR uni45EA
ENCODING 17898
SWIDTH 1000 0
DWIDTH 16 0
BBX 16 16 0 -2
BITMAP
0080
3FFF
2210
3FFF
2210
23F0
6000
4A44
DB66
1122
0100
3FFC
2104
3FFC
0102
FFFD
ENDCHAR
STARTCHAR uni460F
ENCODING 17935
SWIDTH 1000 0
DWIDTH 16 0
BBX 16 16 0 -2
BITMAP
0800
183F
1021
7F23
5522
5526
5524
5522
5521
5521
5521
57A1
7C21
C027
0020
0020
ENDCHAR
STARTCHAR uni4641
ENCODING 17985
SWIDTH 1000 0
DWIDTH 16 0
BBX 16 16 0 -2
BITMAP
1048
1044
107E
FDE0
0436
0C18
186D
1187
3408
7844
D47E
13E0
1036
1018
106D
1187
ENDCHAR
STARTCHAR uni4665
ENCODING 18021
SWIDTH 1000 0
DWIDTH 16 0
BBX 16 16 0 -2
BITMAP
2000
23FE
2020
FBFF
0A21
1BAD
3221
21AC
6870
B18C
2E73
2000
23FE
2022
2026
2020
ENDCHAR
STARTCHAR uni46A1
ENCODING 18081
SWIDTH 1000 0
DWIDTH 16 0
BBX 16 16 0 -2
BITMAP
2000
3DFE
6522
4922
FDFE
5522
5522
7D22
55FE
5400
7C10
4458
454A
4543
C745
8E3C
ENDCHAR
STARTCHAR uni46AF
ENCODING 18095
SWIDTH 1000 0
DWIDTH 16 0
BBX 15 16 0 -2
BITMAP
0002
7C02
0042
FE42
0042
7C42
0042
0042
7C42
0042
0042
7C02
4402
4402
4402
7C0E
ENDCHAR
STARTCHAR uni470C
ENCODING 18188
SWIDTH 1000 0
DWIDTH 16 0
BBX 16 16 0 -2
BITMAP
1002
33C6
2004
CFF9
580B
33C6
2004
4809
FBDF
2805
2004
ABD5
AA55
AA55
2244
23C4
ENDCHAR
STARTCHAR uni4764
ENCODING 18276
SWIDTH 1000 0
DWIDTH 16 0
BBX 16 16 0 -2
BITMAP
0820
3020
CBFF
2448
094A
3084
C9FE
0A85
14FC
2484
CCFC
1420
24A4
C5A6
0F23
3860
ENDCHAR
STARTCHAR uni47FD
ENCODING 18429
SWIDTH 1000 0
DWIDTH 16 0
BBX 16 16 0 -2
BITMAP
0020
7C20
47FF
4440
4444
449E
7DF2
1000
50A4
5CA4
50A4
50A4
50A4
5CA5
71A5
C303
ENDCHAR
STARTCHAR uni4816
ENCODING 18454
SWIDTH 1000 0
DWIDTH 16 0
BBX 16 16 0 -2
BITMAP
0010
7C10
45DF
4429
440A
445C
7CD4
11B6
5163
5C00
50FE
5082
5082
5C82
7082
C0FE
ENDCHAR
STARTCHAR uni4844
ENCODING 18500
SWIDTH 1000 0
DWIDTH 16 0
BBX 16 16 0 -2
BITMAP
1000
10F8
FE88
1088
7C88
5488
5488
7C88
5488
5488
7C88
1088
FD88
1109
1309
1607
ENDCHAR
STARTCHAR uni484E
ENCODING 18510
SWIDTH 1000 0
DWIDTH 16 0
BBX 16 15 0 -1
BITMAP
1000
11FF
FE00
1000
7CFE
5482
5482
7CFE
5480
5480
7C80
1080
FE80
1100
1300
ENDCHAR
STARTCHAR uni48B5
ENCODING 18613
SWIDTH 1000 0
DWIDTH 16 0
BBX 16 15 0 -2
BITMAP
3E3F
0021
0023
0022
0026
FFA4
1022
1021
1021
3121
2121
2121
2FA7
78A0
C0A0
ENDCHAR
STARTCHAR uni49B0
ENCODING 18864
SWIDTH 1000 0
DWIDTH 16 0
BBX 14 16 1 -2
BITMAP
FCFC
8484
FCFC
8484
FCFC
8FC4
9084
FFC4
9244
BFE4
A224
BFE4
A224
BFE4
8214
83FC
ENDCHAR
STARTCHAR uni49E7
ENCODING 18919
SWIDTH 1000 0
DWIDTH 16 0
BBX 16 16 0 -2
BITMAP
0104
F888
8BFE
9820
B1FC
A020
93FF
8804
8BD2
8890
8BFF
8892
B8D4
8389
8095
81A3
ENDCHAR
STARTCHAR uni49FA
ENCODING 18938
SWIDTH 1000 0
DWIDTH 16 0
BBX 16 16 0 -2
BITMAP
1022
1066
1044
FEFF
1188
3088
2088
20FE
7C88
4488
C488
44FE
4488
4488
7C88
00FF
ENDCHAR
STARTCHAR uni4A04
ENCODING 18948
SWIDTH 1000 0
DWIDTH 16 0
BBX 16 16 0 -2
BITMAP
1022
3866
4444
BAFF
0188
7C88
0888
FEFE
2888
FE88
AA88
CEFE
8288
FE88
8288
FEFF
ENDCHAR
STARTCHAR uni4A29
ENCODING 18985
SWIDTH 1000 0
DWIDTH 16 0
BBX 16 16 0 -2
BITMAP
3FFC
0100
FFFF
8101
BD7D
8101
BC7D
0010
7C10
00FE
FE92
10FE
5492
54FE
9410
1010
ENDCHAR
STARTCHAR uni4ABC
ENCODING 19132
SWIDTH 1000 0
DWIDTH 16 0
BBX 16 16 0 -2
BITMAP
1000
11FF
9220
92FE
9282
9282
FEFE
1082
1082
10FE
9282
9282
92FE
9244
FEC6
0183
ENDCHAR
STARTCHAR uni4B3B
ENCODING 19259
SWIDTH 1000 0
DWIDTH 16 0
BBX 16 16 0 -2
BITMAP
1028
3824
2DFF
6420
5020
FDFE
4420
7C20
45FF
7C20
4032
4416
441C
5E39
72ED
C187
ENDCHAR
STARTCHAR uni4BC2
ENCODING 19394
SWIDTH 1000 0
DWIDTH 16 0
BBX 16 16 0 -2
BITMAP
0FF8
0880
0FF0
0880
0FF8
1548
7F7F
4848
7E7E
4848
7F7F
ABA5
0100
FFFF
1930
E10F
ENDCHAR
STARTCHAR uni4BCA
ENCODING 19402
SWIDTH 1000 0
DWIDTH 16 0
BBX 16 15 0 -2
BITMAP
7DFF
4402
5C02
54F2
5492
FE92
8292
7C92
4492
7CF2
4402
7C02
4402
4402
4C0E
ENDCHAR
STARTCHAR uni4BD2
ENCODING 19410
SWIDTH 1000 0
DWIDTH 16 0
BBX 16 16 0 -2
BITMAP
0020
7C6F
4440
5CC0
5580
5420
FE6F
8242
7CC2
45C2
7C42
4442
7C42
4442
4442
4C4E
ENDCHAR
STARTCHAR uni4BE8
ENCODING 19432
SWIDTH 1000 0
DWIDTH 16 0
BBX 16 16 0 -2
BITMAP
0100
FFFF
0000
0FF0
0810
0810
7FFE
4002
4FF2
4812
4FF6
0100
FFFF
0240
1C38
F00F
ENDCHAR
STARTCHAR uni4C17
ENCODING 19479
SWIDTH 1000 0
DWIDTH 16 0
BBX 16 16 0 -2
BITMAP
BE7D
8811
BE7D
8811
BE7D
87E1
8841
BFF1
8911
9FF9
9109
9FF9
9109
9FF9
8105
80FF
ENDCHAR
STARTCHAR uni4C20
ENCODING 19488
SWIDTH 1000 0
DWIDTH 16 0
BBX 16 16 0 -2
BITMAP
0808
1008
7F7F
4949
4949
7F7F
4949
4949
7F49
287F
2A08
2A08
2A88
6F89
4803
C7FE
ENDCHAR
STARTCHAR uni4CC4
ENCODING 19652
SWIDTH 1000 0
DWIDTH 16 0
BBX 16 16 0 -2
BITMAP
1410
1420
14FE
5482
54FE
5482
5DFE
5680
54FF
5480
54FF
5401
5555
5D55
7503
C306
ENDCHAR
STARTCHAR uni4CD1
ENCODING 19665
SWIDTH 1000 0
DWIDTH 16 0
BBX 16 16 0 -2
BITMAP
1010
1020
FF7E
1042
107E
3F42
217E
6140
FF7F
A140
217F
3F01
2155
2155
2103
2706
ENDCHAR
STARTCHAR uni4D07
ENCODING 19719
SWIDTH 1000 0
DWIDTH 16 0
BBX 16 16 0 -2
BITMAP
0008
7F90
083E
FFA2
88BE
AAA2
88BE
2A20
0C3F
3320
CCFF
0001
7F55
0955
0B03
0806
ENDCHAR
STARTCHAR uni4D77
ENCODING 19831
SWIDTH 1000 0
DWIDTH 16 0
BBX 16 16 0 -2
BITMAP
2000
23FE
7A52
2252
23DE
2050
FBDE
0252
2252
23DE
7A52
2252
23DE
2C50
7841
C03F
ENDCHAR
STARTCHAR uni4E00
ENCODING 19968
SWIDTH 1000 0
DWIDTH 16 0
BBX 14 2 0 7
BITMAP
0008
FFFC
ENDCHAR
STARTCHAR uni4E01
ENCODING 19969
SWIDTH 1000 0
DWIDTH 16 0
BBX 15 14 0 -1
BITMAP
FFFE
0100
0100
0100
0100
0100
0100
0100
0100
0100
0100
0100
0100
0700
ENDCHAR
STARTCHAR uni4E02
ENCODING 19970
SWIDTH 1000 0
DWIDTH 16 0
BBX 16 14 0 -1
BITMAP
FFFF
0100
0300
0200
0600
0400
07F0
0010
0010
0010
0010
0010
0020
01C0
ENDCHAR
STARTCHAR uni4E03
ENCODING 19971
SWIDTH 1000 0
DWIDTH 16 0
BBX 15 15 0 -1
BITMAP
0400
0400
0400
040E
0470
0780
FC00
0400
0400
0400
0404
0404
0404
0204
01F8
ENDCHAR
STARTCHAR uni4E04
ENCODING 19972
SWIDTH 1000 0
DWIDTH 16 0
BBX 16 14 0 -1
BITMAP
0100
0100
0100
0100
0100
0100
0100
0100
0100
0100
0100
0100
0100
FFFF
ENDCHAR
STARTCHAR uni4E05
ENCODING 19973
SWIDTH 1000 0
DWIDTH 16 0
BBX 16 14 0 -1
BITMAP
FFFF
0100
0100
0100
0100
0100
0100
0100
0100
0100
0100
0100
0100
0100
ENDCHAR
STARTCHAR uni4E07
ENCODING 19975
SWIDTH 1000 0
DWIDTH 16 0
BBX 16 15 0 -2
BITMAP
FFFF
0400
0400
0400
07F8
0408
0408
0C08
0808
0808
1808
1008
3018
6010
C070
ENDCHAR
STARTCHAR uni4E08
ENCODING 19976
SWIDTH 1000 0
DWIDTH 16 0
BBX 16 16 0 -2
BITMAP
0080
0080
0080
FFFF
0080
0080
0880
0C80
0680
0380
0100
0380
06C0
0C70
381C
E007
ENDCHAR
STARTCHAR uni4E09
ENCODING 19977
SWIDTH 1000 0
DWIDTH 16 0
BBX 14 13 1 1
BITMAP
0010
7FF8
0000
0000
0000
0020
3FF0
0000
0000
0000
0000
0008
FFFC
ENDCHAR
STARTCHAR uni4E0A
ENCODING 19978
SWIDTH 1000 0
DWIDTH 16 0
BBX 15 14 0 0
BITMAP
0200
0200
0200
0200
0200
0200
03F8
0200
0200
0200
0200
0200
0200
FFFE
ENDCHAR
STARTCHAR uni4E0B
ENCODING 19979
SWIDTH 1000 0
DWIDTH 16 0
BBX 16 15 0 -2
BITMAP
FFFF
0100
0100
0100
01C0
0160
0130
0118
0108
0100
0100
0100
0100
0100
0100
ENDCHAR
STARTCHAR uni4E0C
ENCODING 19980
SWIDTH 1000 0
DWIDTH 16 0
BBX 16 15 0 -2
BITMAP
FFFF
0410
0410
0410
0410
0410
0410
0410
0410
0410
0410
0410
0410
0810
3010
ENDCHAR
STARTCHAR uni4E0D
ENCODING 19981
SWIDTH 1000 0
DWIDTH 16 0
BBX 15 15 0 -1
BITMAP
FFFE
0040
0080
0100
0300
0520
0910
1108
2104
C104
0100
0100
0100
0100
0100
ENDCHAR
STARTCHAR uni4E0E
ENCODING 19982
SWIDTH 1000 0
DWIDTH 16 0
BBX 16 16 0 -2
BITMAP
0800
0800
0FF0
0800
0800
0FE0
0020
0020
FFFF
0020
0020
0020
0060
0040
00C0
0780
ENDCHAR
STARTCHAR uni4E0F
ENCODING 19983
SWIDTH 1000 0
DWIDTH 16 0
BBX 16 14 0 -1
BITMAP
FFFF
0100
2100
21FE
2102
2102
2102
3FFE
0002
0002
0006
0004
000C
0078
ENDCHAR
STARTCHAR uni4E10
ENCODING 19984
SWIDTH 1000 0
DWIDTH 16 0
BBX 16 14 0 -1
BITMAP
FFFF
0100
2100
21FE
2100
2100
3FFE
0002
0006
0004
0004
000C
0008
0078
ENDCHAR
STARTCHAR uni4E11
ENCODING 19985
SWIDTH 1000 0
DWIDTH 16 0
BBX 16 14 0 -1
BITMAP
7FF0
0410
0410
0410
0410
0410
FFFF
0810
0810
0810
0810
0810
0810
FFFF
ENDCHAR
STARTCHAR uni4E12
ENCODING 19986
SWIDTH 1000 0
DWIDTH 16 0
BBX 16 14 0 -1
BITMAP
7FFC
0104
1904
0D04
0704
0204
0704
0584
0C8C
1808
3008
E078
0000
FFFF
ENDCHAR
STARTCHAR uni4E14
ENCODING 19988
SWIDTH 1000 0
DWIDTH 16 0
BBX 15 15 0 -1
BITMAP
1FF0
1010
1010
1010
1FF0
1010
1010
1010
1010
1FF0
1010
1010
1010
1010
FFFE
ENDCHAR
STARTCHAR uni4E15
ENCODING 19989
SWIDTH 1000 0
DWIDTH 16 0
BBX 16 14 0 -1
BITMAP
7FFE
0080
0180
0100
0340
0760
0D30
391C
E107
0100
0100
0100
0000
FFFF
ENDCHAR
STARTCHAR uni4E16
ENCODING 19990
SWIDTH 1000 0
DWIDTH 16 0
BBX 14 15 0 -1
BITMAP
0210
2210
2210
2210
FFFC
2210
2210
2210
2210
2210
23F0
2000
2000
3FF8
2000
ENDCHAR
STARTCHAR uni4E17
ENCODING 19991
SWIDTH 1000 0
DWIDTH 16 0
BBX 16 15 0 -1
BITMAP
1108
1108
1108
1108
1108
1108
FFFF
1108
1108
1108
1108
1108
1108
1108
1FF8
ENDCHAR
STARTCHAR uni4E18
ENCODING 19992
SWIDTH 1000 0
DWIDTH 16 0
BBX 15 15 0 -1
BITMAP
0020
00C0
0700
3800
2000
2000
3FFC
2020
2020
2020
2020
2020
2020
2020
FFFE
ENDCHAR
STARTCHAR uni4E19
ENCODING 19993
SWIDTH 1000 0
DWIDTH 16 0
BBX 15 15 0 -1
BITMAP
FFFE
0100
0100
0100
7FFC
4104
4284
4284
4444
4444
4824
4824
5004
4004
400C
ENDCHAR
STARTCHAR uni4E1E
ENCODING 19998
SWIDTH 1000 0
DWIDTH 16 0
BBX 15 15 0 -1
BITMAP
3FF0
0010
0020
0140
FD84
0548
0550
0560
0920
0920
3118
C106
0700
0000
7FFC
ENDCHAR
STARTCHAR uni4E1F
ENCODING 19999
SWIDTH 1000 0
DWIDTH 16 0
BBX 16 15 0 -2
BITMAP
7FFE
0100
0100
3FFC
0100
0100
0100
FFFF
0200
0610
0418
0C08
08FC
1F84
7006
ENDCHAR
STARTCHAR uni4E21
ENCODING 20001
SWIDTH 1000 0
DWIDTH 16 0
BBX 16 15 0 -2
BITMAP
FFFF
0100
0100
7FFE
4102
4102
4912
4912
4912
4912
4FF2
4002
4002
4002
400E
ENDCHAR
STARTCHAR uni4E23
ENCODING 20003
SWIDTH 1000 0
DWIDTH 16 0
BBX 14 15 1 -2
BITMAP
FFFC
0480
0480
0480
7CF8
4488
4488
4488
7CF8
0480
0480
0880
0880
1080
2080
ENDCHAR
STARTCHAR uni4E24
ENCODING 20004
SWIDTH 1000 0
DWIDTH 16 0
BBX 16 15 0 -2
BITMAP
FFFF
0420
0420
7FFE
4422
4422
4422
4A52
494A
494A
5082
5102
4002
4002
4006
ENDCHAR
STARTCHAR uni4E26
ENCODING 20006
SWIDTH 1000 0
DWIDTH 16 0
BBX 16 15 0 -1
BITMAP
1008
1818
0C30
0420
7FFE
0420
0420
4422
4422
6426
2424
2424
0420
0420
FFFF
ENDCHAR
STARTCHAR uni4E28
ENCODING 20008
SWIDTH 1000 0
DWIDTH 16 0
BBX 1 14 7 -1
BITMAP
80
80
80
80
80
80
80
80
80
80
80
80
80
80
ENDCHAR
STARTCHAR uni4E29
ENCODING 20009
SWIDTH 1000 0
DWIDTH 16 0
BBX 9 16 3 -2
BITMAP
0080
0080
2080
2080
2080
2080
2080
2080
2080
2080
2380
2E80
3880
E080
0080
0080
ENDCHAR
STARTCHAR uni4E2A
ENCODING 20010
SWIDTH 1000 0
DWIDTH 16 0
BBX 16 16 0 -2
BITMAP
0100
0380
02C0
0660
0C30
1818
310C
E107
0100
0100
0100
0100
0100
0100
0100
0100
ENDCHAR
STARTCHAR uni4E2B
ENCODING 20011
SWIDTH 1000 0
DWIDTH 16 0
BBX 10 14 3 -1
BITMAP
8040
4080
2100
1200
0C00
0800
0800
0800
0800
0800
0800
0800
0800
0800
ENDCHAR
STARTCHAR uni4E2C
ENCODING 20012
SWIDTH 1000 0
DWIDTH 16 0
BBX 6 16 5 -2
BITMAP
04
04
04
44
24
34
14
04
0C
34
64
C4
04
04
04
04
ENDCHAR
STARTCHAR uni4E2D
ENCODING 20013
SWIDTH 1000 0
DWIDTH 16 0
BBX 13 15 1 -1
BITMAP
0200
0200
0200
FFF8
8208
8208
8208
8208
8208
FFF8
8208
0200
0200
0200
0200
ENDCHAR
STARTCHAR uni4E2E
ENCODING 20014
SWIDTH 1000 0
DWIDTH 16 0
BBX 15 15 1 -2
BITMAP
FFF0
0010
0410
0410
0410
7FD0
0410
0410
0410
7FD0
0410
0410
041A
040E
0404
ENDCHAR
STARTCHAR uni4E2F
ENCODING 20015
SWIDTH 1000 0
DWIDTH 16 0
BBX 14 16 1 -2
BITMAP
0200
0200
03F8
3E00
0200
0200
03F0
7E00
0200
0200
03FC
FE00
0200
0200
0200
0200
ENDCHAR
STARTCHAR uni4E30
ENCODING 20016
SWIDTH 1000 0
DWIDTH 16 0
BBX 16 16 0 -2
BITMAP
0100
0100
0100
7FFE
0100
0100
0100
3FFC
0100
0100
0100
FFFF
0100
0100
0100
0100
ENDCHAR
STARTCHAR uni4E31
ENCODING 20017
SWIDTH 1000 0
DWIDTH 16 0
BBX 15 16 0 -2
BITMAP
0420
0420
4422
4422
4422
4422
4422
4422
4422
4422
7C3E
0420
0C20
1820
3020
E020
ENDCHAR
STARTCHAR uni4E32
ENCODING 20018
SWIDTH 1000 0
DWIDTH 16 0
BBX 15 15 0 -1
BITMAP
0100
0100
7FFC
4104
4104
7FFC
4104
0100
FFFE
8102
8102
FFFE
8102
0100
0100
ENDCHAR
STARTCHAR uni4E35
ENCODING 20021
SWIDTH 1000 0
DWIDTH 16 0
BBX 16 16 0 -2
BITMAP
0240
0240
1248
1248
1248
FFFF
0810
0410
0420
1FF8
0100
0100
3FFC
0100
0100
0100
ENDCHAR
STARTCHAR uni4E36
ENCODING 20022
SWIDTH 1000 0
DWIDTH 16 0
BBX 10 10 3 1
BITMAP
C000
7000
1800
0C00
0600
0300
0380
01C0
00C0
00C0
ENDCHAR
STARTCHAR uni4E38
ENCODING 20024
SWIDTH 1000 0
DWIDTH 16 0
BBX 15 15 0 -1
BITMAP
0400
0400
0400
FFE0
0420
0420
6420
1C20
0620
0920
08A0
1022
2022
4022
801E
ENDCHAR
STARTCHAR uni4E39
ENCODING 20025
SWIDTH 1000 0
DWIDTH 16 0
BBX 15 15 0 -1
BITMAP
1FF8
1008
1208
1108
1088
1088
1008
FFFE
1008
1008
1008
2008
2008
4008
8038
ENDCHAR
STARTCHAR uni4E3B
ENCODING 20027
SWIDTH 1000 0
DWIDTH 16 0
BBX 16 15 0 -1
BITMAP
0600
0300
0100
7FFE
0100
0100
0100
0100
3FFC
0100
0100
0100
0100
0100
FFFF
ENDCHAR
STARTCHAR uni4E3C
ENCODING 20028
SWIDTH 1000 0
DWIDTH 16 0
BBX 16 16 0 -2
BITMAP
0810
0810
0810
FFFF
0810
0B10
0990
0890
0810
0810
FFFF
0810
0810
1810
3010
E010
ENDCHAR
STARTCHAR uni4E3F
ENCODING 20031
SWIDTH 1000 0
DWIDTH 16 0
BBX 8 16 1 -2
BITMAP
01
01
01
01
01
01
01
01
01
01
03
02
06
0C
38
E0
ENDCHAR
STARTCHAR uni4E40
ENCODING 20032
SWIDTH 1000 0
DWIDTH 16 0
BBX 14 15 2 -2
BITMAP
1000
1000
2800
6800
4800
CC00
0400
0400
0600
0200
0100
0180
00C0
0030
000C
ENDCHAR
STARTCHAR uni4E41
ENCODING 20033
SWIDTH 1000 0
DWIDTH 16 0
BBX 14 14 2 -2
BITMAP
F800
0800
0800
0800
0C00
0400
0400
0600
0200
0100
0180
00C0
0030
000C
ENDCHAR
STARTCHAR uni4E42
ENCODING 20034
SWIDTH 1000 0
DWIDTH 16 0
BBX 16 16 0 -2
BITMAP
1008
1008
1818
0810
0810
0C30
0420
0660
0240
03C0
0180
03C0
0660
0C30
381C
E007
ENDCHAR
STARTCHAR uni4E43
ENCODING 20035
SWIDTH 1000 0
DWIDTH 16 0
BBX 14 15 0 -1
BITMAP
7FE0
0820
0840
0840
0880
0880
10FC
1004
1004
2004
2004
2008
4008
4010
80E0
ENDCHAR
STARTCHAR uni4E44
ENCODING 20036
SWIDTH 1000 0
DWIDTH 16 0
BBX 14 14 1 -1
BITMAP
000C
0018
0030
0E60
03C0
0180
03C0
0660
4C00
4800
5800
7000
6000
C000
ENDCHAR
STARTCHAR uni4E45
ENCODING 20037
SWIDTH 1000 0
DWIDTH 16 0
BBX 14 15 1 -1
BITMAP
1000
1000
1FC0
1040
2040
2080
4080
8100
0280
0280
0440
0840
1020
2010
C00C
ENDCHAR
STARTCHAR uni4E47
ENCODING 20039
SWIDTH 1000 0
DWIDTH 16 0
BBX 16 16 0 -2
BITMAP
0030
01E0
3F00
0200
0200
0200
0200
0200
FFFF
0200
0200
0200
0200
0202
0306
01FC
ENDCHAR
STARTCHAR uni4E48
ENCODING 20040
SWIDTH 1000 0
DWIDTH 16 0
BBX 15 16 0 -2
BITMAP
0400
0400
0C00
0800
1800
1080
3080
6180
C100
0320
0230
0618
0C08
08FC
1F86
7002
ENDCHAR
STARTCHAR uni4E4B
ENCODING 20043
SWIDTH 1000 0
DWIDTH 16 0
BBX 15 15 0 -1
BITMAP
0200
0200
7FF8
0008
0010
0020
0040
0080
0100
1200
1400
2800
2400
4300
80FE
ENDCHAR
STARTCHAR uni4E4D
ENCODING 20045
SWIDTH 1000 0
DWIDTH 16 0
BBX 16 16 0 -2
BITMAP
1000
1000
1000
3FFF
2100
6100
C100
01FC
0100
0100
0100
01FE
0100
0100
0100
0100
ENDCHAR
STARTCHAR uni4E4E
ENCODING 20046
SWIDTH 1000 0
DWIDTH 16 0
BBX 16 16 0 -2
BITMAP
0018
01F0
7F00
0104
210C
3118
1110
0100
FFFF
0100
0100
0100
0100
0100
0100
0700
ENDCHAR
STARTCHAR uni4E4F
ENCODING 20047
SWIDTH 1000 0
DWIDTH 16 0
BBX 15 15 0 -1
BITMAP
0070
0780
3A00
0200
0200
7FF8
0008
0010
0020
0040
0080
1100
2A00
4400
83FE
ENDCHAR
STARTCHAR uni4E51
ENCODING 20049
SWIDTH 1000 0
DWIDTH 16 0
BBX 16 16 0 -2
BITMAP
0038
00E0
0780
3D00
0100
1100
3104
610C
C158
0160
1130
3118
610C
C107
0100
0100
ENDCHAR
STARTCHAR uni4E55
ENCODING 20053
SWIDTH 1000 0
DWIDTH 16 0
BBX 16 16 0 -2
BITMAP
000E
0078
3FC0
2040
3FFF
2040
2040
3FFF
2040
2040
2FFE
6842
4842
C842
084E
0040
ENDCHAR
STARTCHAR uni4E56
ENCODING 20054
SWIDTH 1000 0
DWIDTH 16 0
BBX 15 15 0 -1
BITMAP
0038
3FC0
0100
0100
7FFC
0100
0920
0924
7928
0930
0920
1922
E922
091C
0100
ENDCHAR
STARTCHAR uni4E57
ENCODING 20055
SWIDTH 1000 0
DWIDTH 16 0
BBX 16 16 0 -2
BITMAP
0038
3FE0
0100
7FFE
1108
1108
FFFF
1108
1108
7FFE
0520
0D30
1918
310C
E107
0100
ENDCHAR
STARTCHAR uni4E58
ENCODING 20056
SWIDTH 1000 0
DWIDTH 16 0
BBX 15 15 0 -1
BITMAP
003C
3FC0
0100
7FFE
0920
7926
0938
1920
6922
091E
0380
0540
0920
3118
C106
ENDCHAR
STARTCHAR uni4E59
ENCODING 20057
SWIDTH 1000 0
DWIDTH 16 0
BBX 14 14 1 -1
BITMAP
FFF0
0060
00C0
0180
0300
0600
0C00
1800
3000
6004
C004
800C
C008
7FF8
ENDCHAR
STARTCHAR uni4E5A
ENCODING 20058
SWIDTH 1000 0
DWIDTH 16 0
BBX 12 15 4 -1
BITMAP
8000
8000
8000
8000
8000
8000
8000
8000
8000
8000
8000
8000
8010
C030
7FE0
ENDCHAR
STARTCHAR uni4E5C
ENCODING 20060
SWIDTH 1000 0
DWIDTH 16 0
BBX 16 15 0 -1
BITMAP
0800
0800
0800
080E
087A
0BC2
0E02
F802
0802
0802
080E
0800
0801
0C03
07FE
ENDCHAR
STARTCHAR uni4E5D
ENCODING 20061
SWIDTH 1000 0
DWIDTH 16 0
BBX 16 16 0 -2
BITMAP
0400
0400
0400
0400
FFE0
0420
0420
0420
0420
0420
0420
0C20
0820
1821
3033
E01E
ENDCHAR
STARTCHAR uni4E5E
ENCODING 20062
SWIDTH 1000 0
DWIDTH 16 0
BBX 14 15 1 -1
BITMAP
1000
1000
3FFC
2000
4000
9FE0
0020
00C0
0100
0600
0800
3004
4004
4004
3FF8
ENDCHAR
STARTCHAR uni4E5F
ENCODING 20063
SWIDTH 1000 0
DWIDTH 16 0
BBX 16 15 0 -1
BITMAP
0080
1080
1080
109C
10F4
1784
1C84
F084
1084
1084
109C
1080
1001
1803
0FFE
ENDCHAR
STARTCHAR uni4E62
ENCODING 20066
SWIDTH 1000 0
DWIDTH 16 0
BBX 16 16 0 -2
BITMAP
1040
1040
1040
9240
9240
9240
9240
9240
9240
9240
9240
9240
9240
FE41
0063
003E
ENDCHAR
STARTCHAR uni4E63
ENCODING 20067
SWIDTH 1000 0
DWIDTH 16 0
BBX 16 16 0 -2
BITMAP
0820
1820
3020
2020
6020
C220
6620
3420
0C20
1820
1220
3320
2120
7FA1
C0B3
001E
ENDCHAR
STARTCHAR uni4E68
ENCODING 20072
SWIDTH 1000 0
DWIDTH 16 0
BBX 16 16 0 -2
BITMAP
1020
1020
3020
2220
2320
6120
4FA0
F8A0
0020
0020
7F20
4120
4120
4121
4133
7F1E
ENDCHAR
STARTCHAR uni4E69
ENCODING 20073
SWIDTH 1000 0
DWIDTH 16 0
BBX 16 16 0 -2
BITMAP
1020
1020
1020
1020
1FA0
1020
1020
1020
1020
FF20
8120
8120
8120
8121
8133
FF1E
ENDCHAR
STARTCHAR uni4E6B
ENCODING 20075
SWIDTH 1000 0
DWIDTH 16 0
BBX 15 15 0 -1
BITMAP
1000
FE7E
1242
1242
2242
4242
8C7E
0000
3FFC
0060
0180
0600
0800
1002
0FFE
ENDCHAR
STARTCHAR uni4E6D
ENCODING 20077
SWIDTH 1000 0
DWIDTH 16 0
BBX 15 14 0 -1
BITMAP
FFFE
0800
1000
1FF8
2808
C808
0FF8
0000
1FF0
0010
00E0
0F00
1002
0FFC
ENDCHAR
STARTCHAR uni4E71
ENCODING 20081
SWIDTH 1000 0
DWIDTH 16 0
BBX 16 16 0 -2
BITMAP
0320
0E20
7820
0820
0820
0820
FFA0
0820
0820
0820
7F20
4120
4120
4121
4133
7F1E
ENDCHAR
STARTCHAR uni4E73
ENCODING 20083
SWIDTH 1000 0
DWIDTH 16 0
BBX 15 15 0 -1
BITMAP
0640
F840
9140
4940
4A40
0040
FE40
0240
0440
0840
FF40
0842
0842
0842
187C
ENDCHAR
STARTCHAR uni4E74
ENCODING 20084
SWIDTH 1000 0
DWIDTH 16 0
BBX 16 16 0 -2
BITMAP
1006
10FC
FE80
1080
10FF
1C88
F088
1188
3308
0000
1FF8
0060
0380
0C02
1806
0FFC
ENDCHAR
STARTCHAR uni4E75
ENCODING 20085
SWIDTH 1000 0
DWIDTH 16 0
BBX 16 16 0 -2
BITMAP
0820
0820
FFA0
4120
6320
2220
2220
FFA0
0820
0820
0820
FFA0
0820
0821
0833
081E
ENDCHAR
STARTCHAR uni4E76
ENCODING 20086
SWIDTH 1000 0
DWIDTH 16 0
BBX 15 15 0 -1
BITMAP
0110
0108
FFFE
0100
7FFC
4104
7FFC
4104
7FFC
4104
3FF8
0030
07C0
1802
1FFE
ENDCHAR
STARTCHAR uni4E77
ENCODING 20087
SWIDTH 1000 0
DWIDTH 16 0
BBX 14 15 1 -1
BITMAP
8080
4080
02A0
8490
4988
0020
2040
4180
8000
7FC0
0200
0C00
3000
4008
3FFC
ENDCHAR
STARTCHAR uni4E79
ENCODING 20089
SWIDTH 1000 0
DWIDTH 16 0
BBX 16 16 0 -2
BITMAP
0820
0820
FFA0
0820
7F20
4120
4120
7F20
4120
4120
7F20
0820
FFA1
0821
0833
081E
ENDCHAR
STARTCHAR uni4E7E
ENCODING 20094
SWIDTH 1000 0
DWIDTH 16 0
BBX 16 16 0 -2
BITMAP
1040
1040
FE40
10FF
7D80
4700
44FE
7C0C
4418
4430
7C60
1040
FEC0
1081
10C3
107E
ENDCHAR
STARTCHAR uni4E7F
ENCODING 20095
SWIDTH 1000 0
DWIDTH 16 0
BBX 16 16 0 -2
BITMAP
0640
7C40
5240
8940
0040
2040
4440
2840
1040
2240
FF40
1140
5441
D641
9263
103E
ENDCHAR
STARTCHAR uni4E80
ENCODING 20096
SWIDTH 1000 0
DWIDTH 16 0
BBX 16 16 0 -2
BITMAP
0400
0FE0
1040
3FF8
D108
1FF8
1108
1FF8
0100
3FFC
2104
3FFC
2104
3FFD
0101
00FF
ENDCHAR
STARTCHAR uni4E82
ENCODING 20098
SWIDTH 1000 0
DWIDTH 16 0
BBX 14 15 1 -1
BITMAP
FC40
A240
5440
7E40
2440
1840
FF40
9140
A540
BD40
8140
FD40
A544
9944
A53C
ENDCHAR
STARTCHAR uni4E85
ENCODING 20101
SWIDTH 1000 0
DWIDTH 16 0
BBX 3 16 5 -2
BITMAP
20
20
20
20
20
20
20
20
20
20
20
20
20
20
20
E0
ENDCHAR
STARTCHAR uni4E86
ENCODING 20102
SWIDTH 1000 0
DWIDTH 16 0
BBX 14 14 0 -1
BITMAP
FFFC
0004
0008
0030
00C0
0100
0100
0100
0100
0100
0100
0100
0100
0700
ENDCHAR
STARTCHAR uni4E88
ENCODING 20104
SWIDTH 1000 0
DWIDTH 16 0
BBX 15 15 0 -1
BITMAP
3FF0
0010
0820
0440
0280
0100
FFFE
0102
0104
0118
0160
0100
0100
0100
0700
ENDCHAR
STARTCHAR uni4E89
ENCODING 20105
SWIDTH 1000 0
DWIDTH 16 0
BBX 16 16 0 -2
BITMAP
0400
0FF0
1860
30C0
E180
3FFC
0104
0104
FFFF
0104
0104
3FFC
0100
0100
0100
0700
ENDCHAR
STARTCHAR uni4E8A
ENCODING 20106
SWIDTH 1000 0
DWIDTH 16 0
BBX 16 16 0 -2
BITMAP
0100
0100
7FFE
1108
1918
0910
3FFC
0104
0104
FFFF
0104
0104
3FFC
0100
0100
0700
ENDCHAR
STARTCHAR uni4E8B
ENCODING 20107
SWIDTH 1000 0
DWIDTH 16 0
BBX 16 16 0 -2
BITMAP
0100
0100
FFFF
0100
3FFC
2104
3FFC
0100
3FFC
0104
FFFF
0104
3FFC
0100
0100
0700
ENDCHAR
STARTCHAR uni4E8C
ENCODING 20108
SWIDTH 1000 0
DWIDTH 16 0
BBX 15 12 0 1
BITMAP
0010
3FF8
0000
0000
0000
0000
0000
0000
0000
0000
0004
FFFE
ENDCHAR
STARTCHAR uni4E8D
ENCODING 20109
SWIDTH 1000 0
DWIDTH 16 0
BBX 16 15 0 -2
BITMAP
3FFC
0000
0000
0000
0000
FFFF
0100
0100
0100
0100
0100
0100
0100
0100
0700
ENDCHAR
STARTCHAR uni4E8E
ENCODING 20110
SWIDTH 1000 0
DWIDTH 16 0
BBX 15 15 0 -1
BITMAP
3FF8
0100
0100
0100
0100
0100
FFFE
0100
0100
0100
0100
0100
0100
0100
0700
ENDCHAR
STARTCHAR uni4E90
ENCODING 20112
SWIDTH 1000 0
DWIDTH 16 0
BBX 15 14 0 -1
BITMAP
7FFC
0100
0100
0100
FFFE
0200
0200
0400
0FFC
0004
0004
0008
0010
01E0
ENDCHAR
STARTCHAR uni4E91
ENCODING 20113
SWIDTH 1000 0
DWIDTH 16 0
BBX 14 15 0 -1
BITMAP
3FF0
0000
0000
0000
0000
FFFC
0200
0200
0440
0420
0820
0810
11F0
7E08
0008
ENDCHAR
STARTCHAR uni4E92
ENCODING 20114
SWIDTH 1000 0
DWIDTH 16 0
BBX 16 14 0 -1
BITMAP
7FFE
0400
0400
0400
0FF0
0810
0810
1810
1010
1FF0
0020
0020
0020
FFFF
ENDCHAR
STARTCHAR uni4E94
ENCODING 20116
SWIDTH 1000 0
DWIDTH 16 0
BBX 15 14 0 0
BITMAP
7FFC
0200
0200
0200
0200
3FF0
0410
0410
0410
0810
0810
0810
1010
FFFE
ENDCHAR
STARTCHAR uni4E95
ENCODING 20117
SWIDTH 1000 0
DWIDTH 16 0
BBX 15 15 0 -1
BITMAP
0820
0820
0820
0820
7FFC
0820
0820
0820
FFFE
0820
0820
1020
1020
2020
4020
ENDCHAR
STARTCHAR uni4E96
ENCODING 20118
SWIDTH 1000 0
DWIDTH 16 0
BBX 16 14 0 -1
BITMAP
3FFC
0000
0000
0000
FFFF
0000
0000
0000
0000
3FFC
0000
0000
0000
FFFF
ENDCHAR
STARTCHAR uni4E97
ENCODING 20119
SWIDTH 1000 0
DWIDTH 16 0
BBX 16 15 0 -1
BITMAP
0100
0100
4102
4102
4102
4102
7FFE
0000
0000
0000
3FFC
0000
0000
0000
FFFF
ENDCHAR
STARTCHAR uni4E98
ENCODING 20120
SWIDTH 1000 0
DWIDTH 16 0
BBX 16 14 0 -1
BITMAP
7FFE
0000
0000
1FF8
1008
1008
1FF8
1008
1008
1008
1FF8
0000
0000
FFFF
ENDCHAR
STARTCHAR uni4E99
ENCODING 20121
SWIDTH 1000 0
DWIDTH 16 0
BBX 16 14 0 -1
BITMAP
7FFE
0400
0400
07F0
0410
0D90
08D0
0810
0B30
19A0
1020
0020
0020
FFFF
ENDCHAR
STARTCHAR uni4E9B
ENCODING 20123
SWIDTH 1000 0
DWIDTH 16 0
BBX 14 15 0 -1
BITMAP
0880
2880
2888
2EB0
28C0
2880
2884
2E84
387C
E000
0000
3FF0
0000
0000
FFFC
ENDCHAR
STARTCHAR uni4E9C
ENCODING 20124
SWIDTH 1000 0
DWIDTH 16 0
BBX 16 14 0 -1
BITMAP
7FFE
0440
0440
0440
3FFC
2444
2444
2444
2444
3FFC
0440
0440
0440
FFFF
ENDCHAR
STARTCHAR uni4E9D
ENCODING 20125
SWIDTH 1000 0
DWIDTH 16 0
BBX 16 15 0 -1
BITMAP
0200
0410
0808
3FFC
0004
2010
2412
4422
FE7F
0201
0000
1FFC
0000
0000
FFFF
ENDCHAR
STARTCHAR uni4E9E
ENCODING 20126
SWIDTH 1000 0
DWIDTH 16 0
BBX 13 15 1 -1
BITMAP
FFF8
0880
0880
0880
0880
78F0
4010
4010
4010
78F0
0880
0880
0880
0880
FFF8
ENDCHAR
STARTCHAR uni4E9F
ENCODING 20127
SWIDTH 1000 0
DWIDTH 16 0
BBX 16 14 0 -1
BITMAP
7FFE
0200
0400
0780
00FE
7CA2
44B6
449C
4488
7D9C
0136
0763
0000
FFFF
ENDCHAR
STARTCHAR uni4EA0
ENCODING 20128
SWIDTH 1000 0
DWIDTH 16 0
BBX 16 5 0 5
BITMAP
0100
0100
0100
0100
FFFF
ENDCHAR
STARTCHAR uni4EA1
ENCODING 20129
SWIDTH 1000 0
DWIDTH 16 0
BBX 16 15 0 -1
BITMAP
0100
0100
0100
FFFF
1000
1000
1000
1000
1000
1000
1000
1000
1000
1800
0FFE
ENDCHAR
STARTCHAR uni4EA2
ENCODING 20130
SWIDTH 1000 0
DWIDTH 16 0
BBX 16 16 0 -2
BITMAP
0100
0100
0100
FFFF
0000
0000
0FE0
0820
0820
0820
0820
0820
1820
1021
3033
E01E
ENDCHAR
STARTCHAR uni4EA4
ENCODING 20132
SWIDTH 1000 0
DWIDTH 16 0
BBX 15 15 0 -1
BITMAP
0100
0100
FFFE
0000
0420
0810
1008
3014
4822
0440
0280
0100
0280
0C60
701C
ENDCHAR
STARTCHAR uni4EA5
ENCODING 20133
SWIDTH 1000 0
DWIDTH 16 0
BBX 15 15 0 -1
BITMAP
0100
0100
FFFE
0200
0420
2840
1088
0910
0620
0440
0880
3140
0220
0410
1808
ENDCHAR
STARTCHAR uni4EA6
ENCODING 20134
SWIDTH 1000 0
DWIDTH 16 0
BBX 16 16 0 -2
BITMAP
0100
0100
0100
FFFF
0420
0420
2424
2424
6426
4422
C423
0C20
0820
1820
3020
60E0
ENDCHAR
STARTCHAR uni4EA8
ENCODING 20136
SWIDTH 1000 0
DWIDTH 16 0
BBX 15 15 0 -1
BITMAP
0100
FFFE
0000
3FF8
2008
2008
3FF8
0000
7FFC
0018
0060
0180
0100
0100
0700
ENDCHAR
STARTCHAR uni4EAB
ENCODING 20139
SWIDTH 1000 0
DWIDTH 16 0
BBX 15 15 0 -1
BITMAP
0100
FFFE
0000
1FF0
1010
1010
1FF0
0000
7FF8
0030
00C0
FFFE
0100
0100
0700
ENDCHAR
STARTCHAR uni4EAC
ENCODING 20140
SWIDTH 1000 0
DWIDTH 16 0
BBX 15 15 0 -1
BITMAP
0100
0100
FFFE
0000
1FF0
1010
1010
1010
1FF0
0100
0920
1110
2108
C106
0700
ENDCHAR
STARTCHAR uni4EAD
ENCODING 20141
SWIDTH 1000 0
DWIDTH 16 0
BBX 15 15 0 -1
BITMAP
0100
FFFE
0000
3FF8
2008
2008
3FF8
0000
FFFE
8002
BFFA
0100
0100
0100
0700
ENDCHAR
STARTCHAR uni4EAE
ENCODING 20142
SWIDTH 1000 0
DWIDTH 16 0
BBX 16 16 0 -2
BITMAP
0100
0100
FFFF
0000
0FF0
0810
0FF0
0000
7FFE
4002
4422
0420
0420
0C21
3833
E01E
ENDCHAR
STARTCHAR uni4EAF
ENCODING 20143
SWIDTH 1000 0
DWIDTH 16 0
BBX 16 16 0 -2
BITMAP
0100
0100
FFFF
0000
1FF8
1008
1008
1FF8
0000
7FFE
4002
4002
7FFE
4002
4002
7FFE
ENDCHAR
STARTCHAR uni4EB0
ENCODING 20144
SWIDTH 1000 0
DWIDTH 16 0
BBX 16 16 0 -2
BITMAP
0100
0100
FFFF
0000
1FF8
1008
1008
1FF8
1008
1008
1FF8
0100
1108
310C
E107
0700
ENDCHAR
STARTCHAR uni4EB3
ENCODING 20147
SWIDTH 1000 0
DWIDTH 16 0
BBX 16 16 0 -2
BITMAP
0100
7FFE
0000
1FF8
1008
1FF8
0000
7FFE
4002
41F2
1F00
0100
FFFE
0101
0183
00FE
ENDCHAR
STARTCHAR uni4EB6
ENCODING 20150
SWIDTH 1000 0
DWIDTH 16 0
BBX 16 16 0 -2
BITMAP
0100
FFFF
0000
3FFC
2004
27E4
2424
27E4
2004
3FFC
1008
1FF8
1008
1FF8
0000
FFFF
ENDCHAR
STARTCHAR uni4EB9
ENCODING 20153
SWIDTH 1000 0
DWIDTH 16 0
BBX 16 16 0 -2
BITMAP
0100
FFFF
0000
77EE
4422
77AE
44A2
FFFF
8001
1FF8
1008
1FF8
1008
1FF8
1008
FFFF
ENDCHAR
STARTCHAR uni4EBA
ENCODING 20154
SWIDTH 1000 0
DWIDTH 16 0
BBX 16 16 0 -2
BITMAP
0100
0100
0100
0100
0100
0100
0380
0280
02C0
0640
0460
0C30
1818
300C
6006
C003
ENDCHAR
STARTCHAR uni4EBB
ENCODING 20155
SWIDTH 1000 0
DWIDTH 16 0
BBX 9 16 3 -2
BITMAP
0080
0080
0180
0300
0200
0600
0C00
1C00
7400
C400
0400
0400
0400
0400
0400
0400
ENDCHAR
STARTCHAR uni4EBC
ENCODING 20156
SWIDTH 1000 0
DWIDTH 16 0
BBX 16 15 0 -1
BITMAP
0100
0100
0100
0100
0380
0280
06C0
0440
0C60
1830
3018
600E
C003
0000
FFFF
ENDCHAR
STARTCHAR uni4EC0
ENCODING 20160
SWIDTH 1000 0
DWIDTH 16 0
BBX 16 16 0 -2
BITMAP
0820
0820
1820
1020
3020
2020
67FF
A020
2020
2020
2020
2020
2020
2020
2020
2020
ENDCHAR
STARTCHAR uni4EC1
ENCODING 20161
SWIDTH 1000 0
DWIDTH 16 0
BBX 16 16 0 -2
BITMAP
0800
0800
1800
13FE
3000
2000
6000
A000
2000
2000
2000
2000
2000
27FF
2000
2000
ENDCHAR
STARTCHAR uni4EC2
ENCODING 20162
SWIDTH 1000 0
DWIDTH 16 0
BBX 15 16 0 -2
BITMAP
0840
0840
1840
1040
37FE
2042
6042
A042
2042
20C2
2082
2082
2182
2106
2304
261C
ENDCHAR
STARTCHAR uni4EC3
ENCODING 20163
SWIDTH 1000 0
DWIDTH 16 0
BBX 16 16 0 -2
BITMAP
0400
0400
0DFF
0810
1810
1010
1010
3010
7010
D010
1010
1010
1010
1010
1010
1070
ENDCHAR
STARTCHAR uni4EC4
ENCODING 20164
SWIDTH 1000 0
DWIDTH 16 0
BBX 15 15 0 -1
BITMAP
3FFE
2000
2080
2080
2080
2080
2080
2080
2080
20C0
2140
2120
4210
4408
9804
ENDCHAR
STARTCHAR uni4EC6
ENCODING 20166
SWIDTH 1000 0
DWIDTH 16 0
BBX 16 16 0 -2
BITMAP
0420
0420
0C20
0820
1820
3020
7038
D02E
1023
1020
1020
1020
1020
1020
1020
1020
ENDCHAR
STARTCHAR uni4EC7
ENCODING 20167
SWIDTH 1000 0
DWIDTH 16 0
BBX 16 16 0 -2
BITMAP
0880
0880
1880
1080
37F8
2088
6088
A088
2088
2088
2088
2188
2108
2309
2609
2C07
ENDCHAR
STARTCHAR uni4EC8
ENCODING 20168
SWIDTH 1000 0
DWIDTH 16 0
BBX 16 16 0 -2
BITMAP
0400
04F8
0C08
0808
1888
1088
3088
7088
D088
1088
118C
1104
1104
1306
1202
1603
ENDCHAR
STARTCHAR uni4ECA
ENCODING 20170
SWIDTH 1000 0
DWIDTH 16 0
BBX 16 16 0 -2
BITMAP
0100
0380
0280
06C0
0C60
1830
37DC
E007
0000
1FF0
0010
0030
0020
0060
00C0
0080
ENDCHAR
STARTCHAR uni4ECB
ENCODING 20171
SWIDTH 1000 0
DWIDTH 16 0
BBX 16 16 0 -2
BITMAP
0100
0380
06C0
0C60
1830
381C
E817
0810
0810
0810
0810
0810
1810
1010
3010
6010
ENDCHAR
STARTCHAR uni4ECD
ENCODING 20173
SWIDTH 1000 0
DWIDTH 16 0
BBX 15 15 0 -1
BITMAP
1000
17F8
1108
2108
2110
4110
6120
A13E
2102
2102
2202
2202
2402
2404
2818
ENDCHAR
STARTCHAR uni4ECE
ENCODING 20174
SWIDTH 1000 0
DWIDTH 16 0
BBX 16 16 0 -2
BITMAP
0810
0810
0810
0810
0810
0810
0810
0810
1C10
1438
1628
3228
236C
6144
C0C6
0183
ENDCHAR
STARTCHAR uni4ECF
ENCODING 20175
SWIDTH 1000 0
DWIDTH 16 0
BBX 16 16 0 -2
BITMAP
0840
0840
1840
1040
30C0
2080
6080
A080
2080
2084
2184
2106
2102
213E
23E3
2601
ENDCHAR
STARTCHAR uni4ED0
ENCODING 20176
SWIDTH 1000 0
DWIDTH 16 0
BBX 16 16 0 -2
BITMAP
0100
0380
02C0
0660
0C30
1818
310C
E107
0100
0100
FFFF
0100
0100
0100
0100
0100
ENDCHAR
STARTCHAR uni4ED4
ENCODING 20180
SWIDTH 1000 0
DWIDTH 16 0
BBX 16 16 0 -2
BITMAP
0800
0BFE
180C
1018
3020
2020
6020
A7FF
2020
2020
2020
2020
2020
2020
2020
20E0
ENDCHAR
STARTCHAR uni4ED5
ENCODING 20181
SWIDTH 1000 0
DWIDTH 16 0
BBX 16 16 0 -2
BITMAP
0840
0840
1840
1040
3040
2FFF
6040
A040
2040
2040
2040
2040
2040
2040
27FE
2000
ENDCHAR
STARTCHAR uni4ED6
ENCODING 20182
SWIDTH 1000 0
DWIDTH 16 0
BBX 15 15 0 -1
BITMAP
0840
0A40
1240
124C
2274
23C4
6E44
A244
2244
2244
2248
2200
2202
2202
21FE
ENDCHAR
STARTCHAR uni4ED7
ENCODING 20183
SWIDTH 1000 0
DWIDTH 16 0
BBX 15 15 0 -1
BITMAP
1020
1020
1020
2020
2FFE
4020
6220
A220
2220
2140
2080
20C0
2120
2218
2C06
ENDCHAR
STARTCHAR uni4ED8
ENCODING 20184
SWIDTH 1000 0
DWIDTH 16 0
BBX 15 15 0 -1
BITMAP
0810
0810
1010
1010
27FE
2010
6010
6410
A210
2110
2010
2010
2010
2010
2070
ENDCHAR
STARTCHAR uni4ED9
ENCODING 20185
SWIDTH 1000 0
DWIDTH 16 0
BBX 15 16 0 -2
BITMAP
0820
0820
1820
1020
3222
2222
6222
A222
2222
2222
2222
2222
2222
2222
23FE
2000
ENDCHAR
STARTCHAR uni4EDA
ENCODING 20186
SWIDTH 1000 0
DWIDTH 16 0
BBX 16 15 0 -1
BITMAP
0100
0380
02C0
0660
0C30
1818
300C
E107
0100
0100
4102
4102
4102
4102
7FFE
ENDCHAR
STARTCHAR uni4EDB
ENCODING 20187
SWIDTH 1000 0
DWIDTH 16 0
BBX 16 16 0 -2
BITMAP
0406
043C
0DE0
0820
1820
1020
3020
73FF
D020
1020
1020
1020
1020
1021
1033
101E
ENDCHAR
STARTCHAR uni4EDD
ENCODING 20189
SWIDTH 1000 0
DWIDTH 16 0
BBX 16 15 0 -1
BITMAP
0100
0380
06C0
0C60
1830
301C
E007
0000
3FFC
0100
0100
0100
0100
0100
FFFF
ENDCHAR
STARTCHAR uni4EDE
ENCODING 20190
SWIDTH 1000 0
DWIDTH 16 0
BBX 15 16 0 -2
BITMAP
0800
0BFE
1842
1042
3042
2042
6342
A1C2
20C2
20E2
20B2
2092
2186
2104
2304
261C
ENDCHAR
STARTCHAR uni4EDF
ENCODING 20191
SWIDTH 1000 0
DWIDTH 16 0
BBX 15 15 0 -1
BITMAP
1004
1018
10E0
2740
2040
4040
6040
AFFE
2040
2040
2040
2040
2040
2040
2040
ENDCHAR
STARTCHAR uni4EE0
ENCODING 20192
SWIDTH 1000 0
DWIDTH 16 0
BBX 16 16 0 -2
BITMAP
0400
04FE
0C10
0810
1810
1010
3010
71FF
D010
1010
1010
1010
1010
1010
1010
1010
ENDCHAR
STARTCHAR uni4EE1
ENCODING 20193
SWIDTH 1000 0
DWIDTH 16 0
BBX 16 16 0 -2
BITMAP
0880
0880
1880
11FF
3100
2300
66FC
A018
2030
2060
20C0
2180
2300
2201
2303
21FE
ENDCHAR
STARTCHAR uni4EE2
ENCODING 20194
SWIDTH 1000 0
DWIDTH 16 0
BBX 15 15 0 -1
BITMAP
0480
0480
0C80
08FE
1982
1102
3302
7062
D032
1012
1002
1002
1006
1004
101C
ENDCHAR
STARTCHAR uni4EE3
ENCODING 20195
SWIDTH 1000 0
DWIDTH 16 0
BBX 15 15 0 -1
BITMAP
0890
0888
1084
1080
2080
2FFE
6080
A080
2040
2040
2020
2022
2012
200A
2006
ENDCHAR
STARTCHAR uni4EE4
ENCODING 20196
SWIDTH 1000 0
DWIDTH 16 0
BBX 16 16 0 -2
BITMAP
0100
0380
06C0
0C60
1830
301C
EFE7
0000
0000
7FFC
0104
0104
0104
011C
0100
0100
ENDCHAR
STARTCHAR uni4EE5
ENCODING 20197
SWIDTH 1000 0
DWIDTH 16 0
BBX 15 14 0 -1
BITMAP
2208
2108
2108
2088
2090
2010
2010
2020
2120
2650
3888
C104
0202
0402
ENDCHAR
STARTCHAR uni4EE8
ENCODING 20200
SWIDTH 1000 0
DWIDTH 16 0
BBX 16 16 0 -2
BITMAP
0400
05FE
0C00
0800
1800
1000
3000
70FC
D000
1000
1000
1000
1000
1000
13FF
1000
ENDCHAR
STARTCHAR uni4EEB
ENCODING 20203
SWIDTH 1000 0
DWIDTH 16 0
BBX 16 16 0 -2
BITMAP
0440
0440
0CC0
0888
1888
1198
3310
7230
D020
1060
1044
10C4
1086
1182
111E
13F3
ENDCHAR
STARTCHAR uni4EED
ENCODING 20205
SWIDTH 1000 0
DWIDTH 16 0
BBX 16 16 0 -2
BITMAP
0800
0BFC
1844
1044
3044
2244
6344
A1C4
20C4
20E4
20B4
209C
218E
210B
2308
2638
ENDCHAR
STARTCHAR uni4EEE
ENCODING 20206
SWIDTH 1000 0
DWIDTH 16 0
BBX 16 16 0 -2
BITMAP
0800
0BFE
1A00
1200
3200
23FC
6284
A28C
22C8
2258
2270
2620
2470
2CD8
218C
2307
ENDCHAR
STARTCHAR uni4EEF
ENCODING 20207
SWIDTH 1000 0
DWIDTH 16 0
BBX 16 16 0 -2
BITMAP
0820
0820
1820
1124
3124
2326
6222
A623
2024
20E4
200C
2008
2018
2030
2060
21C0
ENDCHAR
STARTCHAR uni4EF0
ENCODING 20208
SWIDTH 1000 0
DWIDTH 16 0
BBX 16 16 0 -2
BITMAP
10C0
1180
373F
2421
2421
6421
6421
A421
2421
2421
2421
25A1
2727
2C20
2020
2020
ENDCHAR
STARTCHAR uni4EF1
ENCODING 20209
SWIDTH 1000 0
DWIDTH 16 0
BBX 16 15 0 -1
BITMAP
0820
0870
1850
10D8
318C
2306
66FB
A000
2000
21FC
2004
200C
2008
2010
2030
ENDCHAR
STARTCHAR uni4EF2
ENCODING 20210
SWIDTH 1000 0
DWIDTH 16 0
BBX 14 15 0 -1
BITMAP
1040
1040
1040
2040
27FC
6444
6444
A444
A444
27FC
2444
2040
2040
2040
2040
ENDCHAR
STARTCHAR uni4EF3
ENCODING 20211
SWIDTH 1000 0
DWIDTH 16 0
BBX 16 16 0 -2
BITMAP
0510
0510
0D10
0910
1911
1113
31DE
7110
D110
1110
1110
1110
1110
1111
11DB
170E
ENDCHAR
STARTCHAR uni4EF5
ENCODING 20213
SWIDTH 1000 0
DWIDTH 16 0
BBX 16 16 0 -2
BITMAP
0440
0440
0C40
08FE
1890
1190
3010
7010
D1FF
1010
1010
1010
1010
1010
1010
1010
ENDCHAR
STARTCHAR uni4EF6
ENCODING 20214
SWIDTH 1000 0
DWIDTH 16 0
BBX 16 16 0 -2
BITMAP
0820
0920
1920
1120
33FE
2220
6620
A020
2020
27FF
2020
2020
2020
2020
2020
2020
ENDCHAR
STARTCHAR uni4EF7
ENCODING 20215
SWIDTH 1000 0
DWIDTH 16 0
BBX 15 15 0 -1
BITMAP
0840
08A0
1110
1110
2208
2404
6802
A110
2110
2110
2110
2210
2210
2410
2810
ENDCHAR
STARTCHAR uni4EFB
ENCODING 20219
SWIDTH 1000 0
DWIDTH 16 0
BBX 15 15 0 -1
BITMAP
0808
0830
11C0
1640
2040
2040
6040
AFFE
2040
2040
2040
2040
2040
27FC
2000
ENDCHAR
STARTCHAR uni4EFD
ENCODING 20221
SWIDTH 1000 0
DWIDTH 16 0
BBX 16 16 0 -2
BITMAP
0838
0888
1888
118C
3104
2306
6603
A1FC
2044
2044
2044
20C4
2084
210C
2308
2638
ENDCHAR
STARTCHAR uni4EFE
ENCODING 20222
SWIDTH 1000 0
DWIDTH 16 0
BBX 16 16 0 -2
BITMAP
0800
0BFE
1880
1080
3080
21F8
6108
A108
2308
2208
23F8
2010
2010
2010
27FF
2000
ENDCHAR
STARTCHAR uni4EFF
ENCODING 20223
SWIDTH 1000 0
DWIDTH 16 0
BBX 16 16 0 -2
BITMAP
0420
0420
0C20
09FF
1840
1040
3040
707E
D042
1042
1042
1042
10C2
1086
1184
131C
ENDCHAR
STARTCHAR uni4F00
ENCODING 20224
SWIDTH 1000 0
DWIDTH 16 0
BBX 16 16 0 -2
BITMAP
0438
0408
0C4C
08C4
1886
1182
3123
7320
D020
1060
1044
10C4
1086
1182
111E
13F3
ENDCHAR
STARTCHAR uni4F01
ENCODING 20225
SWIDTH 1000 0
DWIDTH 16 0
BBX 16 15 0 -1
BITMAP
0100
0380
02C0
0660
0C30
189C
3087
E880
08F8
0880
0880
0880
0880
0880
FFFF
ENDCHAR
STARTCHAR uni4F02
ENCODING 20226
SWIDTH 1000 0
DWIDTH 16 0
BBX 16 16 0 -2
BITMAP
0820
0820
1820
17FF
3020
2020
63FE
A222
2222
2222
2222
2222
2226
2020
2020
2020
ENDCHAR
STARTCHAR uni4F03
ENCODING 20227
SWIDTH 1000 0
DWIDTH 16 0
BBX 16 16 0 -2
BITMAP
0400
05FC
0C04
08C8
1870
1020
33FF
7021
D022
1024
1020
1020
1020
1020
1020
10E0
ENDCHAR
STARTCHAR uni4F08
ENCODING 20232
SWIDTH 1000 0
DWIDTH 16 0
BBX 16 16 0 -2
BITMAP
08C0
0860
1830
1010
3080
2080
6080
A080
2286
2282
2683
2481
2C84
2084
20CC
2078
ENDCHAR
STARTCHAR uni4F09
ENCODING 20233
SWIDTH 1000 0
DWIDTH 16 0
BBX 15 15 0 -1
BITMAP
0840
0840
1040
17FE
2000
2000
61F0
A110
2110
2110
2110
2210
2212
2412
280E
ENDCHAR
STARTCHAR uni4F0A
ENCODING 20234
SWIDTH 1000 0
DWIDTH 16 0
BBX 16 16 0 -2
BITMAP
0800
0BFE
1822
1022
3022
27FF
6022
A022
2022
23FE
2020
2020
2060
2040
20C0
2180
ENDCHAR
STARTCHAR uni4F0B
ENCODING 20235
SWIDTH 1000 0
DWIDTH 16 0
BBX 16 16 0 -2
BITMAP
0800
0BFC
1884
108C
3088
20FE
6082
A1C6
2144
216C
2338
2210
2638
2C6C
38C6
2383
ENDCHAR
STARTCHAR uni4F0C
ENCODING 20236
SWIDTH 1000 0
DWIDTH 16 0
BBX 16 16 0 -2
BITMAP
0400
05FF
0D00
0900
197C
1144
3144
7144
D144
1144
114C
1140
1340
1241
1663
103E
ENDCHAR
STARTCHAR uni4F0D
ENCODING 20237
SWIDTH 1000 0
DWIDTH 16 0
BBX 16 16 0 -2
BITMAP
1000
17FE
3040
2040
2040
6040
63F8
A088
2088
2088
2088
2188
2108
2108
2FFF
2000
ENDCHAR
STARTCHAR uni4F0E
ENCODING 20238
SWIDTH 1000 0
DWIDTH 16 0
BBX 16 16 0 -2
BITMAP
0820
0820
1820
17FF
3020
3020
53FC
9104
118C
10D8
1070
1020
1070
10D8
118C
1707
ENDCHAR
STARTCHAR uni4F0F
ENCODING 20239
SWIDTH 1000 0
DWIDTH 16 0
BBX 15 15 0 -1
BITMAP
1040
1048
1044
2044
2040
6FFE
6040
A040
A0A0
20A0
2110
2110
2208
2404
2802
ENDCHAR
STARTCHAR uni4F10
ENCODING 20240
SWIDTH 1000 0
DWIDTH 16 0
BBX 15 15 0 -1
BITMAP
08A0
0890
1088
1080
20FE
2F80
6088
A088
2048
2050
2020
2060
2092
210A
2206
ENDCHAR
STARTCHAR uni4F11
ENCODING 20241
SWIDTH 1000 0
DWIDTH 16 0
BBX 16 16 0 -2
BITMAP
0840
0840
1840
1040
3FFF
2150
6150
A150
2358
2248
264C
2C46
3843
2040
2040
2040
ENDCHAR
STARTCHAR uni4F12
ENCODING 20242
SWIDTH 1000 0
DWIDTH 16 0
BBX 16 16 0 -2
BITMAP
0406
041C
0DF0
0900
1900
11FF
3108
7108
D108
1108
1108
1308
1208
1608
1C08
1008
ENDCHAR
STARTCHAR uni4F15
ENCODING 20245
SWIDTH 1000 0
DWIDTH 16 0
BBX 16 16 0 -2
BITMAP
0420
0420
0C20
0BFE
1820
1020
3020
77FF
D020
1070
1050
10D8
1088
118C
1306
1603
ENDCHAR
STARTCHAR uni4F16
ENCODING 20246
SWIDTH 1000 0
DWIDTH 16 0
BBX 16 16 0 -2
BITMAP
0440
0440
0C40
0BFF
1840
1040
30FC
7084
D084
11CC
1148
1378
1630
1078
10CC
1387
ENDCHAR
STARTCHAR uni4F17
ENCODING 20247
SWIDTH 1000 0
DWIDTH 16 0
BBX 16 16 0 -2
BITMAP
0100
0380
02C0
0660
0C30
1818
300C
E817
0810
0810
1C38
1428
366C
63C6
C183
8101
ENDCHAR
STARTCHAR uni4F19
ENCODING 20249
SWIDTH 1000 0
DWIDTH 16 0
BBX 16 16 0 -2
BITMAP
0420
0420
0C22
0922
1926
1124
332C
7220
D070
1050
1050
10D8
1088
118C
1306
1603
ENDCHAR
STARTCHAR uni4F1A
ENCODING 20250
SWIDTH 1000 0
DWIDTH 16 0
BBX 16 16 0 -2
BITMAP
0100
0380
06C0
0C70
381C
E007
1FF8
0000
0000
FFFF
0400
0410
0C10
08F8
1F8C
7006
ENDCHAR
STARTCHAR uni4F1C
ENCODING 20252
SWIDTH 1000 0
DWIDTH 16 0
BBX 16 16 0 -2
BITMAP
0880
0880
1BF8
1088
3088
2189
6309
A607
2020
2020
27FF
2020
2020
2020
2020
2020
ENDCHAR
STARTCHAR uni4F1D
ENCODING 20253
SWIDTH 1000 0
DWIDTH 16 0
BBX 16 16 0 -2
BITMAP
0800
0BFE
1800
1000
3000
2000
67FF
A080
2080
2080
2188
210C
2104
213E
23E3
2601
ENDCHAR
STARTCHAR uni4F2E
ENCODING 20270
SWIDTH 1000 0
DWIDTH 16 0
BBX 16 16 0 -2
BITMAP
0A00
0A7E
1A22
1222
37A2
22B6
6294
A294
269C
2488
2588
271C
2114
23B6
22A2
2663
ENDCHAR
STARTCHAR uni4F2F
ENCODING 20271
SWIDTH 1000 0
DWIDTH 16 0
BBX 14 15 0 -1
BITMAP
1040
1040
1080
23FC
2204
6204
6204
A204
A3FC
2204
2204
2204
2204
23FC
2204
ENDCHAR
STARTCHAR uni4F30
ENCODING 20272
SWIDTH 1000 0
DWIDTH 16 0
BBX 16 16 0 -2
BITMAP
0820
0820
1820
1020
37FF
2020
6020
A020
2020
23FE
2202
2202
2202
2202
2202
23FE
ENDCHAR
STARTCHAR uni4F31
ENCODING 20273
SWIDTH 1000 0
DWIDTH 16 0
BBX 16 16 0 -2
BITMAP
0820
0870
1850
10D8
318C
2326
6623
A0A8
20A8
21AC
2124
2326
2222
2020
2020
20E0
ENDCHAR
STARTCHAR uni4F33
ENCODING 20275
SWIDTH 1000 0
DWIDTH 16 0
BBX 16 16 0 -2
BITMAP
0800
0A48
1A48
1248
3248
27FF
6248
A248
2248
2248
2278
2200
2200
2200
23FF
2000
ENDCHAR
STARTCHAR uni4F34
ENCODING 20276
SWIDTH 1000 0
DWIDTH 16 0
BBX 15 15 0 -1
BITMAP
1040
1250
1248
1244
2444
2840
67FC
A040
2040
2FFE
2040
2040
2040
2040
2040
ENDCHAR
STARTCHAR uni4F35
ENCODING 20277
SWIDTH 1000 0
DWIDTH 16 0
BBX 16 16 0 -2
BITMAP
0800
0800
1BFF
1249
3249
2249
6249
A249
22C9
228F
2381
2201
2201
2201
23FF
2000
ENDCHAR
STARTCHAR uni4F36
ENCODING 20278
SWIDTH 1000 0
DWIDTH 16 0
BBX 16 16 0 -2
BITMAP
0840
08E0
19B0
1318
360C
2DF7
6000
A000
27FE
2042
2042
2042
2042
204E
2040
2040
ENDCHAR
STARTCHAR uni4F37
ENCODING 20279
SWIDTH 1000 0
DWIDTH 16 0
BBX 15 16 0 -2
BITMAP
0420
0420
0C20
0820
1BFE
1222
3222
7222
D222
13FE
1222
1222
1222
1222
13FE
1000
ENDCHAR
STARTCHAR uni4F38
ENCODING 20280
SWIDTH 1000 0
DWIDTH 16 0
BBX 14 15 0 -1
BITMAP
0840
0840
1040
17FC
2444
2444
6444
A7FC
2444
2444
2444
27FC
2444
2040
2040
ENDCHAR
STARTCHAR uni4F39
ENCODING 20281
SWIDTH 1000 0
DWIDTH 16 0
BBX 16 16 0 -2
BITMAP
0400
05FC
0D04
0904
1904
11FC
3104
7104
D104
11FC
1104
1104
1104
1104
17FF
1000
ENDCHAR
STARTCHAR uni4F3A
ENCODING 20282
SWIDTH 1000 0
DWIDTH 16 0
BBX 14 15 0 -1
BITMAP
1000
17FC
1004
2004
27F4
4004
A004
23E4
2224
2224
2224
23E4
2004
2004
201C
ENDCHAR
STARTCHAR uni4F3B
ENCODING 20283
SWIDTH 1000 0
DWIDTH 16 0
BBX 16 16 0 -2
BITMAP
0800
0BFE
1820
10A8
31AC
2124
6124
A020
27FF
2020
2020
2020
2020
2020
2020
2020
ENDCHAR
STARTCHAR uni4F3C
ENCODING 20284
SWIDTH 1000 0
DWIDTH 16 0
BBX 15 15 0 -1
BITMAP
1008
1208
1208
1288
2248
2248
6248
A248
2208
2208
2288
2318
2624
2842
2082
ENDCHAR
STARTCHAR uni4F3D
ENCODING 20285
SWIDTH 1000 0
DWIDTH 16 0
BBX 14 15 0 -1
BITMAP
1200
1200
123C
2FA4
22A4
42A4
A2A4
A2A4
22A4
22A4
24A4
24A4
24A4
28BC
2B24
ENDCHAR
STARTCHAR uni4F3E
ENCODING 20286
SWIDTH 1000 0
DWIDTH 16 0
BBX 16 16 0 -2
BITMAP
0400
05FE
0C10
0810
1830
1020
3068
70EC
D1A6
1323
1020
1020
1020
1000
13FF
1000
ENDCHAR
STARTCHAR uni4F40
ENCODING 20288
SWIDTH 1000 0
DWIDTH 16 0
BBX 15 16 0 -2
BITMAP
0800
0BFC
1A04
1204
3204
2204
63FC
A200
2200
2200
23FE
2202
2202
2202
2202
23FE
ENDCHAR
STARTCHAR uni4F42
ENCODING 20290
SWIDTH 1000 0
DWIDTH 16 0
BBX 16 16 0 -2
BITMAP
0800
0BFE
1820
1020
1020
3120
2120
613E
A120
2120
2120
2120
2120
2120
27FF
2000
ENDCHAR
STARTCHAR uni4F43
ENCODING 20291
SWIDTH 1000 0
DWIDTH 16 0
BBX 15 16 0 -2
BITMAP
0800
0BFE
1A22
1222
3222
2222
6222
A3FE
2222
2222
2222
2222
2222
2222
23FE
2000
ENDCHAR
STARTCHAR uni4F46
ENCODING 20294
SWIDTH 1000 0
DWIDTH 16 0
BBX 15 15 0 -1
BITMAP
0800
0BF8
1208
1208
2208
2208
63F8
A208
2208
2208
2208
23F8
2000
2000
2FFE
ENDCHAR
STARTCHAR uni4F47
ENCODING 20295
SWIDTH 1000 0
DWIDTH 16 0
BBX 15 15 0 -1
BITMAP
1040
1040
17FE
2402
4402
6000
A7FE
2020
2020
2020
2020
2020
2020
2020
20E0
ENDCHAR
STARTCHAR uni4F48
ENCODING 20296
SWIDTH 1000 0
DWIDTH 16 0
BBX 16 16 0 -2
BITMAP
0440
0440
0C40
0BFF
1840
10D0
3090
71FF
D391
1691
1091
1091
1091
1093
1010
1010
ENDCHAR
STARTCHAR uni4F49
ENCODING 20297
SWIDTH 1000 0
DWIDTH 16 0
BBX 16 16 0 -2
BITMAP
0420
0420
0C20
0BFE
1820
1020
3020
7020
D7FF
1040
1040
10C4
1084
10BE
11E2
1303
ENDCHAR
STARTCHAR uni4F4B
ENCODING 20299
SWIDTH 1000 0
DWIDTH 16 0
BBX 15 16 0 -2
BITMAP
0800
0BFE
1842
1042
30C2
2086
6184
A31C
2000
21FE
2102
2102
2102
2102
2102
21FE
ENDCHAR
STARTCHAR uni4F4C
ENCODING 20300
SWIDTH 1000 0
DWIDTH 16 0
BBX 16 16 0 -2
BITMAP
0888
0888
1888
1088
308B
24EE
6488
A488
2488
2488
2488
2488
2488
24E9
278D
2C07
ENDCHAR
STARTCHAR uni4F4D
ENCODING 20301
SWIDTH 1000 0
DWIDTH 16 0
BBX 15 15 0 -1
BITMAP
0840
0840
1040
17FC
2000
2000
6408
A208
2208
2210
2110
2120
2020
2FFE
2000
ENDCHAR
STARTCHAR uni4F4E
ENCODING 20302
SWIDTH 1000 0
DWIDTH 16 0
BBX 15 15 0 -1
BITMAP
100C
13F0
1220
2220
2220
43FE
6220
A220
A220
2210
2212
23CA
2E04
2000
27FC
ENDCHAR
STARTCHAR uni4F4F
ENCODING 20303
SWIDTH 1000 0
DWIDTH 16 0
BBX 15 15 0 -1
BITMAP
1100
1080
1040
27FC
2040
6040
6040
A040
A040
23F8
2040
2040
2040
2040
2FFE
ENDCHAR
STARTCHAR uni4F50
ENCODING 20304
SWIDTH 1000 0
DWIDTH 16 0
BBX 15 15 0 -1
BITMAP
1080
1080
1080
2FFE
2100
4100
6100
A1FC
2220
2220
2420
2420
2820
2020
21FE
ENDCHAR
STARTCHAR uni4F51
ENCODING 20305
SWIDTH 1000 0
DWIDTH 16 0
BBX 15 15 0 -1
BITMAP
0880
0880
1080
17FE
2100
2100
6100
A200
23FC
2504
2904
2104
2104
21FC
2104
ENDCHAR
STARTCHAR uni4F52
ENCODING 20306
SWIDTH 1000 0
DWIDTH 16 0
BBX 16 16 0 -2
BITMAP
0840
0840
1840
13FC
3244
2244
6244
A244
2FFF
20A0
20B0
2190
2118
230C
2606
2C03
ENDCHAR
STARTCHAR uni4F53
ENCODING 20307
SWIDTH 1000 0
DWIDTH 16 0
BBX 16 16 0 -2
BITMAP
1040
1040
1040
3040
2FFF
2150
6150
A158
2348
224C
2244
2646
2DFB
2040
2040
2040
ENDCHAR
STARTCHAR uni4F54
ENCODING 20308
SWIDTH 1000 0
DWIDTH 16 0
BBX 16 16 0 -2
BITMAP
0420
0420
0C20
0820
183F
1020
3020
7020
D020
13FE
1202
1202
1202
1202
1202
13FE
ENDCHAR
STARTCHAR uni4F55
ENCODING 20309
SWIDTH 1000 0
DWIDTH 16 0
BBX 15 15 0 -1
BITMAP
1000
17FE
1008
2008
27C8
6448
6448
A448
A448
27C8
2408
2008
2008
2008
2018
ENDCHAR
STARTCHAR uni4F56
ENCODING 20310
SWIDTH 1000 0
DWIDTH 16 0
BBX 16 16 0 -2
BITMAP
08C0
0860
1820
1084
3084
208C
6088
A298
2296
22B3
26E1
24C0
2080
2382
2EC6
207C
ENDCHAR
STARTCHAR uni4F57
ENCODING 20311
SWIDTH 1000 0
DWIDTH 16 0
BBX 16 16 0 -2
BITMAP
0820
0820
1820
17FF
3401
2401
6080
A086
209C
20F0
2080
2080
2080
2081
20C3
207E
ENDCHAR
STARTCHAR uni4F58
ENCODING 20312
SWIDTH 1000 0
DWIDTH 16 0
BBX 16 16 0 -2
BITMAP
0100
0380
06C0
0C70
381C
E007
1FF0
0000
0000
7FFE
0100
1108
1108
310C
6106
0700
ENDCHAR
STARTCHAR uni4F59
ENCODING 20313
SWIDTH 1000 0
DWIDTH 16 0
BBX 16 16 0 -2
BITMAP
0100
0380
06C0
0C70
381C
E007
1FF0
0100
0100
7FFE
0100
1108
1108
310C
6106
0700
ENDCHAR
STARTCHAR uni4F5A
ENCODING 20314
SWIDTH 1000 0
DWIDTH 16 0
BBX 15 15 0 -1
BITMAP
0840
1240
1240
23FC
2240
6440
6840
A7FE
2040
20A0
2110
2208
2208
2404
2802
ENDCHAR
STARTCHAR uni4F5B
ENCODING 20315
SWIDTH 1000 0
DWIDTH 16 0
BBX 15 15 0 -1
BITMAP
1120
1120
2FFC
2124
4124
6FFC
A924
2920
2FFE
2922
2122
2222
222C
2420
2820
ENDCHAR
STARTCHAR uni4F5C
ENCODING 20316
SWIDTH 1000 0
DWIDTH 16 0
BBX 16 16 0 -2
BITMAP
0880
0880
1880
11FF
3120
2320
6620
A03E
2020
2020
2020
203E
2020
2020
2020
2020
ENDCHAR
STARTCHAR uni4F5D
ENCODING 20317
SWIDTH 1000 0
DWIDTH 16 0
BBX 15 15 0 -1
BITMAP
0900
0900
1900
13FE
3202
2602
61F2
A112
2112
2112
2112
21F2
2006
2004
201C
ENDCHAR
STARTCHAR uni4F5E
ENCODING 20318
SWIDTH 1000 0
DWIDTH 16 0
BBX 16 16 0 -2
BITMAP
0800
0BFE
1800
1000
3000
27FF
6040
A040
27FF
2084
2184
210C
23C8
2078
21CE
2703
ENDCHAR
STARTCHAR uni4F5F
ENCODING 20319
SWIDTH 1000 0
DWIDTH 16 0
BBX 16 16 0 -2
BITMAP
0480
0480
0CF8
0988
1B18
10B0
3060
70F0
D19C
1707
10E0
1030
1000
1018
1070
11C0
ENDCHAR
STARTCHAR uni4F60
ENCODING 20320
SWIDTH 1000 0
DWIDTH 16 0
BBX 16 16 0 -2
BITMAP
0480
0480
0C80
09FF
1911
1313
3012
7010
D092
1092
1092
1193
1111
1010
1010
1070
ENDCHAR
STARTCHAR uni4F63
ENCODING 20323
SWIDTH 1000 0
DWIDTH 16 0
BBX 15 16 0 -2
BITMAP
0800
0BFE
1A22
1222
3222
23FE
6222
A222
2222
23FE
2222
2222
2222
2222
2622
2426
ENDCHAR
STARTCHAR uni4F64
ENCODING 20324
SWIDTH 1000 0
DWIDTH 16 0
BBX 16 16 0 -2
BITMAP
0400
07FF
0C80
0880
1880
10FC
3084
7084
D0A4
10B4
1094
1084
1084
1085
10E5
1183
ENDCHAR
STARTCHAR uni4F69
ENCODING 20329
SWIDTH 1000 0
DWIDTH 16 0
BBX 15 15 0 -1
BITMAP
2000
2FF8
2808
2BE8
4888
4888
4BE8
AAA8
AAA8
2AA8
2AAA
2AAA
2AAA
2886
3082
ENDCHAR
STARTCHAR uni4F6A
ENCODING 20330
SWIDTH 1000 0
DWIDTH 16 0
BBX 16 16 0 -2
BITMAP
0800
0BFF
1A01
1201
3201
2279
6249
A249
2249
2249
2279
2201
2201
2201
23FF
2000
ENDCHAR
STARTCHAR uni4F6C
ENCODING 20332
SWIDTH 1000 0
DWIDTH 16 0
BBX 16 16 0 -2
BITMAP
0422
0422
0DFE
0824
182C
1028
33FF
7030
D060
11C6
135C
1070
1040
1041
1063
103E
ENDCHAR
STARTCHAR uni4F6E
ENCODING 20334
SWIDTH 1000 0
DWIDTH 16 0
BBX 16 16 0 -2
BITMAP
0420
0470
0C50
08D8
198C
1306
3603
71FC
D000
1000
11FC
1104
1104
1104
1104
11FC
ENDCHAR
STARTCHAR uni4F6F
ENCODING 20335
SWIDTH 1000 0
DWIDTH 16 0
BBX 16 16 0 -2
BITMAP
0904
098C
1888
17FF
3020
2020
6020
A3FE
2020
2020
2020
27FF
2020
2020
2020
2020
ENDCHAR
STARTCHAR uni4F70
ENCODING 20336
SWIDTH 1000 0
DWIDTH 16 0
BBX 15 15 0 -1
BITMAP
1000
17FE
1040
2040
2080
43FC
6204
A204
2204
23FC
2204
2204
2204
23FC
2204
ENDCHAR
STARTCHAR uni4F71
ENCODING 20337
SWIDTH 1000 0
DWIDTH 16 0
BBX 16 16 0 -2
BITMAP
0100
0380
06C0
0C70
381C
E007
0FF0
0000
0000
7FFE
0080
0080
10FC
1080
1080
FFFF
ENDCHAR
STARTCHAR uni4F73
ENCODING 20339
SWIDTH 1000 0
DWIDTH 16 0
BBX 15 15 0 -1
BITMAP
1040
1040
1040
27FC
2040
4040
6FFE
A040
2040
2040
27FC
2040
2040
2040
2FFE
ENDCHAR
STARTCHAR uni4F75
ENCODING 20341
SWIDTH 1000 0
DWIDTH 16 0
BBX 16 16 0 -2
BITMAP
0904
098C
1888
13FE
3088
2088
6088
A088
27FF
2088
2088
2088
2188
2108
2308
2608
ENDCHAR
STARTCHAR uni4F76
ENCODING 20342
SWIDTH 1000 0
DWIDTH 16 0
BBX 15 15 0 -1
BITMAP
1040
1040
1040
2FFE
2040
4040
A040
27FC
2000
23F8
2208
2208
2208
23F8
2208
ENDCHAR
STARTCHAR uni4F77
ENCODING 20343
SWIDTH 1000 0
DWIDTH 16 0
BBX 16 16 0 -2
BITMAP
0400
05FC
0D04
0904
19FC
1104
3104
71FC
D121
1133
1116
1118
1108
110C
11E6
1703
ENDCHAR
STARTCHAR uni4F78
ENCODING 20344
SWIDTH 1000 0
DWIDTH 16 0
BBX 16 16 0 -2
BITMAP
0806
083C
1BE0
1020
3020
2020
67FF
A020
2020
2020
23FE
2202
2202
2202
2202
23FE
ENDCHAR
STARTCHAR uni4F79
ENCODING 20345
SWIDTH 1000 0
DWIDTH 16 0
BBX 16 16 0 -2
BITMAP
0480
04FC
0D88
0910
1BFF
1100
3100
717C
D144
1144
1144
114C
1140
1141
1263
103E
ENDCHAR
STARTCHAR uni4F7A
ENCODING 20346
SWIDTH 1000 0
DWIDTH 16 0
BBX 16 15 0 -1
BITMAP
0800
10E0
1050
2088
6104
6202
A5FD
2820
2020
2020
21FC
2020
2020
2020
23FE
ENDCHAR
STARTCHAR uni4F7B
ENCODING 20347
SWIDTH 1000 0
DWIDTH 16 0
BBX 16 16 0 -2
BITMAP
0890
0890
1892
1496
3694
2290
6090
A090
209C
2396
2E93
2090
2190
2111
2313
260E
ENDCHAR
STARTCHAR uni4F7C
ENCODING 20348
SWIDTH 1000 0
DWIDTH 16 0
BBX 16 16 0 -2
BITMAP
0820
0820
1820
17FF
3088
218C
6306
A68B
2088
20D8
2070
2020
2070
20D8
218C
2707
ENDCHAR
STARTCHAR uni4F7D
ENCODING 20349
SWIDTH 1000 0
DWIDTH 16 0
BBX 16 16 0 -2
BITMAP
0840
0840
1840
107F
30C1
2E93
6192
A010
2010
2138
2628
2C28
206C
2044
20C6
2183
ENDCHAR
STARTCHAR uni4F7E
ENCODING 20350
SWIDTH 1000 0
DWIDTH 16 0
BBX 15 15 0 -1
BITMAP
0800
08B8
1088
1104
3202
35FC
5104
9104
11FC
1104
1104
11FC
1104
1104
110C
ENDCHAR
STARTCHAR uni4F7F
ENCODING 20351
SWIDTH 1000 0
DWIDTH 16 0
BBX 15 15 0 -1
BITMAP
1040
1040
17FE
2040
2040
47FC
6444
A444
27FC
2040
2140
2080
2140
2230
2C0E
ENDCHAR
STARTCHAR uni4F81
ENCODING 20353
SWIDTH 1000 0
DWIDTH 16 0
BBX 16 16 0 -2
BITMAP
0820
0920
1920
11FE
3320
2620
6020
A7FF
2088
2088
2088
2088
2188
2109
2309
2607
ENDCHAR
STARTCHAR uni4F82
ENCODING 20354
SWIDTH 1000 0
DWIDTH 16 0
BBX 16 16 0 -2
BITMAP
0820
0820
1820
17FF
3400
241E
64F0
A420
2420
243F
25E0
2420
2C20
2821
2833
201E
ENDCHAR
STARTCHAR uni4F83
ENCODING 20355
SWIDTH 1000 0
DWIDTH 16 0
BBX 15 15 0 -1
BITMAP
1000
17FC
1404
2404
2404
4404
A7FC
2000
2248
2248
2248
2248
244A
244A
284E
ENDCHAR
STARTCHAR uni4F84
ENCODING 20356
SWIDTH 1000 0
DWIDTH 16 0
BBX 15 15 0 -1
BITMAP
0800
13FE
1040
2080
2088
611C
63E2
A022
2020
21FC
2020
2020
2020
203E
23E0
ENDCHAR
STARTCHAR uni4F85
ENCODING 20357
SWIDTH 1000 0
DWIDTH 16 0
BBX 16 16 0 -2
BITMAP
0820
0820
1820
17FF
3040
20C8
6198
A312
21B6
2064
20CC
2198
2730
206C
21C6
2F03
ENDCHAR
STARTCHAR uni4F86
ENCODING 20358
SWIDTH 1000 0
DWIDTH 16 0
BBX 16 16 0 -2
BITMAP
0100
0100
FFFF
0100
1110
1110
3938
6D6C
C106
0380
0540
0D60
1930
311C
E107
0100
ENDCHAR
STARTCHAR uni4F88
ENCODING 20360
SWIDTH 1000 0
DWIDTH 16 0
BBX 15 15 0 -1
BITMAP
0880
10FC
1104
2688
2050
6060
A180
2E40
207E
2182
2644
2028
2030
20C0
2700
ENDCHAR
STARTCHAR uni4F89
ENCODING 20361
SWIDTH 1000 0
DWIDTH 16 0
BBX 16 16 0 -2
BITMAP
0820
0820
19FF
1048
3084
2303
60FC
A000
23FF
2040
2080
21FE
2002
2002
2006
201C
ENDCHAR
STARTCHAR uni4F8A
ENCODING 20362
SWIDTH 1000 0
DWIDTH 16 0
BBX 16 16 0 -2
BITMAP
0820
0A22
1B26
1124
3124
2020
6020
A7FF
2088
2088
2088
2088
2188
2109
2309
2607
ENDCHAR
STARTCHAR uni4F8B
ENCODING 20363
SWIDTH 1000 0
DWIDTH 16 0
BBX 14 15 0 -1
BITMAP
1004
17C4
1224
2224
2224
43A4
64A4
A4A4
2AA4
21A4
20A4
2124
2124
2204
240C
ENDCHAR
STARTCHAR uni4F8C
ENCODING 20364
SWIDTH 1000 0
DWIDTH 16 0
BBX 16 16 0 -2
BITMAP
0180
03C0
0E70
381C
E7E7
0000
0FF0
0020
0040
1FF8
0000
7FFE
0200
0410
08F8
1F8C
ENDCHAR
STARTCHAR uni4F8D
ENCODING 20365
SWIDTH 1000 0
DWIDTH 16 0
BBX 15 15 0 -1
BITMAP
1040
1040
1040
27FC
2040
6040
AFFE
2008
2008
2FFE
2008
2108
2088
2008
2038
ENDCHAR
STARTCHAR uni4F8E
ENCODING 20366
SWIDTH 1000 0
DWIDTH 16 0
BBX 15 16 0 -2
BITMAP
0420
0420
0D24
09A4
18AC
10A8
3020
73FE
D020
1070
1070
10A8
10A8
1124
1222
1020
ENDCHAR
STARTCHAR uni4F8F
ENCODING 20367
SWIDTH 1000 0
DWIDTH 16 0
BBX 15 15 0 -1
BITMAP
1040
1240
1240
23FC
2440
4840
6040
AFFE
A040
20E0
2150
2248
2444
2842
2040
ENDCHAR
STARTCHAR uni4F90
ENCODING 20368
SWIDTH 1000 0
DWIDTH 16 0
BBX 16 16 0 -2
BITMAP
0420
0460
0C40
09FC
1954
1154
3154
7154
D154
1154
1154
1154
1154
1154
17FF
1000
ENDCHAR
STARTCHAR uni4F91
ENCODING 20369
SWIDTH 1000 0
DWIDTH 16 0
BBX 15 15 0 -1
BITMAP
1080
1080
27FE
2100
4200
63FC
A604
2A04
33FC
2204
2204
23FC
2204
2204
221C
ENDCHAR
STARTCHAR uni4F92
ENCODING 20370
SWIDTH 1000 0
DWIDTH 16 0
BBX 16 16 0 -2
BITMAP
0420
0420
0C20
0BFF
1A01
1241
3040
73FF
D044
1084
108C
11E8
1018
103C
10E6
1382
ENDCHAR
STARTCHAR uni4F93
ENCODING 20371
SWIDTH 1000 0
DWIDTH 16 0
BBX 16 16 0 -2
BITMAP
0820
0BFE
1822
1022
37FF
2022
6022
A3FE
2020
2020
23FE
2020
2020
27FF
2020
2020
ENDCHAR
STARTCHAR uni4F94
ENCODING 20372
SWIDTH 1000 0
DWIDTH 16 0
BBX 16 16 0 -2
BITMAP
0880
0888
1988
113C
33E6
2000
6020
A120
21FE
2320
2020
27FF
2020
2020
2020
2020
ENDCHAR
STARTCHAR uni4F96
ENCODING 20374
SWIDTH 1000 0
DWIDTH 16 0
BBX 16 16 0 -2
BITMAP
0100
0380
06C0
0C70
381C
E7E7
0000
0000
3FFC
2444
2444
3FFC
2444
2444
2444
244C
ENDCHAR
STARTCHAR uni4F97
ENCODING 20375
SWIDTH 1000 0
DWIDTH 16 0
BBX 15 16 0 -2
BITMAP
0800
0BFE
1A02
1202
32FA
2202
6202
A2FA
228A
228A
228A
22FA
2202
2202
2202
220E
ENDCHAR
STARTCHAR uni4F98
ENCODING 20376
SWIDTH 1000 0
DWIDTH 16 0
BBX 15 15 0 -1
BITMAP
0820
1020
13FE
2202
2202
6004
61F8
A020
2020
23FE
2020
2020
2022
2022
201E
ENDCHAR
STARTCHAR uni4F99
ENCODING 20377
SWIDTH 1000 0
DWIDTH 16 0
BBX 16 16 0 -2
BITMAP
0410
0414
0C16
0812
1BFF
1010
3010
77D0
D118
1108
1108
1108
11CC
1705
1007
1002
ENDCHAR
STARTCHAR uni4F9A
ENCODING 20378
SWIDTH 1000 0
DWIDTH 16 0
BBX 15 15 0 -1
BITMAP
0900
0900
19FE
1302
3202
25F2
6112
A112
21F2
2112
2112
2112
21F2
2004
201C
ENDCHAR
STARTCHAR uni4F9B
ENCODING 20379
SWIDTH 1000 0
DWIDTH 16 0
BBX 15 15 0 -1
BITMAP
1110
1110
1110
27FC
2110
6110
6110
A110
AFFE
2000
2110
2108
2208
2204
2404
ENDCHAR
STARTCHAR uni4F9D
ENCODING 20381
SWIDTH 1000 0
DWIDTH 16 0
BBX 15 15 0 -1
BITMAP
1040
1040
1040
2FFE
2080
4080
6124
A228
2630
2A20
2210
2208
2248
2384
2C02
ENDCHAR
STARTCHAR uni4F9E
ENCODING 20382
SWIDTH 1000 0
DWIDTH 16 0
BBX 16 16 0 -2
BITMAP
1100
1100
110F
3109
2FE9
6229
6229
A269
2649
2449
24C9
2789
21C9
2369
262F
2C00
ENDCHAR
STARTCHAR uni4F9F
ENCODING 20383
SWIDTH 1000 0
DWIDTH 16 0
BBX 16 16 0 -2
BITMAP
0840
0840
1BFF
1040
30C0
20BE
6182
A104
2308
257F
2908
2108
2108
2108
2108
2138
ENDCHAR
STARTCHAR uni4FA0
ENCODING 20384
SWIDTH 1000 0
DWIDTH 16 0
BBX 16 16 0 -2
BITMAP
1040
1040
37FE
2040
2444
664C
6248
A248
2040
2FFF
20A0
21B0
2118
230C
2606
2C03
ENDCHAR
STARTCHAR uni4FA1
ENCODING 20385
SWIDTH 1000 0
DWIDTH 16 0
BBX 16 16 0 -2
BITMAP
0800
0800
1FFF
1090
3090
2090
67FE
A492
2492
2492
2492
2492
2492
2492
27FE
2000
ENDCHAR
STARTCHAR uni4FAB
ENCODING 20395
SWIDTH 1000 0
DWIDTH 16 0
BBX 16 16 0 -2
BITMAP
0820
0820
1BFF
1200
3200
2200
61FE
A000
2040
27FF
2084
210C
23C8
2078
21CE
2703
ENDCHAR
STARTCHAR uni4FAD
ENCODING 20397
SWIDTH 1000 0
DWIDTH 16 0
BBX 16 16 0 -2
BITMAP
0800
0BFC
1A04
1204
3204
23FC
6210
A218
2608
25CC
2C76
3813
2380
20E0
2038
2008
ENDCHAR
STARTCHAR uni4FAE
ENCODING 20398
SWIDTH 1000 0
DWIDTH 16 0
BBX 15 15 0 -1
BITMAP
1200
13FE
2400
2800
43F8
6288
A248
A248
2FFE
2488
2448
2448
27FE
2808
2070
ENDCHAR
STARTCHAR uni4FAF
ENCODING 20399
SWIDTH 1000 0
DWIDTH 16 0
BBX 16 16 0 -2
BITMAP
0800
0BF8
1808
1008
37FF
2100
6100
A3FC
2640
2040
2FFF
20A0
20B0
2198
230C
2E07
ENDCHAR
STARTCHAR uni4FB2
ENCODING 20402
SWIDTH 1000 0
DWIDTH 16 0
BBX 16 16 0 -2
BITMAP
0800
0BFF
1A00
1200
32FE
2200
6200
A3FF
2248
2249
224B
224A
264C
2444
2C76
21C3
ENDCHAR
STARTCHAR uni4FB5
ENCODING 20405
SWIDTH 1000 0
DWIDTH 16 0
BBX 15 15 0 -1
BITMAP
1000
17FC
1004
2FFE
2004
47FC
6000
AFFE
A802
2BFA
2108
2090
2060
2198
2606
ENDCHAR
STARTCHAR uni4FB6
ENCODING 20406
SWIDTH 1000 0
DWIDTH 16 0
BBX 15 16 0 -2
BITMAP
0800
0BFC
1A04
1204
3204
2204
63FC
A040
20C0
2080
27FE
2402
2402
2402
2402
27FE
ENDCHAR
STARTCHAR uni4FB7
ENCODING 20407
SWIDTH 1000 0
DWIDTH 16 0
BBX 16 16 0 -2
BITMAP
0400
05FE
0D02
0902
19FE
1100
3100
71FF
D101
1179
1149
1349
1249
127B
1402
100E
ENDCHAR
STARTCHAR uni4FB9
ENCODING 20409
SWIDTH 1000 0
DWIDTH 16 0
BBX 16 16 0 -2
BITMAP
1003
178E
1178
3108
2308
6208
67FF
A088
2888
2588
2508
2708
227F
2700
25C0
2C7F
ENDCHAR
STARTCHAR uni4FBB
ENCODING 20411
SWIDTH 1000 0
DWIDTH 16 0
BBX 16 16 0 -2
BITMAP
0438
0408
0CCC
0986
1B03
11FE
3102
7102
D102
11FE
1048
1048
1048
10C9
1089
1387
ENDCHAR
STARTCHAR uni4FBC
ENCODING 20412
SWIDTH 1000 0
DWIDTH 16 0
BBX 16 16 0 -2
BITMAP
0820
0820
1BFE
1020
3020
23FE
6202
A202
21FC
2008
2010
27FF
2020
2020
2020
20E0
ENDCHAR
STARTCHAR uni4FBD
ENCODING 20413
SWIDTH 1000 0
DWIDTH 16 0
BBX 15 16 0 -2
BITMAP
0800
0BFE
1A22
1222
33FE
2222
6222
A3FE
2000
2040
23FE
2042
20C2
2086
2184
271C
ENDCHAR
STARTCHAR uni4FBE
ENCODING 20414
SWIDTH 1000 0
DWIDTH 16 0
BBX 16 16 0 -2
BITMAP
0420
0422
0DFE
0824
1828
13FF
3020
7040
D1FC
1608
1010
13FF
1010
1010
1010
1070
ENDCHAR
STARTCHAR uni4FBF
ENCODING 20415
SWIDTH 1000 0
DWIDTH 16 0
BBX 15 15 0 -1
BITMAP
1000
17FE
1040
27FC
2444
2444
47FC
6444
A444
A7FC
2040
2140
20C0
2330
2C0E
ENDCHAR
STARTCHAR uni4FC0
ENCODING 20416
SWIDTH 1000 0
DWIDTH 16 0
BBX 16 16 0 -2
BITMAP
0806
083C
1BE0
1048
316C
2326
6242
A040
27FF
2088
2188
2118
23D0
2078
20CC
2386
ENDCHAR
STARTCHAR uni4FC1
ENCODING 20417
SWIDTH 1000 0
DWIDTH 16 0
BBX 16 16 0 -2
BITMAP
0400
047C
0D44
0944
1944
117C
3100
7100
D1FE
1022
1022
13FF
1050
10D8
118C
1306
ENDCHAR
STARTCHAR uni4FC2
ENCODING 20418
SWIDTH 1000 0
DWIDTH 16 0
BBX 15 15 0 -1
BITMAP
1018
10E0
1740
2040
2490
4320
6148
A084
A7FE
2042
2248
2244
2444
2442
2842
ENDCHAR
STARTCHAR uni4FC3
ENCODING 20419
SWIDTH 1000 0
DWIDTH 16 0
BBX 15 15 0 -1
BITMAP
1000
17FC
1404
2404
6404
67FC
A040
2040
2240
227C
2240
2240
2340
24C0
283E
ENDCHAR
STARTCHAR uni4FC4
ENCODING 20420
SWIDTH 1000 0
DWIDTH 16 0
BBX 15 15 0 -1
BITMAP
11A0
1628
1224
2224
2220
4FFE
6220
A224
A224
23A8
2E28
2212
222A
2246
2682
ENDCHAR
STARTCHAR uni4FC5
ENCODING 20421
SWIDTH 1000 0
DWIDTH 16 0
BBX 16 16 0 -2
BITMAP
0824
0826
1822
17FF
3020
2222
6326
A12C
2020
2030
20B8
21AC
2326
2223
2020
20E0
ENDCHAR
STARTCHAR uni4FC6
ENCODING 20422
SWIDTH 1000 0
DWIDTH 16 0
BBX 16 16 0 -2
BITMAP
0820
0870
1850
10D8
318C
2306
66FB
A020
2020
23FE
2020
2124
2124
2326
2623
20E0
ENDCHAR
STARTCHAR uni4FC8
ENCODING 20424
SWIDTH 1000 0
DWIDTH 16 0
BBX 16 16 0 -2
BITMAP
0820
0920
1920
13FE
3220
2420
6020
A7FF
2020
2000
23FE
2202
2202
2202
2202
23FE
ENDCHAR
STARTCHAR uni4FC9
ENCODING 20425
SWIDTH 1000 0
DWIDTH 16 0
BBX 16 16 0 -2
BITMAP
0800
0BFF
1820
1020
31FC
2044
6044
A044
23FF
2000
21FE
2102
2102
2102
2102
21FE
ENDCHAR
STARTCHAR uni4FCA
ENCODING 20426
SWIDTH 1000 0
DWIDTH 16 0
BBX 15 15 0 -1
BITMAP
1080
1090
1108
2FFC
2120
4122
6222
AD1E
21F8
2208
2510
28A0
2040
21B0
260E
ENDCHAR
STARTCHAR uni4FCB
ENCODING 20427
SWIDTH 1000 0
DWIDTH 16 0
BBX 16 16 0 -2
BITMAP
0400
05FC
0D04
0904
19FC
1000
33FE
7222
D222
1222
13FE
1200
1200
1201
1303
11FE
ENDCHAR
STARTCHAR uni4FCC
ENCODING 20428
SWIDTH 1000 0
DWIDTH 16 0
BBX 16 16 0 -2
BITMAP
0824
0822
1BFF
1020
3020
23FE
6222
A222
23FE
2222
2222
23FE
2222
2222
2222
2226
ENDCHAR
STARTCHAR uni4FCD
ENCODING 20429
SWIDTH 1000 0
DWIDTH 16 0
BBX 16 16 0 -2
BITMAP
0420
0420
0DFC
0904
1904
11FC
3104
7104
D1FD
1113
1116
1118
1108
110C
11E6
1703
ENDCHAR
STARTCHAR uni4FCE
ENCODING 20430
SWIDTH 1000 0
DWIDTH 16 0
BBX 16 15 0 -1
BITMAP
1000
10FC
1084
3884
6C84
C6FC
0084
1084
1084
10FC
3884
6C84
C684
0084
03FF
ENDCHAR
STARTCHAR uni4FCF
ENCODING 20431
SWIDTH 1000 0
DWIDTH 16 0
BBX 15 16 0 -2
BITMAP
0820
0924
1B26
1222
3020
23FE
6202
A202
23FE
2202
2202
23FE
2202
2202
2202
220E
ENDCHAR
STARTCHAR uni4FD0
ENCODING 20432
SWIDTH 1000 0
DWIDTH 16 0
BBX 15 16 0 -2
BITMAP
1042
11D2
3712
2112
6112
6FD2
A112
2112
2392
2352
2552
2512
2902
2102
2102
210E
ENDCHAR
STARTCHAR uni4FD1
ENCODING 20433
SWIDTH 1000 0
DWIDTH 16 0
BBX 15 16 0 -2
BITMAP
0800
0BFC
1808
10D0
3020
23FE
6222
A222
23FE
2222
2222
23FE
2222
2222
2222
2226
ENDCHAR
STARTCHAR uni4FD2
ENCODING 20434
SWIDTH 1000 0
DWIDTH 16 0
BBX 16 16 0 -2
BITMAP
1040
1040
17FE
3402
2402
61F8
6000
A000
27FE
2090
2090
2090
2190
2111
2313
260E
ENDCHAR
STARTCHAR uni4FD3
ENCODING 20435
SWIDTH 1000 0
DWIDTH 16 0
BBX 15 15 0 -1
BITMAP
1000
17FE
1124
2248
2490
4920
A490
2248
2124
2000
27FC
2040
2040
2040
2FFE
ENDCHAR
STARTCHAR uni4FD4
ENCODING 20436
SWIDTH 1000 0
DWIDTH 16 0
BBX 16 16 0 -2
BITMAP
0800
0BFC
1A04
1204
33FC
2204
6204
A3FC
2204
2204
23FC
2090
2090
2191
2313
2E0E
ENDCHAR
STARTCHAR uni4FD7
ENCODING 20439
SWIDTH 1000 0
DWIDTH 16 0
BBX 15 15 0 -1
BITMAP
1000
1110
1208
2404
2842
60A0
6110
A208
A404
2802
23F8
2208
2208
2208
23F8
ENDCHAR
STARTCHAR uni4FD8
ENCODING 20440
SWIDTH 1000 0
DWIDTH 16 0
BBX 16 16 0 -2
BITMAP
0806
083C
1BE4
1246
3663
2421
63FE
A00C
2018
2020
27FF
2020
2020
2020
2020
20E0
ENDCHAR
STARTCHAR uni4FDA
ENCODING 20442
SWIDTH 1000 0
DWIDTH 16 0
BBX 15 15 0 -1
BITMAP
1000
17FC
1444
2444
27FC
4444
6444
A7FC
2040
2040
2040
27FC
2040
2040
2FFE
ENDCHAR
STARTCHAR uni4FDB
ENCODING 20443
SWIDTH 1000 0
DWIDTH 16 0
BBX 16 16 0 -2
BITMAP
0900
09F8
1908
1318
3610
23FE
6222
A222
2222
23FE
2090
2090
2190
2111
2313
260E
ENDCHAR
STARTCHAR uni4FDC
ENCODING 20444
SWIDTH 1000 0
DWIDTH 16 0
BBX 16 16 0 -2
BITMAP
0820
0820
1BFE
1222
33FE
2222
6222
A3FE
2000
27FF
2080
20FC
2004
2004
200C
2038
ENDCHAR
STARTCHAR uni4FDD
ENCODING 20445
SWIDTH 1000 0
DWIDTH 16 0
BBX 15 15 0 -1
BITMAP
1000
17FC
2404
2404
4404
67FC
A040
A040
2FFE
20E0
2150
2248
2444
2842
2040
ENDCHAR
STARTCHAR uni4FDF
ENCODING 20447
SWIDTH 1000 0
DWIDTH 16 0
BBX 15 15 0 -1
BITMAP
1080
1110
1208
27F4
2002
4200
A3FC
2440
2840
2040
2FFE
20A0
2110
2208
2C06
ENDCHAR
STARTCHAR uni4FE0
ENCODING 20448
SWIDTH 1000 0
DWIDTH 16 0
BBX 15 15 0 -1
BITMAP
1040
1040
17FC
2040
2248
6248
6248
A554
A8E2
2040
20A0
2110
2110
2208
2C06
ENDCHAR
STARTCHAR uni4FE1
ENCODING 20449
SWIDTH 1000 0
DWIDTH 16 0
BBX 15 15 0 -1
BITMAP
0800
0BF8
1000
17FE
2000
2000
63F8
A000
23F8
2000
2000
23FC
2204
2204
23FC
ENDCHAR
STARTCHAR uni4FE2
ENCODING 20450
SWIDTH 1000 0
DWIDTH 16 0
BBX 16 16 0 -2
BITMAP
0480
0480
0DFF
0904
1A8C
10D8
3070
71DC
D707
1060
11CC
1038
11E3
100E
1078
13C0
ENDCHAR
STARTCHAR uni4FE3
ENCODING 20451
SWIDTH 1000 0
DWIDTH 16 0
BBX 16 16 0 -2
BITMAP
0800
09FC
1904
1104
3104
21FC
6000
A3FE
2020
2020
27FF
2050
20D8
218C
2306
2603
ENDCHAR
STARTCHAR uni4FE4
ENCODING 20452
SWIDTH 1000 0
DWIDTH 16 0
BBX 16 16 0 -2
BITMAP
0904
098C
1888
17FE
3022
2022
67FE
A420
2420
27FF
2061
20A1
21A3
2322
2E2E
2020
ENDCHAR
STARTCHAR uni4FE5
ENCODING 20453
SWIDTH 1000 0
DWIDTH 16 0
BBX 16 16 0 -2
BITMAP
0820
0820
1FFF
1020
33FE
2222
6222
A3FE
2222
2222
23FE
2020
27FF
2020
2020
2020
ENDCHAR
STARTCHAR uni4FE6
ENCODING 20454
SWIDTH 1000 0
DWIDTH 16 0
BBX 16 16 0 -2
BITMAP
0820
0820
1BFE
1020
31FC
2020
63FE
A040
2044
27FF
2084
21A4
2134
2314
2604
201C
ENDCHAR
STARTCHAR uni4FEE
ENCODING 20462
SWIDTH 1000 0
DWIDTH 16 0
BBX 15 15 0 -1
BITMAP
1100
11FE
2288
2A88
6C50
6820
A8D8
AB06
2820
28C0
2B18
2860
2386
2018
21E0
ENDCHAR
STARTCHAR uni4FEF
ENCODING 20463
SWIDTH 1000 0
DWIDTH 16 0
BBX 15 15 0 -1
BITMAP
1040
1040
17FE
2400
2444
4444
A484
24BE
2504
26A4
2494
2494
2484
2884
209C
ENDCHAR
STARTCHAR uni4FF0
ENCODING 20464
SWIDTH 1000 0
DWIDTH 16 0
BBX 16 16 0 -2
BITMAP
1040
11C0
171F
3111
2111
6FF1
6111
A111
2391
2351
2751
2511
2D11
291F
2100
2100
ENDCHAR
STARTCHAR uni4FF1
ENCODING 20465
SWIDTH 1000 0
DWIDTH 16 0
BBX 15 15 0 -1
BITMAP
13F8
1208
1208
23F8
2208
4208
63F8
A208
2208
23F8
2208
2FFE
2210
2408
2804
ENDCHAR
STARTCHAR uni4FF2
ENCODING 20466
SWIDTH 1000 0
DWIDTH 16 0
BBX 16 16 0 -2
BITMAP
0908
0908
1908
1FE8
301F
2289
66C9
A449
2289
2289
2389
2109
2119
2393
22B2
26E6
ENDCHAR
STARTCHAR uni4FF3
ENCODING 20467
SWIDTH 1000 0
DWIDTH 16 0
BBX 15 15 0 -1
BITMAP
1120
1120
1120
2F3E
2120
4120
6120
A73C
A120
2120
2120
233E
2D20
2120
2220
ENDCHAR
STARTCHAR uni4FF5
ENCODING 20469
SWIDTH 1000 0
DWIDTH 16 0
BBX 15 15 0 -1
BITMAP
1080
1080
17FC
2080
67F8
A080
2080
2FFE
2140
2244
2648
2A30
2210
2248
2F86
ENDCHAR
STARTCHAR uni4FF6
ENCODING 20470
SWIDTH 1000 0
DWIDTH 16 0
BBX 16 16 0 -2
BITMAP
1200
127E
13A2
3222
2222
6236
7FD4
A214
221C
2A88
2A88
325C
2214
2236
2622
2063
ENDCHAR
STARTCHAR uni4FF8
ENCODING 20472
SWIDTH 1000 0
DWIDTH 16 0
BBX 15 15 0 -1
BITMAP
1040
1040
17FE
2040
23FC
60A0
6FFE
A110
A248
2444
2BFA
2040
27FC
2040
2040
ENDCHAR
STARTCHAR uni4FFA
ENCODING 20474
SWIDTH 1000 0
DWIDTH 16 0
BBX 16 16 0 -2
BITMAP
1080
1080
3FFF
2110
2150
6248
67FC
AC46
3445
27FC
2444
2444
27FC
2041
2063
203E
ENDCHAR
STARTCHAR uni4FFC
ENCODING 20476
SWIDTH 1000 0
DWIDTH 16 0
BBX 16 16 0 -2
BITMAP
0820
0820
1BFF
1040
3044
209E
61E2
A000
21FE
2102
21FE
2102
21FE
2102
2102
2106
ENDCHAR
STARTCHAR uni4FFD
ENCODING 20477
SWIDTH 1000 0
DWIDTH 16 0
BBX 16 16 0 -2
BITMAP
0890
0990
1F10
141F
3431
27EA
6488
A488
2488
2488
249C
2494
2494
2496
28B2
20A3
ENDCHAR
STARTCHAR uni4FFE
ENCODING 20478
SWIDTH 1000 0
DWIDTH 16 0
BBX 16 16 0 -2
BITMAP
0820
0840
1BFE
1222
3222
23FE
6222
A222
23FE
2090
2110
2FFF
2010
2010
2010
2010
ENDCHAR
STARTCHAR uni4FFF
ENCODING 20479
SWIDTH 1000 0
DWIDTH 16 0
BBX 16 16 0 -2
BITMAP
0820
083E
1820
13FF
3201
2222
6238
A2E0
2222
221E
2200
2248
2648
2449
2CC9
2187
ENDCHAR
STARTCHAR uni5000
ENCODING 20480
SWIDTH 1000 0
DWIDTH 16 0
BBX 16 16 0 -2
BITMAP
0400
05FE
0D00
09FC
1900
11FC
3100
7100
D7FF
1122
1136
1114
1118
110C
11E6
1703
ENDCHAR
STARTCHAR uni5001
ENCODING 20481
SWIDTH 1000 0
DWIDTH 16 0
BBX 16 16 0 -2
BITMAP
0900
0900
190F
13E9
3489
2089
6089
A7F9
2089
2089
2089
21C9
2149
236F
2630
2C00
ENDCHAR
STARTCHAR uni5002
ENCODING 20482
SWIDTH 1000 0
DWIDTH 16 0
BBX 15 15 0 -1
BITMAP
1084
1108
1210
27BE
2108
6108
A1C8
2F3E
2108
2108
2108
2208
2208
2408
2808
ENDCHAR
STARTCHAR uni5004
ENCODING 20484
SWIDTH 1000 0
DWIDTH 16 0
BBX 16 16 0 -2
BITMAP
0804
0B18
18E0
131C
3040
2FFF
6080
A1FC
2304
2DFC
2104
21FC
2104
2104
2104
211C
ENDCHAR
STARTCHAR uni5005
ENCODING 20485
SWIDTH 1000 0
DWIDTH 16 0
BBX 16 16 0 -2
BITMAP
0820
0820
1FFF
1000
3104
2104
628A
A451
2000
2020
27FF
2020
2020
2020
2020
2020
ENDCHAR
STARTCHAR uni5006
ENCODING 20486
SWIDTH 1000 0
DWIDTH 16 0
BBX 16 16 0 -2
BITMAP
1000
1FFF
1020
3020
27FF
6421
6421
A7BD
24A5
2529
25AD
2673
2421
2421
2421
2427
ENDCHAR
STARTCHAR uni5007
ENCODING 20487
SWIDTH 1000 0
DWIDTH 16 0
BBX 16 16 0 -2
BITMAP
0820
0820
1BFE
1202
3202
2100
61DE
A152
2352
2252
27D2
2C96
2190
2111
2313
260E
ENDCHAR
STARTCHAR uni5009
ENCODING 20489
SWIDTH 1000 0
DWIDTH 16 0
BBX 16 16 0 -2
BITMAP
0100
0380
06E0
1C38
F3CF
0000
1FF8
1008
1FF8
1008
1FF8
3000
2FFC
6804
C804
0FFC
ENDCHAR
STARTCHAR uni500A
ENCODING 20490
SWIDTH 1000 0
DWIDTH 16 0
BBX 16 16 0 -2
BITMAP
045C
0444
0CC6
09A3
1820
1064
3044
707E
D1C3
1010
1018
1048
1142
1143
1365
123C
ENDCHAR
STARTCHAR uni500B
ENCODING 20491
SWIDTH 1000 0
DWIDTH 16 0
BBX 15 16 0 -2
BITMAP
1000
17FE
3402
2442
2442
65FA
6442
A442
24F2
2492
2492
2492
24F2
2402
27FE
2000
ENDCHAR
STARTCHAR uni500C
ENCODING 20492
SWIDTH 1000 0
DWIDTH 16 0
BBX 16 16 0 -2
BITMAP
0820
0820
1BFF
1201
3201
20FC
6084
A084
20FC
2080
2080
20FE
2082
2082
2082
20FE
ENDCHAR
STARTCHAR uni500D
ENCODING 20493
SWIDTH 1000 0
DWIDTH 16 0
BBX 15 15 0 -1
BITMAP
1040
1040
17FC
2008
2208
4110
6110
AFFE
A000
23F8
2208
2208
2208
2208
23F8
ENDCHAR
STARTCHAR uni500E
ENCODING 20494
SWIDTH 1000 0
DWIDTH 16 0
BBX 16 16 0 -2
BITMAP
0450
0450
0C50
09FC
1954
1154
3154
71FC
D154
1154
1154
17FF
1000
1088
118C
1306
ENDCHAR
STARTCHAR uni500F
ENCODING 20495
SWIDTH 1000 0
DWIDTH 16 0
BBX 16 16 0 -2
BITMAP
0880
08FC
1984
130C
30D8
2870
69DC
AF07
2828
2824
2820
2FFF
2850
20D8
218C
2707
ENDCHAR
STARTCHAR uni5010
ENCODING 20496
SWIDTH 1000 0
DWIDTH 16 0
BBX 16 16 0 -2
BITMAP
0880
08FC
1984
130C
30D8
2870
69DC
AF07
2820
2820
2922
2B76
2A54
28D8
218C
2307
ENDCHAR
STARTCHAR uni5011
ENCODING 20497
SWIDTH 1000 0
DWIDTH 16 0
BBX 16 16 0 -2
BITMAP
1000
17DF
1451
37DF
2451
6451
67DF
A401
2401
2401
2401
2401
2401
2401
2401
2407
ENDCHAR
STARTCHAR uni5012
ENCODING 20498
SWIDTH 1000 0
DWIDTH 16 0
BBX 14 15 0 -1
BITMAP
1004
17A4
1224
2224
24A4
4FA4
6064
A224
A224
2FA4
2224
2224
2204
23C4
2E0C
ENDCHAR
STARTCHAR uni5013
ENCODING 20499
SWIDTH 1000 0
DWIDTH 16 0
BBX 16 16 0 -2
BITMAP
0840
0A44
1A4C
16E8
34B0
2198
630C
A647
2040
2246
26EC
24A0
21B0
2118
230C
2607
ENDCHAR
STARTCHAR uni5014
ENCODING 20500
SWIDTH 1000 0
DWIDTH 16 0
BBX 15 16 0 -2
BITMAP
0800
0BFE
1A02
1202
33FE
2200
6210
A292
2292
22FE
2210
2610
2492
2C92
2092
20FE
ENDCHAR
STARTCHAR uni5016
ENCODING 20502
SWIDTH 1000 0
DWIDTH 16 0
BBX 15 15 0 -1
BITMAP
0840
0840
17FC
2040
2040
6FFE
6208
A110
27FC
2040
2040
2FFE
2040
2040
2040
ENDCHAR
STARTCHAR uni5017
ENCODING 20503
SWIDTH 1000 0
DWIDTH 16 0
BBX 15 16 0 -2
BITMAP
0800
0BDE
1A52
1252
3252
235A
62D6
A252
2252
235A
22D6
2252
2252
2252
22D2
2426
ENDCHAR
STARTCHAR uni5018
ENCODING 20504
SWIDTH 1000 0
DWIDTH 16 0
BBX 15 16 0 -2
BITMAP
0820
0924
1B26
1222
3222
2020
63FE
A202
2202
22FA
228A
228A
22FA
2202
2202
220E
ENDCHAR
STARTCHAR uni5019
ENCODING 20505
SWIDTH 1000 0
DWIDTH 16 0
BBX 16 16 0 -2
BITMAP
1000
11FC
3004
2804
2BFF
6880
6880
A9FE
2B20
2820
2FFF
2850
2858
28CC
2186
2303
ENDCHAR
STARTCHAR uni501A
ENCODING 20506
SWIDTH 1000 0
DWIDTH 16 0
BBX 15 15 0 -1
BITMAP
1040
1040
17FC
20A0
2110
4208
6000
AFFE
2008
27E8
2428
2428
27E8
2008
2018
ENDCHAR
STARTCHAR uni501B
ENCODING 20507
SWIDTH 1000 0
DWIDTH 16 0
BBX 16 16 0 -2
BITMAP
0884
0884
1BFF
1084
3084
20FC
6084
A084
20FC
2084
2084
23FF
2000
2084
2186
2303
ENDCHAR
STARTCHAR uni501C
ENCODING 20508
SWIDTH 1000 0
DWIDTH 16 0
BBX 15 15 0 -1
BITMAP
0800
13FE
1202
2222
22FA
6222
6222
A2FA
2222
2202
22FA
228A
228A
22FA
2406
ENDCHAR
STARTCHAR uni501D
ENCODING 20509
SWIDTH 1000 0
DWIDTH 16 0
BBX 16 16 0 -2
BITMAP
0810
0810
FF90
0810
7F10
4110
4110
7F10
4110
4138
7F28
0828
FFEC
0844
08C6
0983
ENDCHAR
STARTCHAR uni501E
ENCODING 20510
SWIDTH 1000 0
DWIDTH 16 0
BBX 16 15 0 -1
BITMAP
1020
1020
17FE
2000
2000
43FC
A204
2204
23FC
2020
2128
2224
2C23
2020
20E0
ENDCHAR
STARTCHAR uni501F
ENCODING 20511
SWIDTH 1000 0
DWIDTH 16 0
BBX 15 15 0 -1
BITMAP
0910
0910
1110
17FC
2110
6110
AFFE
2000
23F8
2208
2208
23F8
2208
2208
23F8
ENDCHAR
STARTCHAR uni5021
ENCODING 20513
SWIDTH 1000 0
DWIDTH 16 0
BBX 15 15 0 -1
BITMAP
1000
13FC
1204
23FC
2204
4204
63FC
A000
A7FE
2402
2402
27FE
2402
2402
27FE
ENDCHAR
STARTCHAR uni5022
ENCODING 20514
SWIDTH 1000 0
DWIDTH 16 0
BBX 16 16 0 -2
BITMAP
0820
0820
1FFF
1020
33FE
2022
67FF
A022
23FE
2020
2120
213E
2120
23A0
26E0
2C3F
ENDCHAR
STARTCHAR uni5023
ENCODING 20515
SWIDTH 1000 0
DWIDTH 16 0
BBX 15 15 0 -1
BITMAP
1220
1220
1220
2FBE
2424
6444
6404
A7A4
A4A4
24A8
24A8
2490
28A8
28A4
3342
ENDCHAR
STARTCHAR uni5024
ENCODING 20516
SWIDTH 1000 0
DWIDTH 16 0
BBX 15 15 0 -1
BITMAP
1020
1020
17FE
2040
21F8
6908
6908
A9F8
A908
29F8
2908
2908
29F8
2800
2FFE
ENDCHAR
STARTCHAR uni5025
ENCODING 20517
SWIDTH 1000 0
DWIDTH 16 0
BBX 16 16 0 -2
BITMAP
0820
0820
1FFF
1489
3489
2188
630F
A600
2000
23FE
2020
2020
2020
2020
27FF
2000
ENDCHAR
STARTCHAR uni5026
ENCODING 20518
SWIDTH 1000 0
DWIDTH 16 0
BBX 15 15 0 -1
BITMAP
1040
1248
1444
25F4
28A2
4110
AFFE
2208
2404
2BFA
2208
2208
2278
2202
21FC
ENDCHAR
STARTCHAR uni5027
ENCODING 20519
SWIDTH 1000 0
DWIDTH 16 0
BBX 16 16 0 -2
BITMAP
1020
1020
17FF
3401
2401
61FC
6000
A000
27FF
2020
2124
2124
2326
2222
2623
20E0
ENDCHAR
STARTCHAR uni5028
ENCODING 20520
SWIDTH 1000 0
DWIDTH 16 0
BBX 15 15 0 -1
BITMAP
1000
13FC
1204
2204
23FC
4200
A220
2220
23FE
2220
2420
25FC
2504
2904
21FC
ENDCHAR
STARTCHAR uni5029
ENCODING 20521
SWIDTH 1000 0
DWIDTH 16 0
BBX 16 16 0 -2
BITMAP
0820
0820
1BFE
1020
31FC
2020
67FF
A000
21FC
2104
21FC
2104
21FC
2104
2104
211C
ENDCHAR
STARTCHAR uni502A
ENCODING 20522
SWIDTH 1000 0
DWIDTH 16 0
BBX 15 15 0 -1
BITMAP
2080
2F3C
2804
2804
6F3C
6804
A804
2FFC
2120
2120
2120
2220
2222
2422
281E
ENDCHAR
STARTCHAR uni502B
ENCODING 20523
SWIDTH 1000 0
DWIDTH 16 0
BBX 16 16 0 -2
BITMAP
0840
08E0
19B0
1318
360C
2DF7
6000
A000
27FE
2492
2492
27FE
2492
2492
2492
2496
ENDCHAR
STARTCHAR uni502C
ENCODING 20524
SWIDTH 1000 0
DWIDTH 16 0
BBX 15 15 0 -1
BITMAP
0840
0840
107C
1040
27FC
2404
67FC
A404
27FC
2040
2040
2FFE
2040
2040
2040
ENDCHAR
STARTCHAR uni502D
ENCODING 20525
SWIDTH 1000 0
DWIDTH 16 0
BBX 15 15 0 -1
BITMAP
1018
13E0
1040
17FC
2150
6248
A444
2080
2FFE
2108
2208
2790
2060
2198
2604
ENDCHAR
STARTCHAR uni502E
ENCODING 20526
SWIDTH 1000 0
DWIDTH 16 0
BBX 16 16 0 -2
BITMAP
0800
0BFE
1A22
1222
33FE
2222
6222
A3FE
2020
27FF
20A8
20AC
21A4
2326
2623
2020
ENDCHAR
STARTCHAR uni5030
ENCODING 20528
SWIDTH 1000 0
DWIDTH 16 0
BBX 16 16 0 -2
BITMAP
0820
0820
1BFE
1020
37FF
2088
6188
A70F
2040
207C
20C4
218C
2358
2070
20DC
2787
ENDCHAR
STARTCHAR uni5032
ENCODING 20530
SWIDTH 1000 0
DWIDTH 16 0
BBX 16 16 0 -2
BITMAP
0820
0820
1FFF
1020
33FE
2222
63FE
A222
2222
23FE
20A8
20A8
21AC
2326
2E23
2020
ENDCHAR
STARTCHAR uni5033
ENCODING 20531
SWIDTH 1000 0
DWIDTH 16 0
BBX 16 16 0 -2
BITMAP
0820
0820
1FFF
1020
33FE
2222
63FE
A020
23FE
2022
2FFF
2022
23FE
2020
2020
2060
ENDCHAR
STARTCHAR uni5035
ENCODING 20533
SWIDTH 1000 0
DWIDTH 16 0
BBX 16 16 0 -2
BITMAP
080A
0BE9
1809
1008
37FF
2088
6088
A288
22E8
2288
228C
2284
2284
23F5
2E07
2802
ENDCHAR
STARTCHAR uni5036
ENCODING 20534
SWIDTH 1000 0
DWIDTH 16 0
BBX 16 16 0 -2
BITMAP
0800
0BFC
1A04
1204
33FC
2204
6204
A3FC
2204
2204
23FC
2000
2FFF
2108
230C
2606
ENDCHAR
STARTCHAR uni5039
ENCODING 20537
SWIDTH 1000 0
DWIDTH 16 0
BBX 16 16 0 -2
BITMAP
0820
0870
18D8
118C
3707
21FC
6020
A3FE
2222
2222
2222
23FE
2050
20D8
218C
2707
ENDCHAR
STARTCHAR uni503B
ENCODING 20539
SWIDTH 1000 0
DWIDTH 16 0
BBX 15 15 0 -1
BITMAP
1000
1FFE
1452
2452
27D4
6458
A454
2452
27D2
2452
2452
2452
2FD4
2050
2050
ENDCHAR
STARTCHAR uni5040
ENCODING 20544
SWIDTH 1000 0
DWIDTH 16 0
BBX 16 16 0 -2
BITMAP
0888
0888
1FFF
1088
3088
2020
63FE
A222
2222
2222
27FF
2050
20D8
218C
2306
2603
ENDCHAR
STARTCHAR uni5041
ENCODING 20545
SWIDTH 1000 0
DWIDTH 16 0
BBX 16 16 0 -2
BITMAP
100C
1078
13C8
326C
2626
6422
6040
A3FC
2244
2FFF
2244
2244
2FFF
2204
2204
221C
ENDCHAR
STARTCHAR uni5042
ENCODING 20546
SWIDTH 1000 0
DWIDTH 16 0
BBX 16 16 0 -2
BITMAP
0904
098C
1888
17FF
3000
23C2
6252
A252
2352
22D2
2252
2352
22C2
2242
2242
22CE
ENDCHAR
STARTCHAR uni5043
ENCODING 20547
SWIDTH 1000 0
DWIDTH 16 0
BBX 15 15 0 -1
BITMAP
2000
2FFE
2800
29FC
2904
49FC
6904
A9FC
2880
2BFE
2888
2888
2870
2888
2FFE
ENDCHAR
STARTCHAR uni5045
ENCODING 20549
SWIDTH 1000 0
DWIDTH 16 0
BBX 16 16 0 -2
BITMAP
080C
0838
1BE0
1020
37FF
2020
63FE
A222
23FE
2222
23FE
2020
23FE
2020
2020
27FF
ENDCHAR
STARTCHAR uni5046
ENCODING 20550
SWIDTH 1000 0
DWIDTH 16 0
BBX 16 16 0 -2
BITMAP
0820
0820
1BFE
1020
31FC
2050
63FF
A088
2104
23FE
2505
2104
21FC
2104
2104
21FC
ENDCHAR
STARTCHAR uni5047
ENCODING 20551
SWIDTH 1000 0
DWIDTH 16 0
BBX 15 15 0 -1
BITMAP
1000
17DE
1442
2442
2442
67DE
6400
A43E
A782
2422
2422
2794
2408
2414
2462
ENDCHAR
STARTCHAR uni5048
ENCODING 20552
SWIDTH 1000 0
DWIDTH 16 0
BBX 15 15 0 -1
BITMAP
1000
17FC
1404
27FC
2404
47FC
6100
A3FE
2442
2842
24A2
2512
27FA
2404
2018
ENDCHAR
STARTCHAR uni5049
ENCODING 20553
SWIDTH 1000 0
DWIDTH 16 0
BBX 15 15 0 -1
BITMAP
1080
13F8
1088
2088
2FFE
4000
63F8
A208
23F8
2020
23FC
2220
2FFE
2020
2020
ENDCHAR
STARTCHAR uni504A
ENCODING 20554
SWIDTH 1000 0
DWIDTH 16 0
BBX 16 16 0 -2
BITMAP
0806
083C
1BE0
1020
33FE
2222
6222
A3FE
2020
27FF
2421
2429
243D
25E5
2401
2403
ENDCHAR
STARTCHAR uni504C
ENCODING 20556
SWIDTH 1000 0
DWIDTH 16 0
BBX 16 16 0 -2
BITMAP
1104
1104
17FF
3104
2104
6040
6040
A7FF
2080
2100
23FE
2502
2102
2102
2102
21FE
ENDCHAR
STARTCHAR uni504E
ENCODING 20558
SWIDTH 1000 0
DWIDTH 16 0
BBX 16 16 0 -2
BITMAP
0800
0BFE
1A22
1222
33FE
2222
6222
A3FE
2000
27FF
2122
2136
2114
2118
21CC
2707
ENDCHAR
STARTCHAR uni504F
ENCODING 20559
SWIDTH 1000 0
DWIDTH 16 0
BBX 16 16 0 -2
BITMAP
1000
1FFF
1000
37FC
2404
6404
67FC
A400
27FE
2492
2C92
2FFE
3492
2492
2492
2496
ENDCHAR
STARTCHAR uni5050
ENCODING 20560
SWIDTH 1000 0
DWIDTH 16 0
BBX 16 16 0 -2
BITMAP
0820
0820
1FFF
1104
3088
27FF
6400
A418
2470
25C6
241C
2470
2DC3
280E
3838
21E0
ENDCHAR
STARTCHAR uni5051
ENCODING 20561
SWIDTH 1000 0
DWIDTH 16 0
BBX 16 16 0 -2
BITMAP
1000
17FC
1404
3434
25E4
6444
65F4
A554
2554
25F4
2444
2444
2454
2475
25D5
2803
ENDCHAR
STARTCHAR uni5052
ENCODING 20562
SWIDTH 1000 0
DWIDTH 16 0
BBX 16 16 0 -2
BITMAP
0400
05FC
0D04
09FC
1904
1104
31FC
7000
D7FF
1100
13FF
1649
10D9
13B3
1062
11CE
ENDCHAR
STARTCHAR uni5053
ENCODING 20563
SWIDTH 1000 0
DWIDTH 16 0
BBX 16 16 0 -2
BITMAP
0800
0BFE
1A02
1202
33FE
2200
62FE
A220
2244
22FE
2212
2210
26FE
2410
2C10
21FF
ENDCHAR
STARTCHAR uni5055
ENCODING 20565
SWIDTH 1000 0
DWIDTH 16 0
BBX 15 15 0 -1
BITMAP
1420
1424
17A8
2430
2422
45A2
AE1C
2100
23FC
2204
2204
23FC
2204
2204
23FC
ENDCHAR
STARTCHAR uni5056
ENCODING 20566
SWIDTH 1000 0
DWIDTH 16 0
BBX 16 16 0 -2
BITMAP
0842
0842
1BFE
1044
304C
2048
67FF
A020
2040
21FC
2304
2D04
21FC
2104
2104
21FC
ENDCHAR
STARTCHAR uni5057
ENCODING 20567
SWIDTH 1000 0
DWIDTH 16 0
BBX 16 16 0 -2
BITMAP
0820
08AC
19A6
1723
3068
2018
60F0
A780
21FE
2102
21FE
2102
21FE
2102
2102
21FE
ENDCHAR
STARTCHAR uni5059
ENCODING 20569
SWIDTH 1000 0
DWIDTH 16 0
BBX 16 16 0 -2
BITMAP
1020
1020
17FF
3104
218C
6088
67FF
A421
2421
23FE
2222
2222
2222
2226
2020
2020
ENDCHAR
STARTCHAR uni505A
ENCODING 20570
SWIDTH 1000 0
DWIDTH 16 0
BBX 15 15 0 -1
BITMAP
2420
2420
2420
2F3E
2444
4444
64A4
A424
AF24
2928
2928
2910
2F28
2844
2182
ENDCHAR
STARTCHAR uni505C
ENCODING 20572
SWIDTH 1000 0
DWIDTH 16 0
BBX 15 15 0 -1
BITMAP
1040
1040
17FE
2000
23F8
4208
63F8
A000
AFFE
2802
2BFA
2040
2040
2040
20C0
ENDCHAR
STARTCHAR uni505F
ENCODING 20575
SWIDTH 1000 0
DWIDTH 16 0
BBX 16 16 0 -2
BITMAP
0420
0440
0DFC
0904
19FC
1104
3104
71FC
D000
13FE
1020
11FC
1020
1020
17FF
1000
ENDCHAR
STARTCHAR uni5060
ENCODING 20576
SWIDTH 1000 0
DWIDTH 16 0
BBX 16 16 0 -2
BITMAP
0800
0BFF
1848
13FF
3249
2249
6279
A000
2040
23FF
2084
208C
21E8
2038
20EE
2383
ENDCHAR
STARTCHAR uni5062
ENCODING 20578
SWIDTH 1000 0
DWIDTH 16 0
BBX 16 16 0 -2
BITMAP
1090
1390
1E12
3252
2256
6FD4
6254
A210
2710
26B8
2AA8
2A28
322C
2264
2246
22C3
ENDCHAR
STARTCHAR uni5063
ENCODING 20579
SWIDTH 1000 0
DWIDTH 16 0
BBX 16 16 0 -2
BITMAP
0820
0820
1BFE
1104
318C
2088
67FF
A000
2000
21FC
2104
2104
21FC
2104
2104
21FC
ENDCHAR
STARTCHAR uni5065
ENCODING 20581
SWIDTH 1000 0
DWIDTH 16 0
BBX 15 15 0 -1
BITMAP
1020
10FC
2E24
2224
63FE
6424
A824
2EFC
2220
2AFC
2A20
2BFE
2420
2A00
31FE
ENDCHAR
STARTCHAR uni5066
ENCODING 20582
SWIDTH 1000 0
DWIDTH 16 0
BBX 16 16 0 -2
BITMAP
1000
17FF
1041
327A
2240
67E0
6C3F
A800
27FE
2402
27FE
2402
27FE
2402
2402
240E
ENDCHAR
STARTCHAR uni5067
ENCODING 20583
SWIDTH 1000 0
DWIDTH 16 0
BBX 16 16 0 -2
BITMAP
0840
0840
1BFE
1090
330C
2CF3
6110
A7B0
2060
21C0
273C
2044
21EC
2018
2070
21C0
ENDCHAR
STARTCHAR uni506A
ENCODING 20586
SWIDTH 1000 0
DWIDTH 16 0
BBX 15 16 0 -2
BITMAP
0800
0BFE
1800
11FC
3104
2104
61FC
A000
2000
23FE
2222
2222
23FE
2222
2222
23FE
ENDCHAR
STARTCHAR uni506C
ENCODING 20588
SWIDTH 1000 0
DWIDTH 16 0
BBX 16 16 0 -2
BITMAP
0900
0900
19FE
1352
3252
25D2
60E2
A136
2244
209C
2000
2020
22B2
2293
26C5
247C
ENDCHAR
STARTCHAR uni506D
ENCODING 20589
SWIDTH 1000 0
DWIDTH 16 0
BBX 16 16 0 -2
BITMAP
1000
1FFF
1040
30C0
2080
67FE
6492
A492
24F2
2492
2492
24F2
2492
2492
2492
27FE
ENDCHAR
STARTCHAR uni5070
ENCODING 20592
SWIDTH 1000 0
DWIDTH 16 0
BBX 16 16 0 -2
BITMAP
1100
11DE
170A
31CA
270A
610A
61DA
A712
2136
2000
2020
27FF
2050
20D8
218C
2707
ENDCHAR
STARTCHAR uni5071
ENCODING 20593
SWIDTH 1000 0
DWIDTH 16 0
BBX 16 16 0 -2
BITMAP
0806
083C
1BE0
1210
33FF
2210
62FE
A282
2282
22FE
2282
2682
24FE
2C82
2082
20FE
ENDCHAR
STARTCHAR uni5072
ENCODING 20594
SWIDTH 1000 0
DWIDTH 16 0
BBX 16 16 0 -2
BITMAP
0800
0BFE
1A22
1222
33FE
2222
6222
A222
23FE
2000
20A0
22B2
2293
2685
248C
2078
ENDCHAR
STARTCHAR uni5074
ENCODING 20596
SWIDTH 1000 0
DWIDTH 16 0
BBX 15 16 0 -2
BITMAP
1002
17D2
3452
2452
27D2
6452
6452
A452
27D2
2452
2452
2452
27C2
2282
26C2
2C6E
ENDCHAR
STARTCHAR uni5075
ENCODING 20597
SWIDTH 1000 0
DWIDTH 16 0
BBX 15 15 0 -1
BITMAP
0840
087E
1040
13FC
2204
2204
43FC
6204
A204
23FC
2204
2204
23FC
2204
2402
ENDCHAR
STARTCHAR uni5076
ENCODING 20598
SWIDTH 1000 0
DWIDTH 16 0
BBX 15 15 0 -1
BITMAP
1000
17FC
1444
2444
67FC
6444
A444
27FC
2040
2FFE
2842
284A
287A
2B8A
2806
ENDCHAR
STARTCHAR uni5078
ENCODING 20600
SWIDTH 1000 0
DWIDTH 16 0
BBX 15 15 0 -1
BITMAP
1040
10A0
1110
2208
2404
4BF2
6000
AF8A
288A
2A94
29A8
2C94
2A94
288A
298A
ENDCHAR
STARTCHAR uni507D
ENCODING 20605
SWIDTH 1000 0
DWIDTH 16 0
BBX 16 16 0 -2
BITMAP
0A20
0920
1820
17FC
3044
2048
60FE
A182
2104
23FF
2601
2C09
22A5
22A3
2402
200E
ENDCHAR
STARTCHAR uni5080
ENCODING 20608
SWIDTH 1000 0
DWIDTH 16 0
BBX 15 15 0 -1
BITMAP
1040
1080
17FC
2444
2444
47FC
6444
A444
27FC
20A4
2128
212A
222E
2422
281E
ENDCHAR
STARTCHAR uni5081
ENCODING 20609
SWIDTH 1000 0
DWIDTH 16 0
BBX 16 16 0 -2
BITMAP
0820
08A0
1BAE
1222
3222
23AE
6222
A222
23AE
2020
27FE
2104
2098
2070
21DC
2707
ENDCHAR
STARTCHAR uni5083
ENCODING 20611
SWIDTH 1000 0
DWIDTH 16 0
BBX 16 16 0 -2
BITMAP
0820
0BFE
1820
11FC
3020
27FF
6020
A044
2188
2052
27FF
2021
20A8
23AE
2623
2020
ENDCHAR
STARTCHAR uni5084
ENCODING 20612
SWIDTH 1000 0
DWIDTH 16 0
BBX 16 16 0 -2
BITMAP
0840
0840
1FFF
1088
328A
2104
63FE
AD05
2104
21FC
2104
2104
21FC
2104
2104
21FC
ENDCHAR
STARTCHAR uni5085
ENCODING 20613
SWIDTH 1000 0
DWIDTH 16 0
BBX 15 15 0 -1
BITMAP
1050
1048
2FFE
2040
67FC
6444
A7FC
A444
27FC
2010
2FFE
2010
2210
2110
2030
ENDCHAR
STARTCHAR uni5086
ENCODING 20614
SWIDTH 1000 0
DWIDTH 16 0
BBX 16 16 0 -2
BITMAP
0800
0BFF
1A08
1210
32FE
2282
6282
A2FE
2282
2282
22FE
2210
2654
24D6
2D93
2030
ENDCHAR
STARTCHAR uni5088
ENCODING 20616
SWIDTH 1000 0
DWIDTH 16 0
BBX 16 16 0 -2
BITMAP
1000
17FF
1090
3090
23FE
6292
6292
A3FE
2020
27FF
20A8
21AC
2124
2326
2623
2020
ENDCHAR
STARTCHAR uni508A
ENCODING 20618
SWIDTH 1000 0
DWIDTH 16 0
BBX 16 16 0 -2
BITMAP
0800
0BFC
1A04
1204
33FC
2000
67FE
A402
27FE
2402
27FE
2402
27FE
2204
2606
2C03
ENDCHAR
STARTCHAR uni508D
ENCODING 20621
SWIDTH 1000 0
DWIDTH 16 0
BBX 15 15 0 -1
BITMAP
1040
1040
17FE
2108
2090
4FFE
6802
A842
A040
2FFE
2080
20FC
2104
2204
2408
ENDCHAR
STARTCHAR uni508E
ENCODING 20622
SWIDTH 1000 0
DWIDTH 16 0
BBX 16 16 0 -2
BITMAP
090C
09F8
1903
10FE
3000
22FC
6284
A2FC
2284
22FC
2284
22FC
2200
23FE
2088
2707
ENDCHAR
STARTCHAR uni508F
ENCODING 20623
SWIDTH 1000 0
DWIDTH 16 0
BBX 16 16 0 -2
BITMAP
0820
0820
1BFF
1210
32FE
2212
63FF
A212
2212
22FE
2210
22FE
2682
2482
2C82
20FE
ENDCHAR
STARTCHAR uni5090
ENCODING 20624
SWIDTH 1000 0
DWIDTH 16 0
BBX 16 16 0 -2
BITMAP
1020
1020
17FF
3000
21FC
6104
61FC
A000
27FF
2401
24F9
2489
2489
24F9
2401
2407
ENDCHAR
STARTCHAR uni5091
ENCODING 20625
SWIDTH 1000 0
DWIDTH 16 0
BBX 15 15 0 -1
BITMAP
1208
1388
24FE
24A8
2AA8
417E
6208
A448
A848
27FC
2040
20E0
2150
224C
2446
ENDCHAR
STARTCHAR uni5092
ENCODING 20626
SWIDTH 1000 0
DWIDTH 16 0
BBX 16 16 0 -2
BITMAP
1006
103C
13C4
3266
2622
6440
60C8
A190
20A4
207E
23C3
2020
27FF
2050
218C
2707
ENDCHAR
STARTCHAR uni5093
ENCODING 20627
SWIDTH 1000 0
DWIDTH 16 0
BBX 16 16 0 -2
BITMAP
100E
17F8
1400
37FE
2402
67FE
6400
A7FF
2421
24E7
27BD
2421
2CE7
2BBD
3821
20E7
ENDCHAR
STARTCHAR uni5094
ENCODING 20628
SWIDTH 1000 0
DWIDTH 16 0
BBX 16 16 0 -2
BITMAP
1044
1088
17FF
3090
23FE
6092
6092
A7FF
2092
2092
23FE
2098
2194
2396
2693
2090
ENDCHAR
STARTCHAR uni5095
ENCODING 20629
SWIDTH 1000 0
DWIDTH 16 0
BBX 16 16 0 -2
BITMAP
1080
1080
17FF
3481
2589
6110
63FE
A620
2A20
23FE
2220
2220
23FE
2220
2220
23FF
ENDCHAR
STARTCHAR uni5096
ENCODING 20630
SWIDTH 1000 0
DWIDTH 16 0
BBX 16 16 0 -2
BITMAP
0820
0870
18D8
118C
3777
2000
61FC
A104
21FC
2104
21FC
2300
22FE
2682
2C82
20FE
ENDCHAR
STARTCHAR uni5098
ENCODING 20632
SWIDTH 1000 0
DWIDTH 16 0
BBX 16 16 0 -2
BITMAP
0100
0380
06C0
1C78
F10F
1110
2928
4546
1110
2928
4546
0100
FFFF
0100
0100
0100
ENDCHAR
STARTCHAR uni5099
ENCODING 20633
SWIDTH 1000 0
DWIDTH 16 0
BBX 15 15 0 -1
BITMAP
1110
1110
17FE
2110
2110
6FFE
6400
A5FC
A524
25FC
2524
25FC
2524
2524
290C
ENDCHAR
STARTCHAR uni509A
ENCODING 20634
SWIDTH 1000 0
DWIDTH 16 0
BBX 16 16 0 -2
BITMAP
1210
1210
1210
3FDF
2012
6532
6DA2
A896
2514
251C
2708
2208
221C
2714
2536
2DA3
ENDCHAR
STARTCHAR uni509B
ENCODING 20635
SWIDTH 1000 0
DWIDTH 16 0
BBX 16 16 0 -2
BITMAP
0820
0820
1BFE
1202
328A
218C
6326
A070
20D8
218C
2707
21FC
2104
2104
2104
21FC
ENDCHAR
STARTCHAR uni509C
ENCODING 20636
SWIDTH 1000 0
DWIDTH 16 0
BBX 16 16 0 -2
BITMAP
0840
087C
18C4
11AC
3358
2030
60C0
A700
21FE
2220
2020
27FF
2020
2222
2222
23FE
ENDCHAR
STARTCHAR uni509E
ENCODING 20638
SWIDTH 1000 0
DWIDTH 16 0
BBX 16 16 0 -2
BITMAP
0904
0888
1BFE
1020
3020
21FC
6020
A020
23FE
2040
2080
21FE
2310
2C10
2010
21FF
ENDCHAR
STARTCHAR uni509F
ENCODING 20639
SWIDTH 1000 0
DWIDTH 16 0
BBX 15 16 0 -2
BITMAP
04B8
0488
0D8C
0B46
18C8
108C
31F6
7000
D7DE
1042
1252
114A
10C6
114A
1252
10C6
ENDCHAR
STARTCHAR uni50A0
ENCODING 20640
SWIDTH 1000 0
DWIDTH 16 0
BBX 16 16 0 -2
BITMAP
1004
1784
1004
3FC4
203F
6784
6024
A034
2794
2014
2004
2784
2484
2484
2484
279C
ENDCHAR
STARTCHAR uni50A1
ENCODING 20641
SWIDTH 1000 0
DWIDTH 16 0
BBX 16 16 0 -2
BITMAP
1208
1208
1208
3FBF
2000
64A2
64A2
A4A2
25B6
2514
2114
21D4
2714
2C04
207F
2000
ENDCHAR
STARTCHAR uni50A2
ENCODING 20642
SWIDTH 1000 0
DWIDTH 16 0
BBX 16 16 0 -2
BITMAP
1020
1020
17FE
3402
2000
63FC
6040
A1A2
2626
2054
2190
2638
2054
2196
2613
2060
ENDCHAR
STARTCHAR uni50A3
ENCODING 20643
SWIDTH 1000 0
DWIDTH 16 0
BBX 16 16 0 -2
BITMAP
1020
17FF
1020
33FE
2050
67FF
6088
A104
2623
2020
2326
21AC
2078
21AE
2723
2060
ENDCHAR
STARTCHAR uni50AA
ENCODING 20650
SWIDTH 1000 0
DWIDTH 16 0
BBX 16 16 0 -2
BITMAP
0840
0888
18F8
1204
3489
278F
6020
A050
218C
2727
2040
2190
2066
218C
2038
23E0
ENDCHAR
STARTCHAR uni50AC
ENCODING 20652
SWIDTH 1000 0
DWIDTH 16 0
BBX 15 15 0 -1
BITMAP
1040
1444
1444
27FC
2110
4220
67FE
AA20
3220
23FC
2220
23FC
2220
2220
23FE
ENDCHAR
STARTCHAR uni50AD
ENCODING 20653
SWIDTH 1000 0
DWIDTH 16 0
BBX 15 15 0 -1
BITMAP
2040
2FFE
2840
2BF8
2848
4FFE
6848
ABF8
A840
2BFC
2A44
2BFC
2A44
2BFC
324C
ENDCHAR
STARTCHAR uni50AF
ENCODING 20655
SWIDTH 1000 0
DWIDTH 16 0
BBX 16 16 0 -2
BITMAP
1020
1040
17FE
3442
257A
648A
6552
A462
25D2
2402
27FE
2020
2532
2513
2D05
28FC
ENDCHAR
STARTCHAR uni50B0
ENCODING 20656
SWIDTH 1000 0
DWIDTH 16 0
BBX 15 16 0 -2
BITMAP
0820
0A22
1A22
13FE
3000
23DE
6252
A252
235A
22D6
2252
235A
22D6
2252
22D2
2426
ENDCHAR
STARTCHAR uni50B1
ENCODING 20657
SWIDTH 1000 0
DWIDTH 16 0
BBX 16 16 0 -2
BITMAP
1122
1122
1322
3255
2655
6100
6108
A308
2248
264E
2248
2248
2248
2268
2258
228F
ENDCHAR
STARTCHAR uni50B2
ENCODING 20658
SWIDTH 1000 0
DWIDTH 16 0
BBX 15 15 0 -1
BITMAP
1210
1210
2FA0
223E
2224
5FE4
6224
AFA4
2228
23A8
24A8
2490
28A8
28A4
2342
ENDCHAR
STARTCHAR uni50B3
ENCODING 20659
SWIDTH 1000 0
DWIDTH 16 0
BBX 15 15 0 -1
BITMAP
2040
2FFE
2040
27FC
4444
47FC
4444
A7FC
2048
2FFC
2012
2FFE
2210
2110
2030
ENDCHAR
STARTCHAR uni50B4
ENCODING 20660
SWIDTH 1000 0
DWIDTH 16 0
BBX 16 16 0 -2
BITMAP
0800
0BFF
1A00
127C
3244
2244
627C
A200
22EE
22AA
22AA
22AA
22EE
2200
23FF
2000
ENDCHAR
STARTCHAR uni50B5
ENCODING 20661
SWIDTH 1000 0
DWIDTH 16 0
BBX 15 15 0 -1
BITMAP
1040
17FC
1040
23F8
2040
4FFE
6000
A3F8
2208
23F8
2208
23F8
2208
23F8
260C
ENDCHAR
STARTCHAR uni50B7
ENCODING 20663
SWIDTH 1000 0
DWIDTH 16 0
BBX 16 16 0 -2
BITMAP
1200
17FE
3400
2BF8
2208
63F8
6208
A3F8
2000
2FFF
2200
27FE
2C92
2122
2646
219C
ENDCHAR
STARTCHAR uni50B9
ENCODING 20665
SWIDTH 1000 0
DWIDTH 16 0
BBX 16 16 0 -2
BITMAP
1020
1020
17FF
3104
2088
67FF
6000
A3FE
2202
23FE
2202
23FE
2088
2189
2309
2E07
ENDCHAR
STARTCHAR uni50BA
ENCODING 20666
SWIDTH 1000 0
DWIDTH 16 0
BBX 16 16 0 -2
BITMAP
1100
11DE
1322
36A6
2154
6088
6104
A6FB
2000
2000
23FE
2020
2124
2326
2623
20E0
ENDCHAR
STARTCHAR uni50BB
ENCODING 20667
SWIDTH 1000 0
DWIDTH 16 0
BBX 16 16 0 -2
BITMAP
1020
13FE
128A
3272
228A
63FE
6108
A308
2647
20FC
2184
274C
2058
2030
20EC
2787
ENDCHAR
STARTCHAR uni50BD
ENCODING 20669
SWIDTH 1000 0
DWIDTH 16 0
BBX 16 16 0 -2
BITMAP
0820
0820
1BFE
1104
3088
27FF
6000
A3FE
2202
23FE
2202
23FE
2020
27FF
2020
2020
ENDCHAR
STARTCHAR uni50BE
ENCODING 20670
SWIDTH 1000 0
DWIDTH 16 0
BBX 15 15 0 -1
BITMAP
1000
13FE
1820
28FC
2884
6A84
6CFC
A884
A884
28FC
2A84
2A84
2EFC
2084
2302
ENDCHAR
STARTCHAR uni50C0
ENCODING 20672
SWIDTH 1000 0
DWIDTH 16 0
BBX 16 16 0 -2
BITMAP
0954
0954
1FFF
1154
3354
2677
6000
A7FF
2421
2421
23FE
2222
2222
2222
2226
2020
ENDCHAR
STARTCHAR uni50C2
ENCODING 20674
SWIDTH 1000 0
DWIDTH 16 0
BBX 16 16 0 -2
BITMAP
0820
0BFE
1A22
17FF
3222
23FE
6020
A3FE
2222
23FE
2040
27FF
2084
21C8
207C
27C7
ENDCHAR
STARTCHAR uni50C3
ENCODING 20675
SWIDTH 1000 0
DWIDTH 16 0
BBX 16 16 0 -2
BITMAP
1088
1088
17FF
3088
2288
6200
67FF
AC01
2BF9
2249
23F9
2249
23F9
2249
225B
2006
ENDCHAR
STARTCHAR uni50C4
ENCODING 20676
SWIDTH 1000 0
DWIDTH 16 0
BBX 16 16 0 -2
BITMAP
0800
0BFF
1848
13FF
3249
2249
63FF
A000
21FE
2000
23FF
2020
2124
2326
2623
20E0
ENDCHAR
STARTCHAR uni50C5
ENCODING 20677
SWIDTH 1000 0
DWIDTH 16 0
BBX 15 15 0 -1
BITMAP
1110
17FE
2110
21F0
6040
67FC
A444
A444
27FC
2040
27FC
2040
23F8
2040
2FFE
ENDCHAR
STARTCHAR uni50C7
ENCODING 20679
SWIDTH 1000 0
DWIDTH 16 0
BBX 16 16 0 -2
BITMAP
0800
0BDE
18C6
114A
30C6
214A
6022
A070
21DC
2707
2020
21C8
2032
21C4
2018
21E0
ENDCHAR
STARTCHAR uni50C9
ENCODING 20681
SWIDTH 1000 0
DWIDTH 16 0
BBX 16 16 0 -2
BITMAP
0100
0380
06C0
0C70
381C
E7E7
0000
3E7C
2244
2244
3E7C
0000
0810
1C38
366C
E0C7
ENDCHAR
STARTCHAR uni50CA
ENCODING 20682
SWIDTH 1000 0
DWIDTH 16 0
BBX 16 16 0 -2
BITMAP
1000
1FFF
1090
37FE
2492
6492
67FE
A080
2FFF
2108
23FC
2C0B
23F8
2202
2306
21FC
ENDCHAR
STARTCHAR uni50CC
ENCODING 20684
SWIDTH 1000 0
DWIDTH 16 0
BBX 16 16 0 -2
BITMAP
1108
1108
1FE8
311F
27D2
6572
6552
A7DA
254A
254E
27C4
2104
2FEE
210A
211B
2111
ENDCHAR
STARTCHAR uni50CD
ENCODING 20685
SWIDTH 1000 0
DWIDTH 16 0
BBX 16 16 0 -2
BITMAP
10C8
1788
1108
3FE8
211F
6FE9
6929
AFE9
2929
2FE9
2109
2FE9
2119
23D3
2E32
2066
ENDCHAR
STARTCHAR uni50CE
ENCODING 20686
SWIDTH 1000 0
DWIDTH 16 0
BBX 16 16 0 -2
BITMAP
1000
17DF
1451
37DF
2410
6451
63CF
A000
2088
23FE
2088
2088
27FF
2088
218C
2707
ENDCHAR
STARTCHAR uni50CF
ENCODING 20687
SWIDTH 1000 0
DWIDTH 16 0
BBX 15 15 0 -1
BITMAP
1200
13F0
1220
2440
2FFC
6444
A7FC
2084
2748
2070
23A8
2C68
21A4
2E22
20C0
ENDCHAR
STARTCHAR uni50D0
ENCODING 20688
SWIDTH 1000 0
DWIDTH 16 0
BBX 16 16 0 -2
BITMAP
1202
1104
17FF
3020
23FE
6020
67FF
A222
2124
27FF
2000
23FE
2202
2202
2202
23FE
ENDCHAR
STARTCHAR uni50D1
ENCODING 20689
SWIDTH 1000 0
DWIDTH 16 0
BBX 15 15 0 -1
BITMAP
17E0
1080
2FFE
2210
4408
4BF6
A210
A3F0
2000
2FFC
2804
29E4
2924
29E4
280C
ENDCHAR
STARTCHAR uni50D3
ENCODING 20691
SWIDTH 1000 0
DWIDTH 16 0
BBX 16 16 0 -2
BITMAP
0820
09FC
1924
11FC
3020
27FF
6000
A1FC
2104
21FC
2104
21FC
2104
21FC
2088
2306
ENDCHAR
STARTCHAR uni50D4
ENCODING 20692
SWIDTH 1000 0
DWIDTH 16 0
BBX 16 16 0 -2
BITMAP
113C
1202
15FD
3050
23FE
6252
639E
A202
23FE
2202
23FE
2004
27FF
2104
2084
201C
ENDCHAR
STARTCHAR uni50D5
ENCODING 20693
SWIDTH 1000 0
DWIDTH 16 0
BBX 15 15 0 -1
BITMAP
10A0
14A4
12A8
2FFE
2208
4110
67FC
A040
A3F8
2040
2FFE
2040
20A0
2318
2C06
ENDCHAR
STARTCHAR uni50D6
ENCODING 20694
SWIDTH 1000 0
DWIDTH 16 0
BBX 15 15 0 -1
BITMAP
1040
1FFE
1040
27FC
2000
27FC
4404
67FC
A110
A0A0
2FFE
2000
27FC
2404
27FC
ENDCHAR
STARTCHAR uni50D8
ENCODING 20696
SWIDTH 1000 0
DWIDTH 16 0
BBX 16 16 0 -2
BITMAP
1108
1108
1548
392F
210A
6FEA
683A
A82A
2BAA
2AAE
2AA4
2AA4
2BAE
282A
286A
201B
ENDCHAR
STARTCHAR uni50D9
ENCODING 20697
SWIDTH 1000 0
DWIDTH 16 0
BBX 16 16 0 -2
BITMAP
1088
13FE
1088
30F8
2000
67FF
6020
A3FE
2222
2222
23FE
2222
2222
23FE
2104
2603
ENDCHAR
STARTCHAR uni50DA
ENCODING 20698
SWIDTH 1000 0
DWIDTH 16 0
BBX 15 15 0 -1
BITMAP
1040
1040
2FFE
28A4
4518
6208
A7FC
AA0A
23F8
2208
23F8
2150
2248
2444
20C0
ENDCHAR
STARTCHAR uni50DC
ENCODING 20700
SWIDTH 1000 0
DWIDTH 16 0
BBX 16 15 0 -1
BITMAP
1004
13E8
1451
328A
2104
66FB
6000
A1FC
2104
2104
21FC
2000
2184
2088
27FF
ENDCHAR
STARTCHAR uni50DD
ENCODING 20701
SWIDTH 1000 0
DWIDTH 16 0
BBX 16 16 0 -2
BITMAP
1000
17FE
1402
37FE
2400
64FC
6408
A5FE
2410
2430
25CE
2442
24E4
279F
2884
218C
ENDCHAR
STARTCHAR uni50DE
ENCODING 20702
SWIDTH 1000 0
DWIDTH 16 0
BBX 15 15 0 -1
BITMAP
1038
17C0
1488
2444
2840
57F8
6408
A7FC
2404
27FE
2402
242A
2AAA
3284
2408
ENDCHAR
STARTCHAR uni50DF
ENCODING 20703
SWIDTH 1000 0
DWIDTH 16 0
BBX 16 16 0 -2
BITMAP
1122
1224
16AD
3122
2225
62AF
67A4
A022
2FFF
2220
2312
2294
2288
2615
2427
2CC2
ENDCHAR
STARTCHAR uni50E1
ENCODING 20705
SWIDTH 1000 0
DWIDTH 16 0
BBX 16 16 0 -2
BITMAP
1020
17FF
1020
33FE
2222
63FE
6222
A3FE
2022
27FF
2041
2166
2523
2505
2D8C
28F8
ENDCHAR
STARTCHAR uni50E2
ENCODING 20706
SWIDTH 1000 0
DWIDTH 16 0
BBX 16 16 0 -2
BITMAP
1006
103C
17E2
3246
2124
67FF
6401
A505
21C4
235F
2254
25D4
2094
21BF
2304
2604
ENDCHAR
STARTCHAR uni50E3
ENCODING 20707
SWIDTH 1000 0
DWIDTH 16 0
BBX 16 16 0 -2
BITMAP
1104
1104
17DF
3104
2104
67DF
628A
A252
2401
23FE
2202
2202
23FE
2202
2202
23FE
ENDCHAR
STARTCHAR uni50E4
ENCODING 20708
SWIDTH 1000 0
DWIDTH 16 0
BBX 16 16 0 -2
BITMAP
0BDE
0A52
1BDE
1000
33FE
2222
6222
A3FE
2222
2222
23FE
2020
27FF
2020
2020
2020
ENDCHAR
STARTCHAR uni50E5
ENCODING 20709
SWIDTH 1000 0
DWIDTH 16 0
BBX 15 15 0 -1
BITMAP
1080
17F8
1080
2080
2FFE
4210
6F3C
A210
2F7E
2000
2FFC
2120
2122
2222
2C1E
ENDCHAR
STARTCHAR uni50E6
ENCODING 20710
SWIDTH 1000 0
DWIDTH 16 0
BBX 16 16 0 -2
BITMAP
090A
090B
1909
17C8
303F
27C8
6448
A448
245C
27D4
2114
2594
2554
2935
2125
2363
ENDCHAR
STARTCHAR uni50E7
ENCODING 20711
SWIDTH 1000 0
DWIDTH 16 0
BBX 15 15 0 -1
BITMAP
1178
1208
1404
27FE
2654
4554
6564
A7FC
2000
23F8
2208
23F8
2208
2208
23F8
ENDCHAR
STARTCHAR uni50E8
ENCODING 20712
SWIDTH 1000 0
DWIDTH 16 0
BBX 16 16 0 -2
BITMAP
0820
0BFE
1820
1104
37FF
2104
6000
A3FE
2202
23FE
2202
23FE
2202
23FE
2104
2603
ENDCHAR
STARTCHAR uni50E9
ENCODING 20713
SWIDTH 1000 0
DWIDTH 16 0
BBX 16 16 0 -2
BITMAP
1000
17DF
1451
37DF
2451
67DF
6401
A4F9
2489
24F9
2489
24F9
2489
2489
2499
2407
ENDCHAR
STARTCHAR uni50ED
ENCODING 20717
SWIDTH 1000 0
DWIDTH 16 0
BBX 15 15 0 -1
BITMAP
2208
2FBE
2A28
2FBE
4218
66A8
AB4A
B086
27F8
2408
2408
27F8
2408
2408
27F8
ENDCHAR
STARTCHAR uni50EE
ENCODING 20718
SWIDTH 1000 0
DWIDTH 16 0
BBX 16 16 0 -2
BITMAP
0820
0820
1BFE
1104
3088
27FF
6000
A1FC
2124
21FC
2124
21FC
2020
23FE
2020
27FF
ENDCHAR
STARTCHAR uni50EF
ENCODING 20719
SWIDTH 1000 0
DWIDTH 16 0
BBX 16 16 0 -2
BITMAP
1222
1124
1020
37FF
20A8
61AC
6727
A120
21C4
235F
2654
21D4
20BF
2184
2304
2604
ENDCHAR
STARTCHAR uni50F1
ENCODING 20721
SWIDTH 1000 0
DWIDTH 16 0
BBX 16 16 0 -2
BITMAP
101E
13F0
1200
33FE
2202
63FE
6224
A248
22FE
2390
22FC
2290
26FC
2490
2CFF
2000
ENDCHAR
STARTCHAR uni50F2
ENCODING 20722
SWIDTH 1000 0
DWIDTH 16 0
BBX 16 16 0 -2
BITMAP
1000
1FFF
1090
37FE
2492
6492
67FE
A204
2384
26BF
2484
2B94
2124
237F
2604
2C04
ENDCHAR
STARTCHAR uni50F3
ENCODING 20723
SWIDTH 1000 0
DWIDTH 16 0
BBX 16 16 0 -2
BITMAP
1000
1FFF
1090
37FE
2492
6492
67FE
A248
2358
2150
2FFF
2150
2358
264C
2C46
2040
ENDCHAR
STARTCHAR uni50F5
ENCODING 20725
SWIDTH 1000 0
DWIDTH 16 0
BBX 16 16 0 -2
BITMAP
0800
0FFF
1800
11FC
3124
21FC
6124
A7FF
2000
21FC
2124
21FC
2124
21FC
2000
27FF
ENDCHAR
STARTCHAR uni50F6
ENCODING 20726
SWIDTH 1000 0
DWIDTH 16 0
BBX 16 16 0 -2
BITMAP
1000
17FC
14A4
34A4
27BC
60A0
6FBE
A8A2
28A2
2FBE
28A2
28A2
2FBE
20A0
20C1
207F
ENDCHAR
STARTCHAR uni50F9
ENCODING 20729
SWIDTH 1000 0
DWIDTH 16 0
BBX 15 15 0 -1
BITMAP
17FE
1090
17FE
2492
27FE
6000
63FC
A204
A3FC
2204
23FC
2204
23FC
2108
2606
ENDCHAR
STARTCHAR uni50FA
ENCODING 20730
SWIDTH 1000 0
DWIDTH 16 0
BBX 16 16 0 -2
BITMAP
04F8
0488
0C88
08F8
1800
13DE
3252
7252
D3DE
1020
17FF
10A8
11AC
1326
1623
1020
ENDCHAR
STARTCHAR uni50FB
ENCODING 20731
SWIDTH 1000 0
DWIDTH 16 0
BBX 16 16 0 -2
BITMAP
1008
1788
14BE
3480
24A2
64B6
6794
A47F
2408
2788
2CBE
2C88
3488
2488
2788
2008
ENDCHAR
STARTCHAR uni50FE
ENCODING 20734
SWIDTH 1000 0
DWIDTH 16 0
BBX 16 16 0 -2
BITMAP
100E
17F8
1242
3124
27FF
6421
6292
A285
247C
2080
21FC
2304
2698
2070
21DC
2707
ENDCHAR
STARTCHAR uni50FF
ENCODING 20735
SWIDTH 1000 0
DWIDTH 16 0
BBX 15 15 0 -1
BITMAP
0820
1020
13FE
2202
2252
61FC
6050
A1FC
2050
23FE
2088
2124
22FA
2020
21FC
ENDCHAR
STARTCHAR uni5100
ENCODING 20736
SWIDTH 1000 0
DWIDTH 16 0
BBX 16 16 0 -2
BITMAP
1208
1110
37FE
2040
23FC
6040
6FFF
A004
2792
2110
2FFF
2112
2194
2F09
2115
2763
ENDCHAR
STARTCHAR uni5101
ENCODING 20737
SWIDTH 1000 0
DWIDTH 16 0
BBX 15 15 0 -1
BITMAP
1110
1220
17FE
2A20
23FC
4220
63FC
A220
23FE
2000
279E
2492
24F2
2402
2406
ENDCHAR
STARTCHAR uni5102
ENCODING 20738
SWIDTH 1000 0
DWIDTH 16 0
BBX 16 16 0 -2
BITMAP
0890
0BFE
1A92
13FE
3292
23FE
6000
A7FF
2400
25FE
2400
27FF
2490
248A
28E4
2383
ENDCHAR
STARTCHAR uni5103
ENCODING 20739
SWIDTH 1000 0
DWIDTH 16 0
BBX 16 16 0 -2
BITMAP
1020
17FF
1000
33FE
2202
62FA
628A
A2FA
2202
23FE
2104
21FC
2104
21FC
2000
27FF
ENDCHAR
STARTCHAR uni5104
ENCODING 20740
SWIDTH 1000 0
DWIDTH 16 0
BBX 16 16 0 -2
BITMAP
1040
1040
37FE
2108
2090
6FFF
6000
A3FC
2204
23FC
2204
23FC
2040
2522
2509
28F8
ENDCHAR
STARTCHAR uni5106
ENCODING 20742
SWIDTH 1000 0
DWIDTH 16 0
BBX 15 15 0 -1
BITMAP
1510
1510
2F90
253E
6524
A864
2FA4
28A4
30A4
2EA4
2A98
2A90
2EA8
20C4
2782
ENDCHAR
STARTCHAR uni5107
ENCODING 20743
SWIDTH 1000 0
DWIDTH 16 0
BBX 16 16 0 -2
BITMAP
0800
0BFE
1A92
1292
33FE
2000
67FF
A000
23FE
2202
23FE
20A1
2126
2318
2566
2183
ENDCHAR
STARTCHAR uni5108
ENCODING 20744
SWIDTH 1000 0
DWIDTH 16 0
BBX 16 16 0 -2
BITMAP
0820
0850
198C
1777
3000
23FE
6222
A2AA
2222
23FE
2000
21FC
2104
21FC
2104
21FC
ENDCHAR
STARTCHAR uni5109
ENCODING 20745
SWIDTH 1000 0
DWIDTH 16 0
BBX 15 15 0 -1
BITMAP
1040
10A0
1110
2208
2404
4BFA
6000
A7BC
24A4
24A4
27BC
2210
2628
2944
3082
ENDCHAR
STARTCHAR uni510B
ENCODING 20747
SWIDTH 1000 0
DWIDTH 16 0
BBX 16 16 0 -2
BITMAP
10F8
1110
17FF
3244
2387
627C
6200
A3FF
2200
227C
2200
227C
2200
22FE
2482
20FE
ENDCHAR
STARTCHAR uni510C
ENCODING 20748
SWIDTH 1000 0
DWIDTH 16 0
BBX 16 16 0 -2
BITMAP
1108
1208
17C8
345F
27D2
6472
67D2
A11A
2FEA
220E
23C4
2244
264E
24CA
2C9B
2991
ENDCHAR
STARTCHAR uni510D
ENCODING 20749
SWIDTH 1000 0
DWIDTH 16 0
BBX 16 16 0 -2
BITMAP
0820
0A8A
1A52
1326
3252
228A
6222
A3FE
2104
2607
2080
21FC
2748
2030
20DC
2787
ENDCHAR
STARTCHAR uni510E
ENCODING 20750
SWIDTH 1000 0
DWIDTH 16 0
BBX 16 16 0 -2
BITMAP
1114
1116
17D2
3110
2FFE
6110
67D4
A114
27D4
2554
27DC
2548
27C9
211D
27D7
2132
ENDCHAR
STARTCHAR uni5110
ENCODING 20752
SWIDTH 1000 0
DWIDTH 16 0
BBX 16 16 0 -2
BITMAP
0820
0BFF
1A01
11FE
30A4
2328
6030
A1FE
2702
21FE
2102
21FE
2102
21FE
2084
2303
ENDCHAR
STARTCHAR uni5112
ENCODING 20754
SWIDTH 1000 0
DWIDTH 16 0
BBX 15 15 0 -1
BITMAP
1000
17FC
2040
2FFE
2842
6B5A
6040
A358
2000
2FFE
2040
27FC
24A4
24A4
24AC
ENDCHAR
STARTCHAR uni5114
ENCODING 20756
SWIDTH 1000 0
DWIDTH 16 0
BBX 16 16 0 -2
BITMAP
0820
0BFE
1820
11FC
3000
27FF
6001
A1FD
2020
23FE
2000
27FF
2002
27BF
2492
2786
ENDCHAR
STARTCHAR uni5115
ENCODING 20757
SWIDTH 1000 0
DWIDTH 16 0
BBX 16 16 0 -2
BITMAP
0820
0820
1FFF
1050
37AF
22AA
62AA
A5AD
2000
2202
23FE
2202
23FE
2202
2602
2C02
ENDCHAR
STARTCHAR uni5116
ENCODING 20758
SWIDTH 1000 0
DWIDTH 16 0
BBX 16 16 0 -2
BITMAP
1008
17C8
1508
351F
27D0
6470
67C0
A50F
2500
27C0
2000
27FE
2492
2492
2492
2FFF
ENDCHAR
STARTCHAR uni5117
ENCODING 20759
SWIDTH 1000 0
DWIDTH 16 0
BBX 16 16 0 -2
BITMAP
1400
14BF
1702
3414
2488
63BF
6409
A78A
2A28
222E
2FA8
2228
2328
22B8
246C
28C7
ENDCHAR
STARTCHAR uni5118
ENCODING 20760
SWIDTH 1000 0
DWIDTH 16 0
BBX 16 16 0 -2
BITMAP
0820
09FC
1824
17FF
3024
21FC
6020
A7FF
2292
2449
2000
23FE
2292
2292
27FF
2000
ENDCHAR
STARTCHAR uni5119
ENCODING 20761
SWIDTH 1000 0
DWIDTH 16 0
BBX 16 16 0 -2
BITMAP
1010
14FE
1692
32FE
2410
66FF
6200
A0FC
2E84
22FC
2280
22FE
2282
26FE
2500
2CFF
ENDCHAR
STARTCHAR uni511A
ENCODING 20762
SWIDTH 1000 0
DWIDTH 16 0
BBX 16 16 0 -2
BITMAP
0888
0888
1FFF
1088
33FE
2252
63FE
A000
27FF
2441
24FD
2184
236C
2018
2070
23C0
ENDCHAR
STARTCHAR uni511B
ENCODING 20763
SWIDTH 1000 0
DWIDTH 16 0
BBX 16 16 0 -2
BITMAP
1200
17FE
1D54
3154
27FF
6154
6154
A3FE
2000
2204
23DE
2654
2D54
20FF
2384
2E04
ENDCHAR
STARTCHAR uni511C
ENCODING 20764
SWIDTH 1000 0
DWIDTH 16 0
BBX 16 16 0 -2
BITMAP
1020
1020
17FF
3441
24A1
628A
64F9
A000
23FE
2292
27FF
2000
27FF
2020
2020
20E0
ENDCHAR
STARTCHAR uni511D
ENCODING 20765
SWIDTH 1000 0
DWIDTH 16 0
BBX 16 16 0 -2
BITMAP
1104
1555
1555
328A
2451
6000
63FE
A202
2020
27FF
20A8
20A8
21AC
2326
2623
2020
ENDCHAR
STARTCHAR uni511E
ENCODING 20766
SWIDTH 1000 0
DWIDTH 16 0
BBX 16 16 0 -2
BITMAP
1000
17FF
1124
3222
27FF
6222
6376
A2AA
2376
2222
2376
22AA
2376
2222
2222
2206
ENDCHAR
STARTCHAR uni511F
ENCODING 20767
SWIDTH 1000 0
DWIDTH 16 0
BBX 15 15 0 -1
BITMAP
1248
1150
1FFE
2802
2BFA
6208
63F8
A7FC
A404
27FC
2404
27FC
2404
27FC
2C06
ENDCHAR
STARTCHAR uni5121
ENCODING 20769
SWIDTH 1000 0
DWIDTH 16 0
BBX 15 15 0 -1
BITMAP
1000
17FC
1444
27FC
2444
47FC
6000
A000
2FBE
2AAA
2AAA
2FBE
2AAA
2AAA
2FBE
ENDCHAR
STARTCHAR uni5123
ENCODING 20771
SWIDTH 1000 0
DWIDTH 16 0
BBX 16 16 0 -2
BITMAP
1020
17FF
1484
35FE
2484
64FC
6400
A5FE
2420
25FE
2522
25FE
2D22
29FE
3884
2303
ENDCHAR
STARTCHAR uni5127
ENCODING 20775
SWIDTH 1000 0
DWIDTH 16 0
BBX 16 16 0 -2
BITMAP
1104
17DF
1104
37DF
2104
628A
6451
A1FC
2104
21FC
2104
21FC
2104
21FC
2088
2306
ENDCHAR
STARTCHAR uni5128
ENCODING 20776
SWIDTH 1000 0
DWIDTH 16 0
BBX 16 16 0 -2
BITMAP
10C3
179E
1410
37DF
2514
6924
6000
A3FC
2204
23FC
2204
23FC
2204
23FC
2108
2E07
ENDCHAR
STARTCHAR uni512A
ENCODING 20778
SWIDTH 1000 0
DWIDTH 16 0
BBX 16 16 0 -2
BITMAP
17FF
1020
31FC
2104
61FC
6104
A7FF
2421
2292
2285
247C
2080
21FC
2684
2078
2787
ENDCHAR
STARTCHAR uni512C
ENCODING 20780
SWIDTH 1000 0
DWIDTH 16 0
BBX 16 16 0 -2
BITMAP
1100
111E
1FF2
3112
27DE
6112
6FF2
A01E
27D2
2552
255E
2554
27D4
2455
2455
25E3
ENDCHAR
STARTCHAR uni512D
ENCODING 20781
SWIDTH 1000 0
DWIDTH 16 0
BBX 16 16 0 -2
BITMAP
0900
093E
1FE2
12A2
32BE
22A2
67E2
A13E
2122
27E2
213E
2394
2554
2935
2125
2163
ENDCHAR
STARTCHAR uni512F
ENCODING 20783
SWIDTH 1000 0
DWIDTH 16 0
BBX 16 16 0 -2
BITMAP
1148
1244
17FE
3090
2FFF
6204
67FE
AA21
23FC
2220
23FC
2220
23FF
2551
2D49
2803
ENDCHAR
STARTCHAR uni5131
ENCODING 20785
SWIDTH 1000 0
DWIDTH 16 0
BBX 16 16 0 -2
BITMAP
1108
1108
1FEF
3448
228F
6FE1
600F
A7C8
244F
27C8
244F
27C8
244F
2448
2449
24C7
ENDCHAR
STARTCHAR uni5132
ENCODING 20786
SWIDTH 1000 0
DWIDTH 16 0
BBX 16 16 0 -2
BITMAP
2012
2F12
207E
3F94
6014
4F18
407F
C010
4F20
407E
40A2
4F22
493E
4922
4922
4F3E
ENDCHAR
STARTCHAR uni5133
ENCODING 20787
SWIDTH 1000 0
DWIDTH 16 0
BBX 16 16 0 -2
BITMAP
11F8
1610
13FE
3202
23FE
6110
61DE
A111
23CF
2000
23FE
2222
23FE
2094
2191
270F
ENDCHAR
STARTCHAR uni5134
ENCODING 20788
SWIDTH 1000 0
DWIDTH 16 0
BBX 16 16 0 -2
BITMAP
1020
17FF
1000
33DE
2252
63DE
6088
A3FE
2088
23FE
2088
27FF
2091
270A
21E4
2303
ENDCHAR
STARTCHAR uni5135
ENCODING 20789
SWIDTH 1000 0
DWIDTH 16 0
BBX 16 16 0 -2
BITMAP
1100
13FF
16CC
3078
28CC
6FFF
6924
A9AC
2974
29FC
2820
29FC
2820
27FF
2154
2252
ENDCHAR
STARTCHAR uni5137
ENCODING 20791
SWIDTH 1000 0
DWIDTH 16 0
BBX 16 16 0 -2
BITMAP
17DF
1000
17DF
3451
2555
6020
67FF
A490
27FE
2492
27FE
2510
25DE
2510
29D1
230F
ENDCHAR
STARTCHAR uni5138
ENCODING 20792
SWIDTH 1000 0
DWIDTH 16 0
BBX 16 16 0 -2
BITMAP
1000
17FE
1492
37FE
2000
610A
661F
A2B4
2114
225E
27D4
2154
211E
2554
2954
211F
ENDCHAR
STARTCHAR uni5139
ENCODING 20793
SWIDTH 1000 0
DWIDTH 16 0
BBX 16 16 0 -2
BITMAP
1514
17FF
1924
37DF
228A
62CA
6493
A3FE
2202
23FE
2202
23FE
2202
23FE
2104
2603
ENDCHAR
STARTCHAR uni513A
ENCODING 20794
SWIDTH 1000 0
DWIDTH 16 0
BBX 15 15 0 -1
BITMAP
2512
2F92
253E
2764
4224
6FA4
AABE
AFA4
2224
2FA4
223E
2FA4
2224
2524
28BE
ENDCHAR
STARTCHAR uni513B
ENCODING 20795
SWIDTH 1000 0
DWIDTH 16 0
BBX 16 16 0 -2
BITMAP
1222
1124
17FF
3505
25FD
6000
63FE
A222
22AA
22AA
23FE
2020
27FF
2000
2292
2449
ENDCHAR
STARTCHAR uni513C
ENCODING 20796
SWIDTH 1000 0
DWIDTH 16 0
BBX 15 15 0 -1
BITMAP
17BC
14A4
17BC
2000
2FFE
4810
6B90
A91E
2FE2
2A4A
2BCA
2A4A
2BC4
2A4A
37EA
ENDCHAR
STARTCHAR uni513F
ENCODING 20799
SWIDTH 1000 0
DWIDTH 16 0
BBX 16 16 0 -2
BITMAP
0420
0420
0420
0420
0420
0420
0420
0420
0420
0420
0420
0C20
0820
1821
3033
E01E
ENDCHAR
STARTCHAR uni5140
ENCODING 20800
SWIDTH 1000 0
DWIDTH 16 0
BBX 16 15 0 -2
BITMAP
FFFF
0420
0420
0420
0420
0420
0420
0420
0420
0420
0C20
0820
1821
3033
E01E
ENDCHAR
STARTCHAR uni5141
ENCODING 20801
SWIDTH 1000 0
DWIDTH 16 0
BBX 16 16 0 -2
BITMAP
0400
0400
0C10
0818
180C
11FE
7F22
0420
0420
0420
0420
0C20
0821
1821
3033
E01E
ENDCHAR
STARTCHAR uni5142
ENCODING 20802
SWIDTH 1000 0
DWIDTH 16 0
BBX 16 16 0 -2
BITMAP
0080
0080
1FFE
1080
1080
1080
1080
FFFF
0080
0180
0140
0340
0640
0C41
3863
E03E
ENDCHAR
STARTCHAR uni5143
ENCODING 20803
SWIDTH 1000 0
DWIDTH 16 0
BBX 16 15 0 -2
BITMAP
3FFC
0000
0000
0000
0000
FFFF
0420
0420
0420
0420
0C20
0820
1821
3033
E01E
ENDCHAR
STARTCHAR uni5144
ENCODING 20804
SWIDTH 1000 0
DWIDTH 16 0
BBX 14 14 1 -1
BITMAP
7FF0
4010
4010
4010
4010
7FF0
0900
0900
0900
1100
1100
2104
4104
80FC
ENDCHAR
STARTCHAR uni5145
ENCODING 20805
SWIDTH 1000 0
DWIDTH 16 0
BBX 16 16 0 -2
BITMAP
0100
0100
FFFF
0400
0410
0C10
09F8
3F4C
0440
0440
0440
0C40
0840
1841
3063
E03E
ENDCHAR
STARTCHAR uni5146
ENCODING 20806
SWIDTH 1000 0
DWIDTH 16 0
BBX 15 15 0 -1
BITMAP
0480
0484
4484
2488
1490
04A0
0480
0CC0
14A0
2490
4488
0880
1082
2082
C07E
ENDCHAR
STARTCHAR uni5147
ENCODING 20807
SWIDTH 1000 0
DWIDTH 16 0
BBX 14 15 1 -1
BITMAP
4050
5890
4510
4210
4510
4890
5050
7FF0
0900
0900
0900
1100
1104
2104
C0FC
ENDCHAR
STARTCHAR uni5148
ENCODING 20808
SWIDTH 1000 0
DWIDTH 16 0
BBX 15 15 0 -1
BITMAP
1080
1080
1080
3FFC
2080
4080
0080
FFFE
0240
0240
0440
0840
1042
2042
C03E
ENDCHAR
STARTCHAR uni5149
ENCODING 20809
SWIDTH 1000 0
DWIDTH 16 0
BBX 16 16 0 -2
BITMAP
0100
4104
610C
3118
1930
0920
0100
FFFF
0440
0440
0440
0C40
0840
1841
3063
E03E
ENDCHAR
STARTCHAR uni514A
ENCODING 20810
SWIDTH 1000 0
DWIDTH 16 0
BBX 16 16 0 -2
BITMAP
05E0
0C30
3A1C
E607
0410
0410
0FF8
380C
0000
0420
0420
0C20
0820
1821
3033
E01E
ENDCHAR
STARTCHAR uni514B
ENCODING 20811
SWIDTH 1000 0
DWIDTH 16 0
BBX 16 16 0 -2
BITMAP
0100
0100
FFFF
0100
0100
3FFC
2004
2004
2004
3FFC
0440
0440
0C40
1841
3063
E03E
ENDCHAR
STARTCHAR uni514C
ENCODING 20812
SWIDTH 1000 0
DWIDTH 16 0
BBX 15 15 0 -1
BITMAP
17F0
1010
2008
7FFE
A008
2008
2008
3FF8
0440
0440
0440
0840
0842
1042
603E
ENDCHAR
STARTCHAR uni514D
ENCODING 20813
SWIDTH 1000 0
DWIDTH 16 0
BBX 15 15 0 -1
BITMAP
0800
0FE0
1020
1040
2080
7FF8
A108
2108
3FF8
0480
0480
0880
0882
1082
207E
ENDCHAR
STARTCHAR uni514E
ENCODING 20814
SWIDTH 1000 0
DWIDTH 16 0
BBX 15 15 0 -1
BITMAP
0078
7F80
0100
0100
3FF8
2108
2108
3FF8
0280
02A0
0490
0488
0882
3082
C0FE
ENDCHAR
STARTCHAR uni514F
ENCODING 20815
SWIDTH 1000 0
DWIDTH 16 0
BBX 16 16 0 -2
BITMAP
000E
0078
3FC0
2040
2040
207C
2040
2040
2FFF
2110
2110
6110
4310
C211
0613
0C0E
ENDCHAR
STARTCHAR uni5150
ENCODING 20816
SWIDTH 1000 0
DWIDTH 16 0
BBX 16 15 0 -2
BITMAP
23FC
2204
2204
2204
23FC
2204
2204
2204
23FC
2000
0440
0440
0C41
3863
E03E
ENDCHAR
STARTCHAR uni5152
ENCODING 20818
SWIDTH 1000 0
DWIDTH 16 0
BBX 16 16 0 -2
BITMAP
0300
0E00
387C
2004
2004
3E7C
2004
2004
2004
3FFC
0440
0440
0C40
1841
3063
E03E
ENDCHAR
STARTCHAR uni5153
ENCODING 20819
SWIDTH 1000 0
DWIDTH 16 0
BBX 16 16 0 -2
BITMAP
0404
0404
3F3F
2424
2424
2424
2424
FF7F
0404
0C0C
0C0C
1C1C
1514
3535
6365
C0C3
ENDCHAR
STARTCHAR uni5154
ENCODING 20820
SWIDTH 1000 0
DWIDTH 16 0
BBX 16 16 0 -2
BITMAP
0400
07F0
0C20
1840
3080
FFFC
2104
2104
2104
3FFC
0440
0458
0C4C
1841
3063
E03E
ENDCHAR
STARTCHAR uni5155
ENCODING 20821
SWIDTH 1000 0
DWIDTH 16 0
BBX 16 15 0 -2
BITMAP
3C3C
2424
2424
2424
27E4
2004
2004
2004
3FFC
0420
0C20
0820
1821
3033
E01E
ENDCHAR
STARTCHAR uni5157
ENCODING 20823
SWIDTH 1000 0
DWIDTH 16 0
BBX 16 16 0 -2
BITMAP
0100
0100
FFFF
0000
03E0
1838
300C
7FFE
D00B
1008
1FF8
0420
0C20
1821
3033
E01E
ENDCHAR
STARTCHAR uni5158
ENCODING 20824
SWIDTH 1000 0
DWIDTH 16 0
BBX 16 16 0 -2
BITMAP
0020
7C20
0060
0044
00C4
FE9E
29F2
2800
28FC
2884
2884
2884
68FC
4801
CC03
87FE
ENDCHAR
STARTCHAR uni515A
ENCODING 20826
SWIDTH 1000 0
DWIDTH 16 0
BBX 16 16 0 -2
BITMAP
2104
310C
1108
FFFF
8001
9FF9
9009
1008
1008
1FF8
0440
0440
0C40
1841
3063
E03E
ENDCHAR
STARTCHAR uni515C
ENCODING 20828
SWIDTH 1000 0
DWIDTH 16 0
BBX 14 15 1 -1
BITMAP
1200
2400
CFB8
8888
8888
8F88
8888
8888
EFB8
8000
0900
0904
0904
3104
C0F8
ENDCHAR
STARTCHAR uni515F
ENCODING 20831
SWIDTH 1000 0
DWIDTH 16 0
BBX 16 16 0 -2
BITMAP
1010
5050
5050
FEFE
9090
1010
1010
FEFF
2848
2848
2848
2848
6AC8
4C89
C989
8307
ENDCHAR
STARTCHAR uni5160
ENCODING 20832
SWIDTH 1000 0
DWIDTH 16 0
BBX 16 16 0 -2
BITMAP
1088
1108
17EB
F42E
1428
17E8
1428
7429
D7EB
1006
0440
0440
0C40
1841
3063
E03E
ENDCHAR
STARTCHAR uni5162
ENCODING 20834
SWIDTH 1000 0
DWIDTH 16 0
BBX 15 15 0 -1
BITMAP
1020
1020
FFFE
1020
1020
7EFC
4284
4284
7EFC
2850
2850
2950
2A52
4C92
810E
ENDCHAR
STARTCHAR uni5164
ENCODING 20836
SWIDTH 1000 0
DWIDTH 16 0
BBX 16 16 0 -2
BITMAP
1010
11FE
9544
55FE
5544
117C
FF00
29FE
2910
297C
2954
297C
6A54
487D
CC83
87FE
ENDCHAR
STARTCHAR uni5165
ENCODING 20837
SWIDTH 1000 0
DWIDTH 16 0
BBX 16 15 0 -2
BITMAP
1F00
0100
0100
0100
0100
0100
0380
0280
02C0
0640
0460
0C30
1818
300C
E007
ENDCHAR
STARTCHAR uni5166
ENCODING 20838
SWIDTH 1000 0
DWIDTH 16 0
BBX 15 15 1 -1
BITMAP
8000
8F80
8080
8080
8080
8080
81C0
8140
8360
8220
8630
8C18
980C
C000
7FFE
ENDCHAR
STARTCHAR uni5167
ENCODING 20839
SWIDTH 1000 0
DWIDTH 16 0
BBX 13 15 1 -1
BITMAP
1E00
0200
0200
FFF8
8208
8208
8208
8508
8908
9088
A048
C028
8018
8008
8038
ENDCHAR
STARTCHAR uni5168
ENCODING 20840
SWIDTH 1000 0
DWIDTH 16 0
BBX 16 15 0 -1
BITMAP
0100
0380
06C0
0C70
381C
E007
1FF8
0100
0100
0100
1FF8
0100
0100
0100
7FFE
ENDCHAR
STARTCHAR uni5169
ENCODING 20841
SWIDTH 1000 0
DWIDTH 16 0
BBX 16 15 0 -2
BITMAP
FFFF
0100
0100
7FFE
4102
4102
7972
4912
4912
5D3A
552A
6346
4102
4102
410E
ENDCHAR
STARTCHAR uni516A
ENCODING 20842
SWIDTH 1000 0
DWIDTH 16 0
BBX 16 16 0 -2
BITMAP
0100
0380
06C0
0C70
381C
EFF7
0000
7E22
4226
5264
4A4C
42D8
524C
4A64
4226
4E22
ENDCHAR
STARTCHAR uni516B
ENCODING 20843
SWIDTH 1000 0
DWIDTH 16 0
BBX 16 14 0 -1
BITMAP
0420
0420
0420
0420
0420
0420
0C30
0810
0810
1818
1008
300C
6006
C003
ENDCHAR
STARTCHAR uni516C
ENCODING 20844
SWIDTH 1000 0
DWIDTH 16 0
BBX 15 15 0 -1
BITMAP
0440
0820
0820
1010
2008
4004
8202
0200
0400
0420
0810
0808
10FC
7F04
0004
ENDCHAR
STARTCHAR uni516D
ENCODING 20845
SWIDTH 1000 0
DWIDTH 16 0
BBX 16 16 0 -2
BITMAP
0100
0100
0100
0100
FFFF
0000
0000
0000
0810
0810
1818
1008
300C
2004
6006
C003
ENDCHAR
STARTCHAR uni516E
ENCODING 20846
SWIDTH 1000 0
DWIDTH 16 0
BBX 15 15 0 -1
BITMAP
0440
0820
1010
2008
5FE4
8402
0400
0800
0FF8
1008
2008
0010
0010
0020
01C0
ENDCHAR
STARTCHAR uni5171
ENCODING 20849
SWIDTH 1000 0
DWIDTH 16 0
BBX 15 15 0 -1
BITMAP
0820
0820
0820
0820
7FFC
0820
0820
0820
0820
FFFE
0000
0820
1010
2008
4004
ENDCHAR
STARTCHAR uni5173
ENCODING 20851
SWIDTH 1000 0
DWIDTH 16 0
BBX 14 16 1 -2
BITMAP
1010
1830
0C60
0440
3FF8
0100
0100
0100
7FFC
0280
0280
06C0
0440
0C60
3830
E01C
ENDCHAR
STARTCHAR uni5175
ENCODING 20853
SWIDTH 1000 0
DWIDTH 16 0
BBX 16 16 0 -2
BITMAP
0030
01E0
0F00
0800
0FFC
0820
0820
0820
0820
0820
FFFF
0000
0810
1818
300C
6006
ENDCHAR
STARTCHAR uni5176
ENCODING 20854
SWIDTH 1000 0
DWIDTH 16 0
BBX 15 15 0 -1
BITMAP
0820
0820
7FFC
0820
0820
0FE0
0820
0820
0FE0
0820
0820
FFFE
0820
1010
2008
ENDCHAR
STARTCHAR uni5177
ENCODING 20855
SWIDTH 1000 0
DWIDTH 16 0
BBX 15 15 0 -1
BITMAP
1FF0
1010
1010
1FF0
1010
1010
1FF0
1010
1010
1FF0
1010
FFFE
0820
3018
C006
ENDCHAR
STARTCHAR uni5178
ENCODING 20856
SWIDTH 1000 0
DWIDTH 16 0
BBX 16 16 0 -2
BITMAP
0440
0440
0440
3FFC
2444
2444
2444
3FFC
2444
2444
2444
FFFF
0000
0810
381C
E007
ENDCHAR
STARTCHAR uni517B
ENCODING 20859
SWIDTH 1000 0
DWIDTH 16 0
BBX 16 16 0 -2
BITMAP
0820
0440
7FFE
0100
3FFC
0100
FFFF
0380
06C0
0C70
381C
E817
0810
0810
1810
3010
ENDCHAR
STARTCHAR uni517C
ENCODING 20860
SWIDTH 1000 0
DWIDTH 16 0
BBX 16 16 0 -2
BITMAP
1008
0810
7FFE
0240
3FFC
0244
0244
FFFF
0244
0244
3FFC
0A50
1A58
324C
E247
0240
ENDCHAR
STARTCHAR uni517E
ENCODING 20862
SWIDTH 1000 0
DWIDTH 16 0
BBX 16 16 0 -2
BITMAP
0BF0
1818
300C
E007
3FFC
2104
3FFC
2104
3FFC
0420
7FFE
0420
FFFF
0810
381C
E007
ENDCHAR
STARTCHAR uni5180
ENCODING 20864
SWIDTH 1000 0
DWIDTH 16 0
BBX 15 15 0 -1
BITMAP
7C80
04FA
1C82
647C
3FF8
2108
3FF8
2108
3FF8
0440
7FFC
0440
FFFE
0820
701C
ENDCHAR
STARTCHAR uni5182
ENCODING 20866
SWIDTH 1000 0
DWIDTH 16 0
BBX 14 15 1 -2
BITMAP
FFFC
8004
8004
8004
8004
8004
8004
8004
8004
8004
8004
8004
8004
8004
801C
ENDCHAR
STARTCHAR uni5183
ENCODING 20867
SWIDTH 1000 0
DWIDTH 16 0
BBX 12 15 2 -2
BITMAP
FFF0
8010
8010
8010
BFD0
8010
8010
8010
BFD0
8010
8010
8010
8010
8010
8070
ENDCHAR
STARTCHAR uni5184
ENCODING 20868
SWIDTH 1000 0
DWIDTH 16 0
BBX 14 15 1 -2
BITMAP
3FF0
2010
2010
2010
FFFC
2010
2010
2010
FFFC
2010
2010
2010
2010
2010
2070
ENDCHAR
STARTCHAR uni5185
ENCODING 20869
SWIDTH 1000 0
DWIDTH 16 0
BBX 14 16 1 -2
BITMAP
0200
0200
0200
FFFC
8204
8204
8704
8584
8CC4
9864
B034
8004
8004
8004
8004
801C
ENDCHAR
STARTCHAR uni5186
ENCODING 20870
SWIDTH 1000 0
DWIDTH 16 0
BBX 14 14 1 -1
BITMAP
FFFC
8204
8204
8204
8204
8204
8204
FFFC
8004
8004
8004
8004
8004
801C
ENDCHAR
STARTCHAR uni5189
ENCODING 20873
SWIDTH 1000 0
DWIDTH 16 0
BBX 16 16 0 -2
BITMAP
0100
0100
0100
3FFC
2104
2104
3FFC
2104
2104
2104
FFFF
2004
2004
2004
2004
201C
ENDCHAR
STARTCHAR uni518A
ENCODING 20874
SWIDTH 1000 0
DWIDTH 16 0
BBX 15 15 0 -1
BITMAP
3E7C
2244
2244
2244
2244
2244
FFFE
2244
2244
2244
2244
2244
4244
4244
8E8C
ENDCHAR
STARTCHAR uni518B
ENCODING 20875
SWIDTH 1000 0
DWIDTH 16 0
BBX 14 15 1 -2
BITMAP
FFFC
8004
8004
8004
8FC4
8844
8844
8844
8844
8FC4
8004
8004
8004
8004
801C
ENDCHAR
STARTCHAR uni518C
ENCODING 20876
SWIDTH 1000 0
DWIDTH 16 0
BBX 16 15 0 -2
BITMAP
3E7C
2244
2244
2244
2244
2244
FFFF
2244
2244
2244
2244
2244
62C4
4E84
C19C
ENDCHAR
STARTCHAR uni518D
ENCODING 20877
SWIDTH 1000 0
DWIDTH 16 0
BBX 15 15 0 -1
BITMAP
FFFE
0100
3FF8
2108
2108
2108
3FF8
2108
2108
2108
FFFE
2008
2008
2008
2018
ENDCHAR
STARTCHAR uni518E
ENCODING 20878
SWIDTH 1000 0
DWIDTH 16 0
BBX 14 15 1 -2
BITMAP
3FF0
2010
2010
23F0
2210
2210
2210
FFFC
8004
8004
8004
8004
8004
8004
801C
ENDCHAR
STARTCHAR uni518F
ENCODING 20879
SWIDTH 1000 0
DWIDTH 16 0
BBX 14 15 1 -2
BITMAP
FFFC
8884
8884
8884
98F4
B004
8004
8FC4
8844
8844
8844
8FC4
8004
8004
801C
ENDCHAR
STARTCHAR uni5190
ENCODING 20880
SWIDTH 1000 0
DWIDTH 16 0
BBX 14 15 1 -2
BITMAP
FFFC
8004
BFF4
8004
BFF4
0000
0000
3FF0
2010
3FF0
2010
3FF0
2010
2010
2070
ENDCHAR
STARTCHAR uni5191
ENCODING 20881
SWIDTH 1000 0
DWIDTH 16 0
BBX 14 16 1 -2
BITMAP
0200
0200
FFFC
8204
FFFC
8204
FFFC
0000
7FF8
4008
5FE8
4008
5FE8
4008
4008
4038
ENDCHAR
STARTCHAR uni5192
ENCODING 20882
SWIDTH 1000 0
DWIDTH 16 0
BBX 13 15 1 -1
BITMAP
FFF8
8008
FFF8
8008
FFF8
0000
7FF0
4010
7FF0
4010
4010
7FF0
4010
4010
7FF0
ENDCHAR
STARTCHAR uni5193
ENCODING 20883
SWIDTH 1000 0
DWIDTH 16 0
BBX 16 16 0 -2
BITMAP
0420
0420
7FFE
0420
3FFC
0420
FFFF
0100
1FF8
1108
1FF8
1108
FFFF
1008
1008
1038
ENDCHAR
STARTCHAR uni5195
ENCODING 20885
SWIDTH 1000 0
DWIDTH 16 0
BBX 16 16 0 -2
BITMAP
3FFC
2004
2FF4
2004
2FF4
0400
0FE0
3040
FFFC
2104
2104
3FFC
0440
0C41
3863
E03E
ENDCHAR
STARTCHAR uni5196
ENCODING 20886
SWIDTH 1000 0
DWIDTH 16 0
BBX 14 4 1 4
BITMAP
FFFC
8004
8004
8004
ENDCHAR
STARTCHAR uni5197
ENCODING 20887
SWIDTH 1000 0
DWIDTH 16 0
BBX 15 15 0 -1
BITMAP
FFFE
8002
8002
0FE0
0820
0820
0820
0820
0820
0820
1020
1020
1022
2022
C03C
ENDCHAR
STARTCHAR uni5198
ENCODING 20888
SWIDTH 1000 0
DWIDTH 16 0
BBX 16 16 0 -2
BITMAP
0100
0100
0100
7FFE
4102
4102
4102
0380
0280
0280
0680
0480
0C80
1881
30C3
E07E
ENDCHAR
STARTCHAR uni5199
ENCODING 20889
SWIDTH 1000 0
DWIDTH 16 0
BBX 16 14 0 -1
BITMAP
7FFE
4002
4402
47F2
0400
0400
07E0
0020
FFFF
0020
0020
0060
0040
03C0
ENDCHAR
STARTCHAR uni519D
ENCODING 20893
SWIDTH 1000 0
DWIDTH 16 0
BBX 16 14 0 -1
BITMAP
7FFE
4002
4002
4FF2
0810
0810
0FF0
0810
0810
0FF0
0810
0810
0810
FFFF
ENDCHAR
STARTCHAR uni51A0
ENCODING 20896
SWIDTH 1000 0
DWIDTH 16 0
BBX 15 15 0 -1
BITMAP
FFFC
8004
8014
3C10
01FC
0010
FE10
2490
2450
2450
2410
2410
4432
4402
83FE
ENDCHAR
STARTCHAR uni51A1
ENCODING 20897
SWIDTH 1000 0
DWIDTH 16 0
BBX 16 15 0 -2
BITMAP
7FFE
4002
5FFA
0000
7FFE
0200
0D06
718C
0698
1CC0
71E0
06B0
1C9C
F187
0700
ENDCHAR
STARTCHAR uni51A2
ENCODING 20898
SWIDTH 1000 0
DWIDTH 16 0
BBX 16 15 0 -2
BITMAP
7FFE
4002
4002
1FF8
0100
0200
0D04
710C
0298
0CC0
71E0
06B0
1C9C
F187
0700
ENDCHAR
STARTCHAR uni51A3
ENCODING 20899
SWIDTH 1000 0
DWIDTH 16 0
BBX 15 15 1 -2
BITMAP
FFFC
8004
8004
7E00
25F8
2488
3C88
24D8
2450
3C70
2420
2470
3C58
64CC
0586
ENDCHAR
STARTCHAR uni51A4
ENCODING 20900
SWIDTH 1000 0
DWIDTH 16 0
BBX 16 15 0 -2
BITMAP
7FFE
4002
5FF2
0410
1860
FFFC
2104
2104
3FFC
0240
0658
0C4C
1841
3063
E03E
ENDCHAR
STARTCHAR uni51A5
ENCODING 20901
SWIDTH 1000 0
DWIDTH 16 0
BBX 15 14 0 -1
BITMAP
FFFE
8002
9FF2
1010
1FF0
1010
1FF0
0100
0100
FFFE
0440
0820
3018
C006
ENDCHAR
STARTCHAR uni51A6
ENCODING 20902
SWIDTH 1000 0
DWIDTH 16 0
BBX 16 15 0 -2
BITMAP
FFFF
8001
8011
7E1E
0010
00FC
FF44
246C
2428
2438
246C
24C6
6401
4603
C3FE
ENDCHAR
STARTCHAR uni51A8
ENCODING 20904
SWIDTH 1000 0
DWIDTH 16 0
BBX 14 15 1 -2
BITMAP
FFFC
8004
BFF4
0000
1FE0
1020
1FE0
0000
7FF8
4208
4208
7FF8
4208
4208
7FF8
ENDCHAR
STARTCHAR uni51A9
ENCODING 20905
SWIDTH 1000 0
DWIDTH 16 0
BBX 15 15 0 -2
BITMAP
7FFE
4002
4702
1C78
1008
1E78
1008
1FF8
0800
1FFE
3022
E492
1256
1244
201C
ENDCHAR
STARTCHAR uni51AA
ENCODING 20906
SWIDTH 1000 0
DWIDTH 16 0
BBX 16 16 0 -2
BITMAP
FFFF
8421
BFFD
0420
1FF8
1008
1FF8
1008
1FF8
0200
FFFF
0910
3FFC
E107
211C
0100
ENDCHAR
STARTCHAR uni51AB
ENCODING 20907
SWIDTH 1000 0
DWIDTH 16 0
BBX 6 14 5 -1
BITMAP
C0
60
30
10
00
00
04
0C
08
18
30
20
60
C0
ENDCHAR
STARTCHAR uni51AC
ENCODING 20908
SWIDTH 1000 0
DWIDTH 16 0
BBX 15 15 0 -1
BITMAP
0200
07F0
0810
1420
6240
0180
0180
0260
0C18
3106
C080
0000
0060
0180
0600
ENDCHAR
STARTCHAR uni51AD
ENCODING 20909
SWIDTH 1000 0
DWIDTH 16 0
BBX 16 16 0 -2
BITMAP
0100
0100
0100
FFFF
0240
0660
0C30
1818
338C
E0E7
0000
0000
0070
01C0
0700
0C00
ENDCHAR
STARTCHAR uni51B0
ENCODING 20912
SWIDTH 1000 0
DWIDTH 16 0
BBX 16 16 0 -2
BITMAP
0040
6040
3040
1042
0F46
016C
0168
0150
1350
1258
3248
264C
6446
4C43
C040
01C0
ENDCHAR
STARTCHAR uni51B1
ENCODING 20913
SWIDTH 1000 0
DWIDTH 16 0
BBX 16 14 0 -1
BITMAP
67FE
3080
1080
0080
01F8
0108
0108
1308
1208
33F8
2010
6010
4010
CFFF
ENDCHAR
STARTCHAR uni51B2
ENCODING 20914
SWIDTH 1000 0
DWIDTH 16 0
BBX 16 16 0 -2
BITMAP
0020
6020
3020
1020
07FF
0421
0421
0421
1421
17FF
3020
2020
6020
4020
C020
0020
ENDCHAR
STARTCHAR uni51B3
ENCODING 20915
SWIDTH 1000 0
DWIDTH 16 0
BBX 16 16 0 -2
BITMAP
0040
6040
3040
13FC
0044
0044
0044
0044
17FF
10A0
30B0
2190
6118
430C
C606
0C03
ENDCHAR
STARTCHAR uni51B4
ENCODING 20916
SWIDTH 1000 0
DWIDTH 16 0
BBX 16 15 0 -2
BITMAP
63FE
3088
1088
0088
0088
0088
03FF
0828
1868
1048
30C8
2188
6308
CE08
0038
ENDCHAR
STARTCHAR uni51B5
ENCODING 20917
SWIDTH 1000 0
DWIDTH 16 0
BBX 16 15 0 -2
BITMAP
63FC
3204
1204
0204
0204
0204
03FC
1090
1090
3090
2090
6190
4111
C313
0E0E
ENDCHAR
STARTCHAR uni51B6
ENCODING 20918
SWIDTH 1000 0
DWIDTH 16 0
BBX 15 15 0 -1
BITMAP
0040
8080
4100
2110
0208
043C
1FC2
0002
2000
27F8
4408
4408
8408
8408
07F8
ENDCHAR
STARTCHAR uni51B7
ENCODING 20919
SWIDTH 1000 0
DWIDTH 16 0
BBX 15 15 0 -1
BITMAP
0040
80A0
4110
2208
0404
0BF2
0000
0000
27FC
2084
2084
4084
4084
8098
8080
ENDCHAR
STARTCHAR uni51B8
ENCODING 20920
SWIDTH 1000 0
DWIDTH 16 0
BBX 16 16 0 -2
BITMAP
0020
6124
3326
1222
0020
03FE
0020
0020
1020
17FF
3020
2020
6020
4020
C020
0020
ENDCHAR
STARTCHAR uni51BA
ENCODING 20922
SWIDTH 1000 0
DWIDTH 16 0
BBX 16 15 0 -2
BITMAP
63FE
3202
1202
0202
03FE
0210
0210
13FF
1210
3210
2218
6208
42CD
C387
0E02
ENDCHAR
STARTCHAR uni51BC
ENCODING 20924
SWIDTH 1000 0
DWIDTH 16 0
BBX 16 16 0 -2
BITMAP
0020
6120
3120
11FE
0320
0620
0020
07FF
1088
1088
3088
2088
6188
4109
C309
0607
ENDCHAR
STARTCHAR uni51BD
ENCODING 20925
SWIDTH 1000 0
DWIDTH 16 0
BBX 14 15 0 -1
BITMAP
0004
8FC4
4204
2224
0224
03A4
04A4
04A4
2AA4
22A4
2124
4124
8204
8404
080C
ENDCHAR
STARTCHAR uni51BE
ENCODING 20926
SWIDTH 1000 0
DWIDTH 16 0
BBX 16 16 0 -2
BITMAP
0020
6070
3050
10D8
018C
0306
06FB
0000
1000
11FC
3104
2104
6104
4104
C104
01FC
ENDCHAR
STARTCHAR uni51BF
ENCODING 20927
SWIDTH 1000 0
DWIDTH 16 0
BBX 16 16 0 -2
BITMAP
0020
63FE
3022
1022
07FF
0022
0022
03FE
1020
1020
33FE
2020
6020
47FF
C020
0020
ENDCHAR
STARTCHAR uni51C2
ENCODING 20930
SWIDTH 1000 0
DWIDTH 16 0
BBX 16 16 0 -2
BITMAP
0080
60FC
3188
1318
0610
03FE
0222
0222
1262
13FE
30D0
2090
6190
4111
C313
0E0E
ENDCHAR
STARTCHAR uni51C3
ENCODING 20931
SWIDTH 1000 0
DWIDTH 16 0
BBX 16 16 0 -2
BITMAP
0040
60E0
30A0
11B0
0318
060C
0DF7
0040
1040
17FC
3040
2248
6248
464C
CC46
01C0
ENDCHAR
STARTCHAR uni51C4
ENCODING 20932
SWIDTH 1000 0
DWIDTH 16 0
BBX 15 15 0 -1
BITMAP
0080
8FFE
4080
27F8
0088
1FFE
0088
07F8
2080
2FFE
4210
4420
87C0
80B0
0708
ENDCHAR
STARTCHAR uni51C5
ENCODING 20933
SWIDTH 1000 0
DWIDTH 16 0
BBX 16 14 0 -1
BITMAP
67FF
3401
1421
05FD
0421
0421
04F9
1489
1489
3489
24F9
6401
4401
C7FF
ENDCHAR
STARTCHAR uni51C6
ENCODING 20934
SWIDTH 1000 0
DWIDTH 16 0
BBX 15 15 0 -1
BITMAP
0110
8110
4220
23FE
0620
0A20
1220
03FC
0220
1220
23FC
2220
4220
8220
03FE
ENDCHAR
STARTCHAR uni51C8
ENCODING 20936
SWIDTH 1000 0
DWIDTH 16 0
BBX 16 16 0 -2
BITMAP
0006
603C
33E6
10A3
0111
03FE
0022
0022
17FF
1022
3022
23FE
6020
4020
C020
00E0
ENDCHAR
STARTCHAR uni51C9
ENCODING 20937
SWIDTH 1000 0
DWIDTH 16 0
BBX 15 15 0 -1
BITMAP
0040
8040
4FFE
2000
0000
07FC
0404
2404
27FC
2040
4250
4248
8444
8844
01C0
ENDCHAR
STARTCHAR uni51CA
ENCODING 20938
SWIDTH 1000 0
DWIDTH 16 0
BBX 16 16 0 -2
BITMAP
0020
6020
33FE
1020
01FC
0020
07FF
0000
11FC
1124
3124
2124
61FC
4104
C104
011C
ENDCHAR
STARTCHAR uni51CB
ENCODING 20939
SWIDTH 1000 0
DWIDTH 16 0
BBX 14 15 0 -1
BITMAP
8FFC
4804
2884
0884
0BF4
0884
2BF4
2884
2804
29E4
4924
4924
49E4
8804
881C
ENDCHAR
STARTCHAR uni51CC
ENCODING 20940
SWIDTH 1000 0
DWIDTH 16 0
BBX 15 15 0 -1
BITMAP
0040
87FC
4040
2FFE
0120
0122
021E
2500
21F8
2208
4510
48A0
8040
81B0
0E0E
ENDCHAR
STARTCHAR uni51CD
ENCODING 20941
SWIDTH 1000 0
DWIDTH 16 0
BBX 15 15 0 -1
BITMAP
0040
8040
4FFE
2040
07FC
0444
0444
27FC
2444
2444
47FC
40E0
8150
8248
0C46
ENDCHAR
STARTCHAR uni51CF
ENCODING 20943
SWIDTH 1000 0
DWIDTH 16 0
BBX 16 16 0 -2
BITMAP
0014
6012
3012
17FF
0410
05D2
0412
05D6
1554
155C
3548
25C8
641D
4C35
C867
18C2
ENDCHAR
STARTCHAR uni51D1
ENCODING 20945
SWIDTH 1000 0
DWIDTH 16 0
BBX 16 16 0 -2
BITMAP
0020
6020
33FE
1020
01FC
0050
07FF
0088
1134
16E3
3020
23FE
6050
40D8
C18C
0707
ENDCHAR
STARTCHAR uni51D2
ENCODING 20946
SWIDTH 1000 0
DWIDTH 16 0
BBX 16 15 0 -1
BITMAP
0020
6222
3222
13FE
0000
07FF
0000
01FC
1104
1104
31FC
2088
60D8
4050
C7FF
ENDCHAR
STARTCHAR uni51D3
ENCODING 20947
SWIDTH 1000 0
DWIDTH 16 0
BBX 16 15 0 -2
BITMAP
67FF
3090
1090
03FE
0292
0292
03FE
1020
17FF
30A8
21AC
6124
4326
C623
0020
ENDCHAR
STARTCHAR uni51D5
ENCODING 20949
SWIDTH 1000 0
DWIDTH 16 0
BBX 16 15 0 -2
BITMAP
67FF
3401
15FD
0104
0104
01FC
0104
1104
11FC
3020
27FF
6000
4088
C18C
0707
ENDCHAR
STARTCHAR uni51D6
ENCODING 20950
SWIDTH 1000 0
DWIDTH 16 0
BBX 16 16 0 -2
BITMAP
0088
6110
33FE
0620
0BFC
0220
13FC
3220
6220
C3FE
0000
0100
FFFF
0100
0100
0100
ENDCHAR
STARTCHAR uni51D8
ENCODING 20952
SWIDTH 1000 0
DWIDTH 16 0
BBX 16 16 0 -2
BITMAP
0482
C48E
6FD8
2490
0490
079F
0494
0494
2794
2494
2494
6FD4
4514
4594
CCA4
0804
ENDCHAR
STARTCHAR uni51DB
ENCODING 20955
SWIDTH 1000 0
DWIDTH 16 0
BBX 16 16 0 -2
BITMAP
0020
67FF
3000
13FE
0202
02FA
028A
02FA
1202
13FE
3000
23FE
6000
47FF
C124
0663
ENDCHAR
STARTCHAR uni51DC
ENCODING 20956
SWIDTH 1000 0
DWIDTH 16 0
BBX 15 15 0 -1
BITMAP
0040
8FFE
4404
25F4
0514
05F4
0404
07FC
2008
27F0
4040
4FFE
80E0
8150
0648
ENDCHAR
STARTCHAR uni51DD
ENCODING 20957
SWIDTH 1000 0
DWIDTH 16 0
BBX 15 15 0 -1
BITMAP
0800
887E
4F04
2828
0F90
007E
0412
2F14
2A50
225C
4F50
4250
8550
88B0
110E
ENDCHAR
STARTCHAR uni51DE
ENCODING 20958
SWIDTH 1000 0
DWIDTH 16 0
BBX 15 14 0 -1
BITMAP
1FBE
9222
5222
17A2
14BE
17A0
3220
5222
9FBC
0000
1248
1224
1222
2222
ENDCHAR
STARTCHAR uni51E0
ENCODING 20960
SWIDTH 1000 0
DWIDTH 16 0
BBX 16 15 0 -2
BITMAP
0FE0
0820
0820
0820
0820
0820
0820
0820
0820
0820
1820
1020
3021
6033
C01E
ENDCHAR
STARTCHAR uni51E1
ENCODING 20961
SWIDTH 1000 0
DWIDTH 16 0
BBX 15 15 0 -1
BITMAP
1FE0
1020
1020
1020
1420
1220
1120
1120
10A0
20A0
2020
2020
4022
4022
801E
ENDCHAR
STARTCHAR uni51E2
ENCODING 20962
SWIDTH 1000 0
DWIDTH 16 0
BBX 16 16 0 -2
BITMAP
0080
0180
0100
0FE0
0820
0820
0820
0820
0820
0820
0820
0820
1820
1021
3033
E01E
ENDCHAR
STARTCHAR uni51E5
ENCODING 20965
SWIDTH 1000 0
DWIDTH 16 0
BBX 16 15 0 -2
BITMAP
3FFE
2002
2002
3FFE
2000
23F0
2210
2210
2210
2210
2210
6210
4611
CC1B
180E
ENDCHAR
STARTCHAR uni51E6
ENCODING 20966
SWIDTH 1000 0
DWIDTH 16 0
BBX 16 16 0 -2
BITMAP
2000
207C
2044
3E44
2244
2244
6644
5444
D444
1C44
08C5
1C85
1583
3600
6300
C1FF
ENDCHAR
STARTCHAR uni51E7
ENCODING 20967
SWIDTH 1000 0
DWIDTH 16 0
BBX 16 15 0 -2
BITMAP
3FF8
2008
2108
2108
2FE8
2928
2928
2928
2928
2928
2928
296C
6105
4107
C002
ENDCHAR
STARTCHAR uni51E9
ENCODING 20969
SWIDTH 1000 0
DWIDTH 16 0
BBX 16 15 0 -2
BITMAP
3FF8
2008
2108
2108
2FE8
2108
2108
2388
2388
2548
2548
292C
6105
4107
C002
ENDCHAR
STARTCHAR uni51EA
ENCODING 20970
SWIDTH 1000 0
DWIDTH 16 0
BBX 16 15 0 -2
BITMAP
3FF8
2008
2088
2088
2088
2488
24E8
2488
2488
2488
2488
248C
6485
5FF7
C002
ENDCHAR
STARTCHAR uni51ED
ENCODING 20973
SWIDTH 1000 0
DWIDTH 16 0
BBX 16 16 0 -2
BITMAP
080C
1838
31E0
6020
E7FF
2020
2020
23FE
2000
0000
0FE0
0820
0820
1821
3033
E01E
ENDCHAR
STARTCHAR uni51EE
ENCODING 20974
SWIDTH 1000 0
DWIDTH 16 0
BBX 16 15 0 -2
BITMAP
3FF8
2008
2008
27E8
2108
2208
27E8
2428
2428
27E8
2428
242C
6425
47E7
C002
ENDCHAR
STARTCHAR uni51F0
ENCODING 20976
SWIDTH 1000 0
DWIDTH 16 0
BBX 15 15 0 -1
BITMAP
3FF8
2108
2FE8
2828
2FE8
2828
2FE8
2008
2FE8
2108
2FEA
210A
410A
5FF6
8002
ENDCHAR
STARTCHAR uni51F1
ENCODING 20977
SWIDTH 1000 0
DWIDTH 16 0
BBX 15 15 0 -1
BITMAP
0800
4978
4948
7F48
0048
FF48
0048
7E48
4248
4248
7E88
0288
448A
290A
FD0E
ENDCHAR
STARTCHAR uni51F2
ENCODING 20978
SWIDTH 1000 0
DWIDTH 16 0
BBX 16 16 0 -2
BITMAP
3FFC
2004
2124
2244
2FF4
2284
27E4
22A4
2FF4
22A4
27E4
22C4
26A4
6EB5
4A97
C002
ENDCHAR
STARTCHAR uni51F3
ENCODING 20979
SWIDTH 1000 0
DWIDTH 16 0
BBX 16 16 0 -2
BITMAP
1E88
4252
2424
1FF8
E007
0FF0
0810
0FF0
0420
7FFE
0000
0FE0
0820
1821
3033
E01E
ENDCHAR
STARTCHAR uni51F4
ENCODING 20980
SWIDTH 1000 0
DWIDTH 16 0
BBX 16 16 0 -2
BITMAP
63FE
3220
13FC
0220
03FC
1220
33FF
6009
C525
0893
0000
0FE0
0820
1821
3033
E01E
ENDCHAR
STARTCHAR uni51F5
ENCODING 20981
SWIDTH 1000 0
DWIDTH 16 0
BBX 14 15 1 -1
BITMAP
8004
8004
8004
8004
8004
8004
8004
8004
8004
8004
8004
8004
8004
8004
FFFC
ENDCHAR
STARTCHAR uni51F6
ENCODING 20982
SWIDTH 1000 0
DWIDTH 16 0
BBX 13 15 1 -1
BITMAP
8048
8048
9048
8888
8488
8308
8108
8288
8448
8828
9028
A008
8008
FFF8
8008
ENDCHAR
STARTCHAR uni51F7
ENCODING 20983
SWIDTH 1000 0
DWIDTH 16 0
BBX 14 14 1 -1
BITMAP
0200
8204
8204
8204
9FE4
8204
8204
8204
8204
8204
BFF4
8004
8004
FFFC
ENDCHAR
STARTCHAR uni51F8
ENCODING 20984
SWIDTH 1000 0
DWIDTH 16 0
BBX 13 14 1 -1
BITMAP
1FC0
1040
1040
1040
1040
1040
F078
8008
8008
8008
8008
8008
8008
FFF8
ENDCHAR
STARTCHAR uni51F9
ENCODING 20985
SWIDTH 1000 0
DWIDTH 16 0
BBX 13 15 1 -1
BITMAP
F8F8
8888
8888
8888
8888
8888
8F88
8008
8008
8008
8008
8008
8008
FFF8
8008
ENDCHAR
STARTCHAR uni51FA
ENCODING 20986
SWIDTH 1000 0
DWIDTH 16 0
BBX 13 15 1 -1
BITMAP
0200
4210
4210
4210
4210
7FF0
4210
0200
8208
8208
8208
8208
8208
FFF8
8008
ENDCHAR
STARTCHAR uni51FD
ENCODING 20989
SWIDTH 1000 0
DWIDTH 16 0
BBX 15 15 0 -1
BITMAP
FFFE
0200
0400
4704
5114
4924
4944
4104
4344
4524
4914
5114
4704
4004
7FFC
ENDCHAR
STARTCHAR uni51FE
ENCODING 20990
SWIDTH 1000 0
DWIDTH 16 0
BBX 14 15 1 -2
BITMAP
7FF0
0060
0180
0200
8204
BBF4
AA94
AA94
AAA4
AA44
BA64
82B4
8E04
8004
FFFC
ENDCHAR
STARTCHAR uni5200
ENCODING 20992
SWIDTH 1000 0
DWIDTH 16 0
BBX 13 14 0 -1
BITMAP
7FF8
0208
0208
0208
0208
0208
0208
0408
0408
0408
0808
0810
3010
C0E0
ENDCHAR
STARTCHAR uni5201
ENCODING 20993
SWIDTH 1000 0
DWIDTH 16 0
BBX 14 13 1 -1
BITMAP
FFFC
0004
0004
0004
0004
00E4
0784
3C04
E004
000C
0008
0008
0018
ENDCHAR
STARTCHAR uni5202
ENCODING 20994
SWIDTH 1000 0
DWIDTH 16 0
BBX 5 16 8 -2
BITMAP
08
88
88
88
88
88
88
88
88
88
88
08
08
08
08
38
ENDCHAR
STARTCHAR uni5203
ENCODING 20995
SWIDTH 1000 0
DWIDTH 16 0
BBX 13 14 0 -1
BITMAP
7FF8
0208
0208
0208
0A08
0608
0208
0308
0508
0888
1008
2008
4010
8060
ENDCHAR
STARTCHAR uni5204
ENCODING 20996
SWIDTH 1000 0
DWIDTH 16 0
BBX 16 15 0 -2
BITMAP
7FFC
0104
0104
2104
3304
1A04
0E04
070C
0588
0CE8
0838
181F
3030
6020
C0E0
ENDCHAR
STARTCHAR uni5205
ENCODING 20997
SWIDTH 1000 0
DWIDTH 16 0
BBX 16 14 0 -1
BITMAP
7FF8
0208
0208
0208
220A
220A
660A
440B
C409
8C09
0818
1810
3010
E0F0
ENDCHAR
STARTCHAR uni5206
ENCODING 20998
SWIDTH 1000 0
DWIDTH 16 0
BBX 16 16 0 -2
BITMAP
0420
0420
0C30
0810
1818
300C
6006
DFFB
0208
0208
0208
0608
0408
0C18
1810
7070
ENDCHAR
STARTCHAR uni5207
ENCODING 20999
SWIDTH 1000 0
DWIDTH 16 0
BBX 15 16 0 -2
BITMAP
2000
23FE
2042
2042
2642
3C42
E042
2042
2042
20C2
2282
2682
1D86
0104
0304
061C
ENDCHAR
STARTCHAR uni5208
ENCODING 21000
SWIDTH 1000 0
DWIDTH 16 0
BBX 14 15 0 -1
BITMAP
0204
0204
0244
8444
4444
2444
1844
0844
0C44
1444
1244
2044
2004
4004
801C
ENDCHAR
STARTCHAR uni520A
ENCODING 21002
SWIDTH 1000 0
DWIDTH 16 0
BBX 14 15 0 -1
BITMAP
0004
7E44
0844
0844
0844
0844
0844
FF44
0844
0844
0844
0844
0804
0804
081C
ENDCHAR
STARTCHAR uni520B
ENCODING 21003
SWIDTH 1000 0
DWIDTH 16 0
BBX 15 16 0 -2
BITMAP
0182
0F22
F822
0822
0822
0822
FFA2
0822
0822
0822
0822
1802
1002
3002
6002
C00E
ENDCHAR
STARTCHAR uni520E
ENCODING 21006
SWIDTH 1000 0
DWIDTH 16 0
BBX 15 16 0 -2
BITMAP
2002
2012
3F92
2A92
6A92
4A92
DA92
1292
3692
2492
6C92
C892
1982
3102
6102
070E
ENDCHAR
STARTCHAR uni5211
ENCODING 21009
SWIDTH 1000 0
DWIDTH 16 0
BBX 14 15 0 -1
BITMAP
0004
7F04
2244
2244
2244
2244
FF44
2244
2244
2244
2244
2204
4204
4204
821C
ENDCHAR
STARTCHAR uni5212
ENCODING 21010
SWIDTH 1000 0
DWIDTH 16 0
BBX 15 16 0 -2
BITMAP
0902
0992
0892
0812
7FD2
0812
0892
0992
0B12
0E12
0412
0E02
1A02
3342
E1C2
008E
ENDCHAR
STARTCHAR uni5213
ENCODING 21011
SWIDTH 1000 0
DWIDTH 16 0
BBX 15 16 0 -2
BITMAP
0002
7F92
0012
0012
0012
0012
FFD2
1212
1212
1212
1212
1202
3202
2242
6382
C60E
ENDCHAR
STARTCHAR uni5214
ENCODING 21012
SWIDTH 1000 0
DWIDTH 16 0
BBX 15 16 0 -2
BITMAP
0802
0812
0812
7F12
0912
0912
0912
0912
FFD2
1412
1412
1602
3202
2302
6182
C00E
ENDCHAR
STARTCHAR uni5215
ENCODING 21013
SWIDTH 1000 0
DWIDTH 16 0
BBX 16 15 0 -2
BITMAP
3FFC
0084
0184
030C
0E08
3838
0000
FE7F
2211
2211
2211
6231
4221
C663
8C46
ENDCHAR
STARTCHAR uni5216
ENCODING 21014
SWIDTH 1000 0
DWIDTH 16 0
BBX 15 15 0 -1
BITMAP
0002
3F92
2092
2092
2092
3F92
2092
2092
2092
3F92
2082
2082
6082
4082
C38E
ENDCHAR
STARTCHAR uni5217
ENCODING 21015
SWIDTH 1000 0
DWIDTH 16 0
BBX 14 15 0 -1
BITMAP
0004
7F04
1044
1044
2044
3E44
4244
6244
9244
0A44
0444
0444
0804
1004
601C
ENDCHAR
STARTCHAR uni5218
ENCODING 21016
SWIDTH 1000 0
DWIDTH 16 0
BBX 15 16 0 -2
BITMAP
0802
0812
0812
FF92
2212
2212
2212
3612
1412
1C12
0812
1C02
1402
3602
6302
C18E
ENDCHAR
STARTCHAR uni521D
ENCODING 21021
SWIDTH 1000 0
DWIDTH 16 0
BBX 15 15 0 -1
BITMAP
1000
11FE
1022
FE22
0222
0222
0422
0822
1242
3C42
5442
9242
1082
1082
130C
ENDCHAR
STARTCHAR uni5222
ENCODING 21026
SWIDTH 1000 0
DWIDTH 16 0
BBX 16 16 0 -2
BITMAP
0401
0E09
1B09
3189
60C9
DF69
0009
0009
7FC9
0849
0849
0841
0841
09C1
0801
0807
ENDCHAR
STARTCHAR uni5224
ENCODING 21028
SWIDTH 1000 0
DWIDTH 16 0
BBX 14 15 0 -1
BITMAP
0804
2A24
2924
4924
8924
0824
7F24
0824
0824
FFA4
0824
0804
0804
0804
080C
ENDCHAR
STARTCHAR uni5225
ENCODING 21029
SWIDTH 1000 0
DWIDTH 16 0
BBX 14 15 0 -1
BITMAP
0004
7E44
4244
4244
4244
7E44
2044
3E44
2244
2244
2244
4244
4204
4204
8C1C
ENDCHAR
STARTCHAR uni5227
ENCODING 21031
SWIDTH 1000 0
DWIDTH 16 0
BBX 15 16 0 -2
BITMAP
0800
087E
0812
7F12
0812
0812
0812
FF92
1012
1012
1212
3232
2226
2F24
7964
00DC
ENDCHAR
STARTCHAR uni5228
ENCODING 21032
SWIDTH 1000 0
DWIDTH 16 0
BBX 15 16 0 -2
BITMAP
2002
2012
3F92
2092
2092
7C92
6492
E492
2492
3C92
2392
2002
2002
2042
30C2
1F8E
ENDCHAR
STARTCHAR uni5229
ENCODING 21033
SWIDTH 1000 0
DWIDTH 16 0
BBX 14 15 0 -1
BITMAP
0604
7844
0844
0844
0844
7E44
0844
1C44
2A44
4944
8844
0844
0804
0804
081C
ENDCHAR
STARTCHAR uni522A
ENCODING 21034
SWIDTH 1000 0
DWIDTH 16 0
BBX 14 15 0 -1
BITMAP
0004
7724
5524
5524
5524
5524
FFA4
5524
5524
5524
5524
5504
5504
9904
230C
ENDCHAR
STARTCHAR uni522E
ENCODING 21038
SWIDTH 1000 0
DWIDTH 16 0
BBX 14 15 0 -1
BITMAP
0604
7844
0844
0844
0844
FF44
0844
0844
0844
7F44
4144
4144
4104
7F04
410C
ENDCHAR
STARTCHAR uni5230
ENCODING 21040
SWIDTH 1000 0
DWIDTH 16 0
BBX 14 15 0 -1
BITMAP
0004
FF44
1044
2044
2244
4144
FF44
0944
0844
FF44
0844
0844
0804
0F04
F80C
ENDCHAR
STARTCHAR uni5231
ENCODING 21041
SWIDTH 1000 0
DWIDTH 16 0
BBX 16 16 0 -2
BITMAP
2400
24FE
2412
FF12
2452
2452
24D2
FFB3
24A7
24A5
2425
2424
2464
644C
44C8
C5B8
ENDCHAR
STARTCHAR uni5232
ENCODING 21042
SWIDTH 1000 0
DWIDTH 16 0
BBX 15 16 0 -2
BITMAP
0802
0812
7F92
0812
0812
0812
FFD2
0012
0812
0812
7F92
0802
0802
0802
FFC2
000E
ENDCHAR
STARTCHAR uni5233
ENCODING 21043
SWIDTH 1000 0
DWIDTH 16 0
BBX 15 16 0 -2
BITMAP
0802
0812
FF92
1412
2212
C192
0012
3E12
0012
FF92
1012
3F02
0102
0102
0302
0E0E
ENDCHAR
STARTCHAR uni5235
ENCODING 21045
SWIDTH 1000 0
DWIDTH 16 0
BBX 15 16 0 -2
BITMAP
0002
FF92
2212
2212
3E12
2212
2212
2212
3E12
2212
2212
2202
3E02
E202
0202
020E
ENDCHAR
STARTCHAR uni5236
ENCODING 21046
SWIDTH 1000 0
DWIDTH 16 0
BBX 15 15 0 -1
BITMAP
2802
2822
4822
7F22
8822
0822
FFA2
0822
7F22
4922
4922
4902
4B02
0802
0806
ENDCHAR
STARTCHAR uni5237
ENCODING 21047
SWIDTH 1000 0
DWIDTH 16 0
BBX 15 15 0 -1
BITMAP
0002
7FD2
4052
4052
7FD2
4212
4212
5FD2
5252
5252
5252
5242
52C2
8202
0206
ENDCHAR
STARTCHAR uni5238
ENCODING 21048
SWIDTH 1000 0
DWIDTH 16 0
BBX 16 16 0 -2
BITMAP
1108
1918
0910
3FFC
0280
0240
FFFF
0C30
1818
3FFC
E217
0610
0410
0C30
1820
70E0
ENDCHAR
STARTCHAR uni5239
ENCODING 21049
SWIDTH 1000 0
DWIDTH 16 0
BBX 15 16 0 -2
BITMAP
0202
4622
2C22
1822
3422
E322
0822
0822
FF22
0822
1C22
3A02
6902
C802
0802
080E
ENDCHAR
STARTCHAR uni523A
ENCODING 21050
SWIDTH 1000 0
DWIDTH 16 0
BBX 14 15 0 -1
BITMAP
0804
0824
FFA4
0824
0824
7F24
4924
4924
4924
4B24
1C24
2A24
4904
8884
080C
ENDCHAR
STARTCHAR uni523B
ENCODING 21051
SWIDTH 1000 0
DWIDTH 16 0
BBX 15 16 0 -2
BITMAP
0802
0802
0822
FFA2
1022
3022
6222
C622
6C22
1922
3322
6602
CC02
1B02
3182
E08E
ENDCHAR
STARTCHAR uni523C
ENCODING 21052
SWIDTH 1000 0
DWIDTH 16 0
BBX 16 16 0 -2
BITMAP
1000
10FE
1012
7C12
1012
1092
10D2
FEB2
2012
201A
2436
6623
4222
4F66
F9C4
819C
ENDCHAR
STARTCHAR uni5243
ENCODING 21059
SWIDTH 1000 0
DWIDTH 16 0
BBX 15 16 0 -2
BITMAP
4102
2212
FF92
0892
0892
7F92
4812
4812
7FD2
0852
1852
18C2
2882
6B82
C802
080E
ENDCHAR
STARTCHAR uni5244
ENCODING 21060
SWIDTH 1000 0
DWIDTH 16 0
BBX 15 16 0 -2
BITMAP
0002
FFD2
0012
2492
4912
9212
4912
2492
0012
7F92
0812
0802
0802
0B82
3E02
E00E
ENDCHAR
STARTCHAR uni5245
ENCODING 21061
SWIDTH 1000 0
DWIDTH 16 0
BBX 15 16 0 -2
BITMAP
0002
FF92
0012
0012
7F12
4112
4112
4112
7F12
0012
4112
6302
2202
2202
0F82
F80E
ENDCHAR
STARTCHAR uni5247
ENCODING 21063
SWIDTH 1000 0
DWIDTH 16 0
BBX 14 15 0 -1
BITMAP
0004
7E04
4244
4244
7E44
4244
4244
7E44
4244
4244
7E44
0004
2404
4204
811C
ENDCHAR
STARTCHAR uni5249
ENCODING 21065
SWIDTH 1000 0
DWIDTH 16 0
BBX 16 16 0 -2
BITMAP
0401
2489
2489
2489
2489
5549
5549
8E29
0409
0409
7FC9
0401
0401
0401
07E1
FC07
ENDCHAR
STARTCHAR uni524A
ENCODING 21066
SWIDTH 1000 0
DWIDTH 16 0
BBX 15 16 0 -2
BITMAP
8882
C9A2
4922
0822
7F22
4122
4122
7F22
4122
4122
7F22
4102
4102
4102
4102
470E
ENDCHAR
STARTCHAR uni524B
ENCODING 21067
SWIDTH 1000 0
DWIDTH 16 0
BBX 15 15 0 -1
BITMAP
0804
0824
FFA4
0824
0824
7F24
4124
4124
7F24
1404
1404
240C
2400
4402
83FE
ENDCHAR
STARTCHAR uni524C
ENCODING 21068
SWIDTH 1000 0
DWIDTH 16 0
BBX 14 15 0 -1
BITMAP
0804
0804
FFA4
0824
7F24
4924
4924
4924
7F24
0C24
1A24
2904
4884
8804
080C
ENDCHAR
STARTCHAR uni524D
ENCODING 21069
SWIDTH 1000 0
DWIDTH 16 0
BBX 15 15 0 -1
BITMAP
0820
0440
FFFE
0000
7E04
4244
4244
7E44
4244
4244
7E44
4244
4244
4204
4E0C
ENDCHAR
STARTCHAR uni524F
ENCODING 21071
SWIDTH 1000 0
DWIDTH 16 0
BBX 16 16 0 -2
BITMAP
4200
66FE
2412
FF12
2412
2452
2452
FF72
2426
2424
2434
242C
2467
644C
44C8
C5B8
ENDCHAR
STARTCHAR uni5254
ENCODING 21076
SWIDTH 1000 0
DWIDTH 16 0
BBX 14 15 0 -1
BITMAP
0004
7F04
4124
7F24
4124
7F24
1024
1FA4
2AA4
4AA4
92A4
24A4
4904
1104
060C
ENDCHAR
STARTCHAR uni5255
ENCODING 21077
SWIDTH 1000 0
DWIDTH 16 0
BBX 16 16 0 -2
BITMAP
0901
0909
0909
79E9
0909
0909
79E9
0909
0909
39E9
E909
0901
0901
1901
3101
6107
ENDCHAR
STARTCHAR uni5256
ENCODING 21078
SWIDTH 1000 0
DWIDTH 16 0
BBX 14 15 0 -1
BITMAP
0804
0844
7F44
2244
2244
2244
FF44
0044
3E44
2244
2244
2244
2204
3E04
200C
ENDCHAR
STARTCHAR uni5257
ENCODING 21079
SWIDTH 1000 0
DWIDTH 16 0
BBX 15 16 0 -2
BITMAP
1202
1112
1F92
7812
0D92
0612
1B52
61D2
1212
1112
1F92
7802
0D82
0602
1B42
E1CE
ENDCHAR
STARTCHAR uni5258
ENCODING 21080
SWIDTH 1000 0
DWIDTH 16 0
BBX 15 16 0 -2
BITMAP
2202
2212
FF92
2212
2212
3E12
2212
2212
3E12
2212
2212
FF82
0002
2602
6302
C18E
ENDCHAR
STARTCHAR uni525A
ENCODING 21082
SWIDTH 1000 0
DWIDTH 16 0
BBX 16 16 0 -2
BITMAP
0401
0409
FFE9
0409
7FC9
4449
7FC9
0409
7FC9
0449
FFE9
0441
7FC1
0401
0401
0C07
ENDCHAR
STARTCHAR uni525B
ENCODING 21083
SWIDTH 1000 0
DWIDTH 16 0
BBX 15 16 0 -2
BITMAP
0002
FF92
8092
A292
9492
8092
BE92
8892
8892
AA92
AA92
AA82
BE82
8082
8082
838E
ENDCHAR
STARTCHAR uni525C
ENCODING 21084
SWIDTH 1000 0
DWIDTH 16 0
BBX 16 16 0 -2
BITMAP
0401
0409
7FC9
4049
4049
2009
3BC9
2A49
6A49
4A49
FA49
12C1
3201
2221
6261
C1C7
ENDCHAR
STARTCHAR uni525D
ENCODING 21085
SWIDTH 1000 0
DWIDTH 16 0
BBX 15 16 0 -2
BITMAP
2002
3F12
4212
4212
7E12
0412
FF92
0812
4912
6B12
2A12
1C02
2A02
6B02
C982
380E
ENDCHAR
STARTCHAR uni525E
ENCODING 21086
SWIDTH 1000 0
DWIDTH 16 0
BBX 15 16 0 -2
BITMAP
0802
0812
FF92
1412
2212
4112
0012
FFD2
0112
7912
4912
4902
7902
0102
0102
070E
ENDCHAR
STARTCHAR uni525F
ENCODING 21087
SWIDTH 1000 0
DWIDTH 16 0
BBX 16 16 0 -2
BITMAP
0001
7BC9
0849
6B49
1089
2949
4229
0009
7BC9
0849
4849
3281
1281
2901
4A81
8467
ENDCHAR
STARTCHAR uni5260
ENCODING 21088
SWIDTH 1000 0
DWIDTH 16 0
BBX 16 16 0 -2
BITMAP
0401
0409
0409
FFE9
0009
3F89
2089
2089
2089
3F89
0409
2481
2481
64C1
C461
1C07
ENDCHAR
STARTCHAR uni5261
ENCODING 21089
SWIDTH 1000 0
DWIDTH 16 0
BBX 15 15 0 -1
BITMAP
0802
8882
4912
1412
1412
2212
C192
0812
8892
4912
1412
1412
2202
4102
80CE
ENDCHAR
STARTCHAR uni5263
ENCODING 21091
SWIDTH 1000 0
DWIDTH 16 0
BBX 15 16 0 -2
BITMAP
0402
0E12
1B12
3192
60D2
DF12
0412
7FD2
4452
4452
7FD2
0402
0E02
1B02
3182
E0CE
ENDCHAR
STARTCHAR uni5264
ENCODING 21092
SWIDTH 1000 0
DWIDTH 16 0
BBX 15 15 0 -1
BITMAP
0402
0412
FFF2
2092
1B12
0E12
3B92
E0F2
2092
3F92
2092
3F82
6082
4082
C08E
ENDCHAR
STARTCHAR uni5265
ENCODING 21093
SWIDTH 1000 0
DWIDTH 16 0
BBX 15 16 0 -2
BITMAP
0002
7E12
0212
7E12
0212
0212
FF92
0812
4912
6B12
2A12
1C02
2A02
6B02
C982
380E
ENDCHAR
STARTCHAR uni5266
ENCODING 21094
SWIDTH 1000 0
DWIDTH 16 0
BBX 16 16 0 -2
BITMAP
0801
0809
FFF9
1089
1489
2449
7FE9
A459
2449
3FC9
2449
2449
3FC1
0411
0631
03E7
ENDCHAR
STARTCHAR uni5269
ENCODING 21097
SWIDTH 1000 0
DWIDTH 16 0
BBX 15 16 0 -2
BITMAP
0302
7E12
0812
FF92
0812
2A92
EB12
2A12
6A92
A992
1812
1C02
2A02
6902
C802
080E
ENDCHAR
STARTCHAR uni526A
ENCODING 21098
SWIDTH 1000 0
DWIDTH 16 0
BBX 15 15 0 -1
BITMAP
0820
FFFE
0004
7E44
4244
7E44
4244
7E44
4204
461C
0000
FFFC
0204
0C04
F018
ENDCHAR
STARTCHAR uni526C
ENCODING 21100
SWIDTH 1000 0
DWIDTH 16 0
BBX 16 16 0 -2
BITMAP
0801
8891
8891
8891
FF91
0011
FF91
0811
1011
FF91
A491
A481
A481
A481
A481
A587
ENDCHAR
STARTCHAR uni526E
ENCODING 21102
SWIDTH 1000 0
DWIDTH 16 0
BBX 16 16 0 -2
BITMAP
0001
7F89
4089
4089
4F89
4889
4889
FFC9
8049
9E49
9249
9241
9241
9E41
8041
81C7
ENDCHAR
STARTCHAR uni526F
ENCODING 21103
SWIDTH 1000 0
DWIDTH 16 0
BBX 14 15 0 -1
BITMAP
0004
FF84
0024
7F24
4124
4124
7F24
0024
FFA4
88A4
88A4
FFA4
8884
8884
FF8C
ENDCHAR
STARTCHAR uni5270
ENCODING 21104
SWIDTH 1000 0
DWIDTH 16 0
BBX 15 16 0 -2
BITMAP
0382
3E12
0412
7FD2
2492
2492
FFF2
2492
2492
7FD2
1412
1712
3582
64C2
C402
040E
ENDCHAR
STARTCHAR uni5271
ENCODING 21105
SWIDTH 1000 0
DWIDTH 16 0
BBX 16 16 0 -2
BITMAP
0800
1C7E
3612
E392
3E12
0812
7F52
4932
4912
491A
7F16
1413
3412
2636
6224
C36C
ENDCHAR
STARTCHAR uni5272
ENCODING 21106
SWIDTH 1000 0
DWIDTH 16 0
BBX 14 15 0 -1
BITMAP
0804
FFA4
80A4
88A4
7F24
0824
7F24
0824
FFA4
0024
7F24
4124
4104
4104
7F0C
ENDCHAR
STARTCHAR uni5273
ENCODING 21107
SWIDTH 1000 0
DWIDTH 16 0
BBX 15 16 0 -2
BITMAP
2202
2212
FF92
2212
0812
1C12
3612
E392
0012
3E12
0012
7F02
4102
4102
4102
7F0E
ENDCHAR
STARTCHAR uni5274
ENCODING 21108
SWIDTH 1000 0
DWIDTH 16 0
BBX 15 16 0 -2
BITMAP
0802
4912
4912
7F12
0012
FF92
0012
7F12
4112
4112
7F12
2202
3202
1782
3C02
E00E
ENDCHAR
STARTCHAR uni5275
ENCODING 21109
SWIDTH 1000 0
DWIDTH 16 0
BBX 14 15 0 -1
BITMAP
0404
0A04
1124
24A4
4424
BF24
2124
3F24
2124
3F24
2024
7F24
A104
2104
3F0C
ENDCHAR
STARTCHAR uni5277
ENCODING 21111
SWIDTH 1000 0
DWIDTH 16 0
BBX 16 16 0 -2
BITMAP
0401
0409
7FC9
1109
0E09
3189
7FC9
4009
5209
5F89
5209
4201
4F81
C201
8201
3FE7
ENDCHAR
STARTCHAR uni5278
ENCODING 21112
SWIDTH 1000 0
DWIDTH 16 0
BBX 16 16 0 -2
BITMAP
0401
0409
FFE9
0409
7FC9
4449
7FC9
4449
7FC9
0489
1FC9
F061
0081
FFE1
2081
1387
ENDCHAR
STARTCHAR uni5279
ENCODING 21113
SWIDTH 1000 0
DWIDTH 16 0
BBX 15 15 0 -2
BITMAP
F792
3192
5292
3192
5292
0892
1C12
3712
E1D2
0812
7202
0C82
7102
0602
780E
ENDCHAR
STARTCHAR uni527D
ENCODING 21117
SWIDTH 1000 0
DWIDTH 16 0
BBX 15 15 0 -1
BITMAP
FFC2
1212
7F92
5292
5292
7F92
0012
3F12
0012
FFD2
0412
2492
4442
8442
0C06
ENDCHAR
STARTCHAR uni527F
ENCODING 21119
SWIDTH 1000 0
DWIDTH 16 0
BBX 15 15 0 -1
BITMAP
4902
9202
4912
3F92
2492
3F92
2492
3F92
0412
7FD2
0E12
1512
2482
4482
0C06
ENDCHAR
STARTCHAR uni5280
ENCODING 21120
SWIDTH 1000 0
DWIDTH 16 0
BBX 16 16 0 -2
BITMAP
0001
7F81
1109
0A09
FFC9
1489
2509
4C09
FFC9
9249
A249
DFC1
9241
9241
9E41
8047
ENDCHAR
STARTCHAR uni5282
ENCODING 21122
SWIDTH 1000 0
DWIDTH 16 0
BBX 16 16 0 -2
BITMAP
0001
7FFD
5105
5B85
4A85
7FFD
448D
5525
5525
5525
5525
5F71
C451
8C51
98D9
308B
ENDCHAR
STARTCHAR uni5283
ENCODING 21123
SWIDTH 1000 0
DWIDTH 16 0
BBX 14 15 0 -1
BITMAP
0804
7F24
0924
FFA4
0924
7F24
0824
FFA4
7F24
4924
7F24
4904
7F04
0004
FF8C
ENDCHAR
STARTCHAR uni5284
ENCODING 21124
SWIDTH 1000 0
DWIDTH 16 0
BBX 16 16 0 -2
BITMAP
2101
2109
7BE9
5289
D649
8409
0A09
1109
3189
EEE9
0009
3F81
2081
2081
2081
3F87
ENDCHAR
STARTCHAR uni5285
ENCODING 21125
SWIDTH 1000 0
DWIDTH 16 0
BBX 16 16 0 -2
BITMAP
0001
7FE5
4925
4925
7FE5
1005
3FF5
6415
FF95
2495
2495
3F91
0511
1FB1
70A1
0063
ENDCHAR
STARTCHAR uni5287
ENCODING 21127
SWIDTH 1000 0
DWIDTH 16 0
BBX 14 15 0 -1
BITMAP
0804
0F84
0824
7FA4
48A4
7E24
48A4
47A4
4024
5FA4
4424
5AA4
4704
5A84
824C
ENDCHAR
STARTCHAR uni5288
ENCODING 21128
SWIDTH 1000 0
DWIDTH 16 0
BBX 15 15 0 -1
BITMAP
0020
7DFC
4488
7C50
43FE
7C20
A5FC
3C20
0020
FFFC
0204
0204
0404
1808
E030
ENDCHAR
STARTCHAR uni5289
ENCODING 21129
SWIDTH 1000 0
DWIDTH 16 0
BBX 14 15 0 -1
BITMAP
1004
6384
52A4
4AA4
7AA4
CDA4
1424
2224
7F24
8824
7FA4
0824
2A04
1C04
7F0C
ENDCHAR
STARTCHAR uni528A
ENCODING 21130
SWIDTH 1000 0
DWIDTH 16 0
BBX 16 16 0 -2
BITMAP
0401
0A09
3189
EEE9
0009
7FC9
4449
5549
4449
7FC9
0009
3F81
2081
3F81
2081
3F87
ENDCHAR
STARTCHAR uni528C
ENCODING 21132
SWIDTH 1000 0
DWIDTH 16 0
BBX 16 16 0 -2
BITMAP
0201
13E5
1205
7FF5
00A5
0095
7FF5
4045
5F45
4445
5555
75E1
4641
58D1
4151
8633
ENDCHAR
STARTCHAR uni528D
ENCODING 21133
SWIDTH 1000 0
DWIDTH 16 0
BBX 14 15 0 -1
BITMAP
0C04
1224
2124
40A4
BF24
0024
F7A4
94A4
94A4
F7A4
0024
2104
3184
4A44
842C
ENDCHAR
STARTCHAR uni5291
ENCODING 21137
SWIDTH 1000 0
DWIDTH 16 0
BBX 15 15 0 -1
BITMAP
0802
FFC2
1112
0A52
F592
5552
5532
B592
0012
2092
3F92
2092
3F82
2082
4086
ENDCHAR
STARTCHAR uni5292
ENCODING 21138
SWIDTH 1000 0
DWIDTH 16 0
BBX 16 16 0 -2
BITMAP
0800
1C7F
3609
6309
C189
3E09
0029
7719
550D
5509
7709
0019
2213
2212
7732
D56E
ENDCHAR
STARTCHAR uni5293
ENCODING 21139
SWIDTH 1000 0
DWIDTH 16 0
BBX 15 16 0 -2
BITMAP
0802
3E22
2222
3E22
2222
3E22
2222
7F22
4922
7F22
4922
7F02
0002
FF82
2202
420E
ENDCHAR
STARTCHAR uni5294
ENCODING 21140
SWIDTH 1000 0
DWIDTH 16 0
BBX 16 16 0 -2
BITMAP
0800
1C7E
3612
6312
C192
3E12
0052
7732
5512
551A
7716
0013
2212
2236
7724
D56C
ENDCHAR
STARTCHAR uni5295
ENCODING 21141
SWIDTH 1000 0
DWIDTH 16 0
BBX 16 16 0 -2
BITMAP
0C31
79E5
4105
7DF5
5145
9245
0005
3FC5
2045
3FC5
2045
3FC1
2041
3FC1
1081
E073
ENDCHAR
STARTCHAR uni5296
ENCODING 21142
SWIDTH 1000 0
DWIDTH 16 0
BBX 16 16 0 -2
BITMAP
1E01
2409
FF89
4089
7F89
2209
3B89
2249
79C9
0009
7F89
4881
7F81
1501
3441
63C7
ENDCHAR
STARTCHAR uni5297
ENCODING 21143
SWIDTH 1000 0
DWIDTH 16 0
BBX 16 16 0 -2
BITMAP
5141
7FF5
9245
7DF5
28A5
2CA5
4935
3FE5
2025
3FE5
2025
3FE1
2021
3FE1
1041
6033
ENDCHAR
STARTCHAR uni5298
ENCODING 21144
SWIDTH 1000 0
DWIDTH 16 0
BBX 16 16 0 -2
BITMAP
0201
7FF5
4845
7DF5
4845
5AD5
5AD5
6B55
4485
5CE5
4485
5CE1
4481
DCE1
8481
0883
ENDCHAR
STARTCHAR uni529A
ENCODING 21146
SWIDTH 1000 0
DWIDTH 16 0
BBX 16 16 0 -2
BITMAP
7FF1
4015
7FF5
4105
5D75
4105
5FE5
54A5
5FF5
4A15
7FD5
5251
5FD1
42B1
87A1
3CE3
ENDCHAR
STARTCHAR uni529B
ENCODING 21147
SWIDTH 1000 0
DWIDTH 16 0
BBX 13 14 0 0
BITMAP
0200
0200
0200
7FF8
0208
0208
0408
0408
0408
0808
0808
1008
2010
C0E0
ENDCHAR
STARTCHAR uni529C
ENCODING 21148
SWIDTH 1000 0
DWIDTH 16 0
BBX 16 16 0 -2
BITMAP
1020
1020
1020
1020
FF20
1120
1120
1120
1120
1120
3120
2120
2320
6221
4233
C61E
ENDCHAR
STARTCHAR uni529F
ENCODING 21151
SWIDTH 1000 0
DWIDTH 16 0
BBX 14 15 0 -1
BITMAP
0080
0080
FC80
2080
23FC
2084
2084
2084
2084
2484
3904
C104
0204
0404
1838
ENDCHAR
STARTCHAR uni52A0
ENCODING 21152
SWIDTH 1000 0
DWIDTH 16 0
BBX 15 16 0 -2
BITMAP
1000
1000
103E
1022
FF22
1122
1122
1122
1122
1122
3122
2122
2322
6222
423E
C600
ENDCHAR
STARTCHAR uni52A3
ENCODING 21155
SWIDTH 1000 0
DWIDTH 16 0
BBX 16 16 0 -2
BITMAP
0100
0910
1918
310C
E127
0760
01C0
0F00
F800
0100
7FFC
0204
0604
0C0C
3808
E038
ENDCHAR
STARTCHAR uni52A4
ENCODING 21156
SWIDTH 1000 0
DWIDTH 16 0
BBX 14 15 0 -1
BITMAP
0C20
7020
4020
41FC
4044
7E44
4844
4844
4844
4844
4884
4884
8884
8884
8918
ENDCHAR
STARTCHAR uni52A5
ENCODING 21157
SWIDTH 1000 0
DWIDTH 16 0
BBX 16 16 0 -2
BITMAP
0808
0808
0808
FF88
007F
3E09
2209
2209
2209
2209
2209
2219
2291
6333
4262
C0CE
ENDCHAR
STARTCHAR uni52A6
ENCODING 21158
SWIDTH 1000 0
DWIDTH 16 0
BBX 16 16 0 -2
BITMAP
0100
0100
3FFC
0104
0304
060C
1C08
7038
0000
1010
FF7F
1111
3131
2323
6262
CECE
ENDCHAR
STARTCHAR uni52A7
ENCODING 21159
SWIDTH 1000 0
DWIDTH 16 0
BBX 16 16 0 -2
BITMAP
0310
0E10
7810
0810
08FF
7F11
0811
0811
0811
FF91
0811
0831
0821
0863
08C2
398E
ENDCHAR
STARTCHAR uni52A9
ENCODING 21161
SWIDTH 1000 0
DWIDTH 16 0
BBX 15 15 0 -1
BITMAP
0020
7C20
4420
45FE
4422
7C22
4422
4422
4422
7C22
4442
4442
4642
F882
010C
ENDCHAR
STARTCHAR uni52AA
ENCODING 21162
SWIDTH 1000 0
DWIDTH 16 0
BBX 15 15 0 -1
BITMAP
1000
FEFC
2204
22C4
7228
0C10
1228
60C6
0200
7FF8
0208
0208
0408
1808
6070
ENDCHAR
STARTCHAR uni52AB
ENCODING 21163
SWIDTH 1000 0
DWIDTH 16 0
BBX 14 15 0 -1
BITMAP
1004
1004
1044
7E44
1044
1044
1044
FF44
1044
1444
2444
2244
4D04
F104
001C
ENDCHAR
STARTCHAR uni52AC
ENCODING 21164
SWIDTH 1000 0
DWIDTH 16 0
BBX 16 16 0 -2
BITMAP
2010
2010
2010
7F10
41FF
C111
7911
4911
4911
4911
4911
7931
0121
0323
0262
0ECE
ENDCHAR
STARTCHAR uni52AD
ENCODING 21165
SWIDTH 1000 0
DWIDTH 16 0
BBX 16 16 0 -2
BITMAP
0010
FF10
1110
1110
317F
2311
6211
CE11
0011
7E11
4211
4231
4221
4223
4262
7ECE
ENDCHAR
STARTCHAR uni52AF
ENCODING 21167
SWIDTH 1000 0
DWIDTH 16 0
BBX 16 16 0 -2
BITMAP
0010
FE10
1010
1010
11FF
1011
3E11
2211
6211
6211
A231
2221
2223
3E62
0042
00CE
ENDCHAR
STARTCHAR uni52B0
ENCODING 21168
SWIDTH 1000 0
DWIDTH 16 0
BBX 14 16 1 -2
BITMAP
1040
3040
2040
F840
8BFC
8844
8844
8844
F844
8844
8844
88C4
8884
F88C
0188
0338
ENDCHAR
STARTCHAR uni52B1
ENCODING 21169
SWIDTH 1000 0
DWIDTH 16 0
BBX 15 16 0 -2
BITMAP
0010
7F90
4010
4010
7F7E
4812
4812
4F12
4912
4912
4912
4932
C926
9B24
9264
36CC
ENDCHAR
STARTCHAR uni52B4
ENCODING 21172
SWIDTH 1000 0
DWIDTH 16 0
BBX 14 16 1 -2
BITMAP
4204
630C
2118
0010
FFFC
8004
8204
0200
7FF8
0208
0608
0408
0C08
1818
3010
E070
ENDCHAR
STARTCHAR uni52B5
ENCODING 21173
SWIDTH 1000 0
DWIDTH 16 0
BBX 16 16 0 -2
BITMAP
0910
1918
1108
7FFE
0240
0420
FFFF
0810
310C
E107
1FF8
0208
0608
0C18
1810
7070
ENDCHAR
STARTCHAR uni52B6
ENCODING 21174
SWIDTH 1000 0
DWIDTH 16 0
BBX 16 15 0 -1
BITMAP
0310
0E10
7810
4010
407F
7F91
4011
4011
4011
5F11
5111
5111
9131
1122
1F66
ENDCHAR
STARTCHAR uni52B7
ENCODING 21175
SWIDTH 1000 0
DWIDTH 16 0
BBX 15 16 0 -2
BITMAP
4420
6C20
2820
FE20
11FE
1022
7C22
1022
1022
1E22
F062
1042
3046
20C4
6084
C19C
ENDCHAR
STARTCHAR uni52B8
ENCODING 21176
SWIDTH 1000 0
DWIDTH 16 0
BBX 16 16 0 -2
BITMAP
0810
0810
7F10
0810
087F
FF91
0011
0811
0811
7F11
0811
0831
0821
0F23
3862
E0CE
ENDCHAR
STARTCHAR uni52B9
ENCODING 21177
SWIDTH 1000 0
DWIDTH 16 0
BBX 16 16 0 -2
BITMAP
0810
0810
0810
FF90
227F
6311
C191
2211
3611
1411
1C31
0821
1C23
3662
6242
C0CE
ENDCHAR
STARTCHAR uni52BA
ENCODING 21178
SWIDTH 1000 0
DWIDTH 16 0
BBX 15 16 0 -2
BITMAP
1010
1010
3210
2210
7F7E
0112
0812
4812
7F12
8812
0812
FFB2
0822
0826
0864
08CC
ENDCHAR
STARTCHAR uni52BB
ENCODING 21179
SWIDTH 1000 0
DWIDTH 16 0
BBX 15 16 1 -2
BITMAP
0020
FF20
8020
8020
BEFE
8822
8822
BE22
8822
8822
8822
BE22
8066
8044
FF44
00DC
ENDCHAR
STARTCHAR uni52BC
ENCODING 21180
SWIDTH 1000 0
DWIDTH 16 0
BBX 16 16 0 -2
BITMAP
1010
1010
1010
FF10
10FF
1011
1011
7E11
0011
0011
7E11
4231
4221
4223
4262
7ECE
ENDCHAR
STARTCHAR uni52BD
ENCODING 21181
SWIDTH 1000 0
DWIDTH 16 0
BBX 15 16 0 -2
BITMAP
0002
7F92
0812
1F12
3112
6B12
0612
0C02
3802
E08E
0080
7FFE
0102
0302
0E06
781C
ENDCHAR
STARTCHAR uni52BE
ENCODING 21182
SWIDTH 1000 0
DWIDTH 16 0
BBX 15 15 0 -1
BITMAP
1010
1010
FE10
10FE
A022
4222
2422
1822
3022
C242
0442
0842
3482
C282
011C
ENDCHAR
STARTCHAR uni52C0
ENCODING 21184
SWIDTH 1000 0
DWIDTH 16 0
BBX 16 16 0 -2
BITMAP
0808
0808
FF88
0808
087F
7F09
4109
4109
4109
7F09
1409
1409
341B
2492
6712
CC36
ENDCHAR
STARTCHAR uni52C1
ENCODING 21185
SWIDTH 1000 0
DWIDTH 16 0
BBX 15 15 0 -1
BITMAP
0010
FF10
0010
4910
49FE
9212
4912
4922
0022
7F22
0822
0842
0942
0E42
F08C
ENDCHAR
STARTCHAR uni52C3
ENCODING 21187
SWIDTH 1000 0
DWIDTH 16 0
BBX 14 15 0 -1
BITMAP
1040
1040
FE40
11FC
1044
FE44
8244
8244
7C44
0444
0844
FE84
1084
1104
3238
ENDCHAR
STARTCHAR uni52C4
ENCODING 21188
SWIDTH 1000 0
DWIDTH 16 0
BBX 16 16 0 -2
BITMAP
2008
2008
7FC8
4008
C03F
3F89
2089
2489
2489
FFC9
4089
4889
4899
7FD3
0132
0F6E
ENDCHAR
STARTCHAR uni52C5
ENCODING 21189
SWIDTH 1000 0
DWIDTH 16 0
BBX 14 15 0 -1
BITMAP
0820
0820
FF20
0820
08FC
7F24
4924
4924
7F44
0844
1C44
2A84
4884
8908
0A30
ENDCHAR
STARTCHAR uni52C6
ENCODING 21190
SWIDTH 1000 0
DWIDTH 16 0
BBX 16 16 0 -2
BITMAP
0810
0810
7F10
4110
417F
7F11
4111
4111
7F11
4011
4911
4911
4A31
7E23
C362
00CE
ENDCHAR
STARTCHAR uni52C7
ENCODING 21191
SWIDTH 1000 0
DWIDTH 16 0
BBX 15 16 0 -2
BITMAP
3FF8
0430
02C0
3FFC
2104
2104
3FFC
2104
2104
3FFC
0100
FFFE
0202
0602
1C06
701C
ENDCHAR
STARTCHAR uni52C8
ENCODING 21192
SWIDTH 1000 0
DWIDTH 16 0
BBX 16 16 0 -2
BITMAP
0010
FF10
0210
2410
18FF
7F11
4911
4911
7F11
4911
4911
7F11
4933
4922
4922
4B66
ENDCHAR
STARTCHAR uni52C9
ENCODING 21193
SWIDTH 1000 0
DWIDTH 16 0
BBX 15 15 0 -1
BITMAP
2040
3E40
4240
85FC
0844
FE44
9244
9244
FE44
2884
2884
2918
4802
4802
87FE
ENDCHAR
STARTCHAR uni52CA
ENCODING 21194
SWIDTH 1000 0
DWIDTH 16 0
BBX 16 16 0 -2
BITMAP
0810
0810
FF90
0810
087F
7F11
4111
4111
4111
7F31
1421
1423
3462
24C6
6601
C3FF
ENDCHAR
STARTCHAR uni52CC
ENCODING 21196
SWIDTH 1000 0
DWIDTH 16 0
BBX 16 16 0 -2
BITMAP
2A10
6B10
4910
7F10
147F
1411
FF91
2211
2211
7F11
E291
2211
2E33
20A2
21A2
1F66
ENDCHAR
STARTCHAR uni52CD
ENCODING 21197
SWIDTH 1000 0
DWIDTH 16 0
BBX 14 15 0 -1
BITMAP
0820
0820
FF20
0020
7EFC
4224
4224
7E24
0824
0824
4A24
4944
4844
8884
1918
ENDCHAR
STARTCHAR uni52CF
ENCODING 21199
SWIDTH 1000 0
DWIDTH 16 0
BBX 16 16 0 -2
BITMAP
0810
0810
FF90
4110
637F
2211
2211
FF91
0011
0011
7F11
4111
4133
4122
4122
7F66
ENDCHAR
ENDFONT
